<svg xmlns="http://www.w3.org/2000/svg" width="32.123" height="34.919" viewBox="0 0 32.123 34.919">
  <g id="svgexport-6" transform="translate(0.489 0.462)">
    <path id="Path_29315" data-name="Path 29315" d="M1.013,30.219A3.513,3.513,0,0,0,1.992,32.7,3.64,3.64,0,0,0,4.7,33.929a3.7,3.7,0,0,0,1.8-.466l16.856-9.421c.027-.016.04-.041.064-.058.969-.428,2.79-1.569,6.785-3.77h0a3.721,3.721,0,0,0,0-6.487c-3.745-1.912-5.565-3.231-6.648-3.735-1.132-.8-4-2.243-10.239-5.741C5.4-.186,4.17-.95,2.265.94c-2.007.83-1.023,6.378-1.252,29.279ZM15.537,16.938c-.143.14-12.271,13.108-12.4,13.249C3.341,9.4,2.942,6.4,3.146,3.766c.131.141,11.913,12.713,12.391,13.171ZM4.526,31.8C20.839,14.669,16.3,19.439,17.091,18.564l4.045,4.292C5,31.754,5.466,31.909,4.526,31.8ZM29.169,18.364l-6.125,3.426L18.5,16.97l4.542-4.819,6.125,3.426A1.6,1.6,0,0,1,29.169,18.364Zm-8.037-7.275c-1.765,1.854-.2.256-4.107,4.313L4.524,2.137c1.415.126,5.855,2.992,16.608,8.951Z" transform="translate(-0.968 0.028)" fill="#fff" stroke="#fff" stroke-width="1"/>
  </g>
</svg>
