<svg xmlns="http://www.w3.org/2000/svg" width="56" height="56" viewBox="0 0 56 56">
  <g id="apple" transform="translate(0.263 0.057)">
    <circle id="Ellipse_1665" data-name="Ellipse 1665" cx="28" cy="28" r="28" transform="translate(-0.263 -0.058)"/>
    <path id="Icon_metro-apple" data-name="Icon metro-apple" d="M25.54,17.636a6.688,6.688,0,0,1,3.191-5.629,6.9,6.9,0,0,0-5.406-2.929c-2.3-.233-4.492,1.355-5.66,1.355S14.7,9.112,12.788,9.147a7.233,7.233,0,0,0-6.115,3.706c-2.607,4.524-.668,11.226,1.873,14.894,1.242,1.8,2.722,3.813,4.666,3.741,1.872-.075,2.58-1.211,4.843-1.211s2.9,1.211,4.88,1.174c2.014-.037,3.291-1.83,4.524-3.632a16.3,16.3,0,0,0,2.048-4.2,6.529,6.529,0,0,1-3.967-5.98ZM21.818,6.649a6.515,6.515,0,0,0,1.538-4.721A6.627,6.627,0,0,0,19,4.167a6.2,6.2,0,0,0-1.57,4.574A5.483,5.483,0,0,0,21.818,6.649Z" transform="translate(9.085 9.754)" fill="#fff"/>
  </g>
</svg>
