<svg width="42" height="27" viewBox="0 0 42 27" fill="none" xmlns="http://www.w3.org/2000/svg">
<path d="M22.2098 25.3298C16.3659 22.9445 7.44018 9.22919 23.5408 1" stroke="#003764" stroke-width="2" stroke-linecap="round"/>
<path fill-rule="evenodd" clip-rule="evenodd" d="M13.6684 15.3275C13.5396 15.2076 13.4408 15.0522 13.389 14.8707C13.0436 13.6618 12.7917 12.743 12.911 11.7886C13.0294 10.8417 13.4999 9.95451 14.1978 8.73305C14.4461 8.29856 14.9709 8.12097 15.424 8.29528C15.6943 8.19197 16.007 8.20618 16.2778 8.36093C16.7573 8.63493 16.9239 9.24578 16.6499 9.7253C15.9167 11.0084 15.6717 11.5523 15.6111 12.0366C15.5516 12.5134 15.6575 13.0257 16.0276 14.3213C16.1726 14.8289 15.8981 15.3571 15.4097 15.5352C15.2829 15.713 15.0971 15.8507 14.8707 15.9154C14.3736 16.0574 13.8568 15.797 13.6684 15.3275Z" fill="white"/>
<path d="M18.174 16.7334C21.0363 23.5408 31.4122 26.7609 36.5354 16.7334" stroke="#003764" stroke-width="2" stroke-linecap="round"/>
<path d="M36.5188 10.1011C33.6926 3.27865 23.5409 0.284422 18.5318 9.2292" stroke="#003764" stroke-width="2" stroke-linecap="round"/>
<path d="M31.7662 1.61035C37.7422 3.6423 47.4712 16.8 31.8909 25.9762" stroke="#003764" stroke-width="2" stroke-linecap="round"/>
<path fill-rule="evenodd" clip-rule="evenodd" d="M0.715576 8.36682C0.715576 6.70997 2.05872 5.36682 3.71558 5.36682H12.596C14.2068 5.36682 15.521 6.6362 15.5929 8.22915H31.3368C31.751 8.22915 32.2078 8.31157 32.6347 8.5425C34.6717 9.64422 35.5119 11.4738 34.9684 13.1888C34.5026 14.6587 33.1128 15.7115 31.3389 15.9171V18.5317V19.5317H30.3389H22.8252H21.8252V18.5317V16.3116H15.2383V16.4838C15.2383 18.1684 13.8514 19.5228 12.1672 19.4829L3.64452 19.281C2.01581 19.2424 0.715576 17.911 0.715576 16.2818V8.36682ZM30.5177 13.9698C30.5758 13.9593 30.6356 13.9538 30.6966 13.9538C32.075 13.9538 32.8536 13.2416 33.0619 12.5846C33.2473 11.9996 33.0915 11.0633 31.6833 10.3017C31.608 10.261 31.4936 10.2291 31.3368 10.2291H14.596C14.0438 10.2291 13.596 9.78143 13.596 9.22915C13.596 9.14486 13.6065 9.06301 13.6261 8.98481C13.6065 8.90661 13.596 8.82475 13.596 8.74046V8.36682C13.596 7.81454 13.1483 7.36682 12.596 7.36682H3.71558C3.16329 7.36682 2.71558 7.81454 2.71558 8.36682V16.2818C2.71558 16.8249 3.14898 17.2687 3.69189 17.2816L12.2146 17.4835C12.776 17.4968 13.2383 17.0453 13.2383 16.4838V15.6694C13.2383 15.6083 13.2437 15.5485 13.2542 15.4905C13.2437 15.4324 13.2383 15.3727 13.2383 15.3116C13.2383 14.7593 13.686 14.3116 14.2383 14.3116H22.8252H23.8252V15.3116V17.5317H29.3389V14.9538C29.3389 14.4015 29.7866 13.9538 30.3389 13.9538C30.3999 13.9538 30.4597 13.9593 30.5177 13.9698Z" fill="#76BC21"/>
<path d="M10.0181 12.0916C10.0181 13.1201 9.18432 13.9539 8.15578 13.9539C7.12725 13.9539 6.29346 13.1201 6.29346 12.0916C6.29346 11.063 7.12725 10.2292 8.15578 10.2292C9.18432 10.2292 10.0181 11.063 10.0181 12.0916Z" stroke="#003764" stroke-width="2"/>
</svg>
