<svg width="42" height="42" viewBox="0 0 42 42" fill="none" xmlns="http://www.w3.org/2000/svg">
<path d="M24.2783 15.2007C25.9573 15.2007 27.3184 13.8396 27.3184 12.1606C27.3184 10.4816 25.9573 9.12046 24.2783 9.12046C22.5992 9.12046 21.2381 10.4816 21.2381 12.1606C21.2381 13.8396 22.5992 15.2007 24.2783 15.2007Z" stroke="#76BC21" stroke-width="2" stroke-linecap="round" stroke-linejoin="round"/>
<path d="M31.0955 14.9243C30.9728 15.2022 30.9363 15.5104 30.9905 15.8093C31.0446 16.1081 31.1871 16.3839 31.3995 16.601L31.4548 16.6563C31.6261 16.8274 31.762 17.0306 31.8547 17.2543C31.9474 17.4779 31.9951 17.7177 31.9951 17.9598C31.9951 18.202 31.9474 18.4417 31.8547 18.6654C31.762 18.8891 31.6261 19.0923 31.4548 19.2634C31.2836 19.4347 31.0804 19.5706 30.8568 19.6633C30.6331 19.756 30.3933 19.8038 30.1512 19.8038C29.9091 19.8038 29.6693 19.756 29.4456 19.6633C29.222 19.5706 29.0188 19.4347 28.8476 19.2634L28.7924 19.2081C28.5752 18.9957 28.2995 18.8533 28.0006 18.7991C27.7018 18.7449 27.3936 18.7815 27.1157 18.9041C26.8432 19.0209 26.6108 19.2148 26.4472 19.462C26.2835 19.7091 26.1956 19.9987 26.1944 20.2952V20.4518C26.1944 20.9405 26.0003 21.4091 25.6548 21.7546C25.3093 22.1002 24.8406 22.2943 24.352 22.2943C23.8633 22.2943 23.3946 22.1002 23.0491 21.7546C22.7036 21.4091 22.5095 20.9405 22.5095 20.4518V20.3689C22.5023 20.064 22.4036 19.7682 22.2262 19.5201C22.0487 19.2721 21.8008 19.0831 21.5145 18.9778C21.2366 18.8552 20.9284 18.8186 20.6296 18.8728C20.3307 18.927 20.055 19.0694 19.8378 19.2818L19.7826 19.3371C19.6114 19.5084 19.4082 19.6443 19.1846 19.737C18.9609 19.8297 18.7211 19.8775 18.479 19.8775C18.2369 19.8775 17.9971 19.8297 17.7734 19.737C17.5498 19.6443 17.3466 19.5084 17.1754 19.3371C17.0041 19.166 16.8682 18.9628 16.7755 18.7391C16.6828 18.5154 16.6351 18.2757 16.6351 18.0335C16.6351 17.7914 16.6828 17.5516 16.7755 17.328C16.8682 17.1043 17.0041 16.9011 17.1754 16.73L17.2307 16.6747C17.4431 16.4576 17.5856 16.1818 17.6397 15.883C17.6939 15.5841 17.6574 15.2759 17.5347 14.998C17.4179 14.7255 17.224 14.4932 16.9769 14.3295C16.7297 14.1658 16.4401 14.078 16.1436 14.0768H15.987C15.4984 14.0768 15.0297 13.8826 14.6842 13.5371C14.3387 13.1916 14.1445 12.7229 14.1445 12.2343C14.1445 11.7456 14.3387 11.277 14.6842 10.9314C15.0297 10.5859 15.4984 10.3918 15.987 10.3918H16.0699C16.3749 10.3846 16.6706 10.2859 16.9187 10.1085C17.1668 9.93107 17.3557 9.6831 17.461 9.39683C17.5837 9.11897 17.6202 8.81074 17.566 8.51189C17.5119 8.21305 17.3694 7.93728 17.157 7.72016L17.1017 7.66489C16.9304 7.49377 16.7945 7.29056 16.7018 7.06689C16.6091 6.84321 16.5614 6.60346 16.5614 6.36132C16.5614 6.11919 16.6091 5.87943 16.7018 5.65576C16.7945 5.43208 16.9304 5.22888 17.1017 5.05776C17.2729 4.88645 17.4761 4.75055 17.6997 4.65783C17.9234 4.56511 18.1632 4.51738 18.4053 4.51738C18.6474 4.51738 18.8872 4.56511 19.1109 4.65783C19.3345 4.75055 19.5377 4.88645 19.7089 5.05776L19.7641 5.11303C19.9813 5.32542 20.257 5.46788 20.5559 5.52207C20.8547 5.57626 21.1629 5.53968 21.4408 5.41705H21.5145C21.787 5.30027 22.0194 5.10636 22.1831 4.8592C22.3467 4.61204 22.4346 4.32241 22.4358 4.02596V3.86935C22.4358 3.38069 22.6299 2.91204 22.9754 2.56651C23.3209 2.22097 23.7896 2.02686 24.2783 2.02686C24.7669 2.02686 25.2356 2.22097 25.5811 2.56651C25.9266 2.91204 26.1207 3.38069 26.1207 3.86935V3.95226C26.1219 4.24871 26.2098 4.53834 26.3735 4.7855C26.5371 5.03266 26.7695 5.22657 27.042 5.34335C27.3199 5.46598 27.6281 5.50256 27.9269 5.44837C28.2258 5.39419 28.5015 5.25172 28.7187 5.03933L28.7739 4.98406C28.9451 4.81275 29.1483 4.67685 29.3719 4.58413C29.5956 4.49141 29.8354 4.44368 30.0775 4.44368C30.3196 4.44368 30.5594 4.49141 30.7831 4.58413C31.0067 4.67685 31.2099 4.81275 31.3811 4.98406C31.5524 5.15518 31.6883 5.35838 31.781 5.58206C31.8737 5.80573 31.9214 6.04549 31.9214 6.28762C31.9214 6.52976 31.8737 6.76951 31.781 6.99319C31.6883 7.21686 31.5524 7.42007 31.3811 7.59119L31.3258 7.64646C31.1134 7.86358 30.9709 8.13935 30.9168 8.43819C30.8626 8.73704 30.8991 9.04527 31.0218 9.32313V9.39683C31.1386 9.66931 31.3325 9.90169 31.5796 10.0654C31.8268 10.2291 32.1164 10.3169 32.4129 10.3181H32.5695C33.0581 10.3181 33.5268 10.5122 33.8723 10.8577C34.2179 11.2033 34.412 11.6719 34.412 12.1606C34.412 12.6492 34.2179 13.1179 33.8723 13.4634C33.5268 13.8089 33.0581 14.0031 32.5695 14.0031H32.4866C32.1901 14.0043 31.9005 14.0921 31.6533 14.2558C31.4062 14.4195 31.2123 14.6518 31.0955 14.9243Z" stroke="#76BC21" stroke-width="2" stroke-linecap="round" stroke-linejoin="round"/>
<path d="M1.69488 40.303L8.48569 38.1423C8.97125 37.9878 9.263 37.4929 9.16307 36.9932L7.10935 26.7246C6.99845 26.1701 6.45019 25.8178 5.89973 25.9473L1 27.1002" stroke="#003764" stroke-width="2" stroke-linecap="round"/>
<path d="M8.99121 34.7441L23.5999 36.4428C23.815 36.4678 24.0323 36.4224 24.2193 36.3133L40.4628 26.8379C40.5592 26.7817 40.6478 26.7117 40.7094 26.6186C41.2994 25.726 41.2604 23.6839 37.9703 23.6272C37.8782 23.6256 37.7839 23.6387 37.6953 23.6638L19.4145 28.8376" stroke="#003764" stroke-width="2" stroke-linecap="round"/>
<path d="M7.60156 27.7955L13.6662 24.7632C13.791 24.7008 13.9275 24.6652 14.0669 24.6587L28.7955 23.9736C29.0271 23.9736 29.4904 24.8075 29.4904 25.3634" stroke="#003764" stroke-width="2" stroke-linecap="round"/>
</svg>
