<svg width="40" height="33" viewBox="0 0 40 33" fill="none" xmlns="http://www.w3.org/2000/svg">
<path d="M37.4688 11.3979C37.4688 13.9488 35.6469 15.8177 33.6315 15.8177C31.6161 15.8177 29.7942 13.9488 29.7942 11.3979C29.7942 8.84701 31.6161 6.97815 33.6315 6.97815C35.6469 6.97815 37.4688 8.84701 37.4688 11.3979Z" stroke="#003764" stroke-width="2"/>
<path fill-rule="evenodd" clip-rule="evenodd" d="M27.0959 30.6714C27.3441 30.7195 27.6009 30.7448 27.8643 30.7448H35.9127C38.3415 30.7448 40.2098 28.5978 39.8743 26.1923L39.0843 20.5279C38.8087 18.5514 37.1183 17.0804 35.1227 17.0804H31.9334L31.2216 19.0804H35.1227C36.1205 19.0804 36.9657 19.8159 37.1035 20.8042L37.8935 26.4685C38.0613 27.6713 37.1271 28.7448 35.9127 28.7448H27.8643C27.8368 28.7448 27.8095 28.7442 27.7823 28.7432L27.0959 30.6714Z" fill="#003764"/>
<path d="M2.55014 11.394C2.54766 13.9448 4.36775 15.8155 6.38326 15.8175C8.39877 15.8195 10.2225 13.9525 10.225 11.4017C10.2274 8.85088 8.40735 6.98019 6.39184 6.97817C4.37633 6.97614 2.55261 8.84316 2.55014 11.394Z" stroke="#003764" stroke-width="2"/>
<path fill-rule="evenodd" clip-rule="evenodd" d="M12.9043 30.6778C12.6561 30.7256 12.3993 30.7506 12.136 30.7504L4.08739 30.7422C1.65853 30.7397 -0.207708 28.5909 0.130119 26.1856L0.925551 20.5224C1.20312 18.5462 2.89488 17.0769 4.89052 17.079L8.08008 17.0822L8.79001 19.0829L4.8886 19.079C3.89077 19.0779 3.0449 19.8126 2.90611 20.8007L2.11068 26.4639C1.94176 27.6665 2.87489 28.741 4.08931 28.7422L12.1379 28.7504C12.1654 28.7504 12.1927 28.7499 12.2198 28.7488L12.9043 30.6778Z" fill="#003764"/>
<path d="M25.2546 6.40516C25.2546 9.39868 22.8515 11.8103 19.9056 11.8103C16.9598 11.8103 14.5566 9.39868 14.5566 6.40516C14.5566 3.41165 16.9598 1 19.9056 1C22.8515 1 25.2546 3.41165 25.2546 6.40516Z" stroke="#76BC21" stroke-width="2"/>
<path d="M16.3659 14.6643H23.2175C24.7529 14.6643 26.0405 15.8236 26.201 17.3506L27.3352 28.1391C27.5214 29.9103 26.1326 31.4528 24.3517 31.4528H15.3937C13.6306 31.4528 12.2476 29.9396 12.4059 28.1835L13.378 17.3951C13.5174 15.8488 14.8134 14.6643 16.3659 14.6643Z" fill="white" stroke="#76BC21" stroke-width="2"/>
</svg>
