<svg width="27" height="28" viewBox="0 0 27 28" fill="none" xmlns="http://www.w3.org/2000/svg">
<g clip-path="url(#clip0_2757_32476)">
<path d="M24.4354 24.1257L22.1854 17.3757H14.6242C14.3259 17.3757 14.0397 17.2572 13.8287 17.0462C13.6178 16.8353 13.4992 16.5491 13.4992 16.2507V15.1257H21.3742V12.8757H13.4992V9.34099C14.5597 9.06718 15.4839 8.41599 16.0987 7.50948C16.7134 6.60298 16.9764 5.50341 16.8384 4.41687C16.7004 3.33033 16.1708 2.33142 15.349 1.60738C14.5272 0.883343 13.4695 0.483887 12.3742 0.483887C11.279 0.483887 10.2213 0.883343 9.39947 1.60738C8.57765 2.33142 8.0481 3.33033 7.9101 4.41687C7.77209 5.50341 8.03509 6.60298 8.6498 7.50948C9.26452 8.41599 10.1887 9.06718 11.2492 9.34099V16.2507C11.2492 17.1459 11.6048 18.0043 12.2377 18.6372C12.8707 19.2702 13.7291 19.6257 14.6242 19.6257H15.648C15.4334 20.895 14.8605 22.0764 13.9966 23.0307C13.1328 23.985 12.014 24.6724 10.7724 25.0118C9.53073 25.3513 8.2179 25.3286 6.9887 24.9465C5.7595 24.5644 4.66518 23.8388 3.83478 22.8552C3.00439 21.8717 2.47253 20.6712 2.30193 19.3953C2.13134 18.1195 2.32911 16.8214 2.87193 15.6543C3.41475 14.4871 4.27999 13.4995 5.36562 12.8078C6.45125 12.1162 7.71201 11.7494 8.99923 11.7507V9.50074C7.2669 9.49939 5.57099 9.99802 4.11508 10.9368C2.65916 11.8755 1.5051 13.2145 0.791425 14.793C0.0777547 16.3715 -0.165198 18.1224 0.0917296 19.8356C0.348657 21.5487 1.09455 23.1514 2.23987 24.451C3.38518 25.7507 4.88126 26.6923 6.54851 27.1626C8.21575 27.633 9.98332 27.6122 11.639 27.1027C13.2948 26.5933 14.7683 25.6168 15.8827 24.2905C16.9971 22.9642 17.7051 21.3445 17.9216 19.6257H20.5631L22.8131 26.3757H26.9992V24.1257H24.4354ZM10.1242 5.00074C10.1242 4.55574 10.2562 4.12072 10.5034 3.75071C10.7507 3.3807 11.1021 3.09231 11.5132 2.92201C11.9243 2.75172 12.3767 2.70716 12.8132 2.79398C13.2496 2.88079 13.6506 3.09508 13.9652 3.40975C14.2799 3.72442 14.4942 4.12533 14.581 4.56179C14.6678 4.99825 14.6233 5.45065 14.453 5.86178C14.2827 6.27291 13.9943 6.62432 13.6243 6.87155C13.2543 7.11878 12.8192 7.25074 12.3742 7.25074C11.7775 7.25074 11.2052 7.01369 10.7832 6.59173C10.3613 6.16978 10.1242 5.59748 10.1242 5.00074Z" fill="#003764"/>
</g>
<defs>
<clipPath id="clip0_2757_32476">
<rect width="27" height="27" fill="white" transform="translate(0 0.5)"/>
</clipPath>
</defs>
</svg>
