<svg width="40" height="40" viewBox="0 0 40 40" fill="none" xmlns="http://www.w3.org/2000/svg">
<path d="M38.9999 12.5926C38.9999 14.0858 37.7894 15.2963 36.2962 15.2963C34.803 15.2963 33.5925 14.0858 33.5925 12.5926C33.5925 11.0994 34.803 9.88892 36.2962 9.88892C37.7894 9.88892 38.9999 11.0994 38.9999 12.5926Z" stroke="#76BC21" stroke-width="2"/>
<path d="M19.7406 2.96296C19.7406 4.04708 18.8618 4.92593 17.7777 4.92593C16.6935 4.92593 15.8147 4.04708 15.8147 2.96296C15.8147 1.87885 16.6935 1 17.7777 1C18.8618 1 19.7406 1.87885 19.7406 2.96296Z" stroke="#1D4861" stroke-width="2"/>
<path d="M9.37026 10.3703C9.37026 11.4544 8.49141 12.3333 7.4073 12.3333C6.32318 12.3333 5.44434 11.4544 5.44434 10.3703C5.44434 9.2862 6.32318 8.40735 7.4073 8.40735C8.49141 8.40735 9.37026 9.2862 9.37026 10.3703Z" stroke="#1D4861" stroke-width="2"/>
<circle cx="18.1481" cy="19.6297" r="5.2963" stroke="#1D4861" stroke-width="2"/>
<path d="M19.7406 36.2963C19.7406 37.3805 18.8618 38.2593 17.7777 38.2593C16.6935 38.2593 15.8147 37.3805 15.8147 36.2963C15.8147 35.2122 16.6935 34.3334 17.7777 34.3334C18.8618 34.3334 19.7406 35.2122 19.7406 36.2963Z" stroke="#1D4861" stroke-width="2"/>
<circle cx="4.44444" cy="32.5926" r="3.44444" stroke="#76BC21" stroke-width="2"/>
<path d="M33.7036 13.7037L24.8147 17.0371" stroke="#76BC21" stroke-width="2"/>
<path d="M17.7778 25.5555V34.0741" stroke="#1D4861" stroke-width="2"/>
<path d="M17.7778 5.18518V13.7037" stroke="#1D4861" stroke-width="2"/>
<path d="M8.88892 11.8518L13.3334 16.6666" stroke="#1D4861" stroke-width="2"/>
<path d="M8.14819 28.8889L14.0741 23.7037" stroke="#1D4861" stroke-width="2"/>
</svg>
