<svg width="19" height="18" viewBox="0 0 19 18" fill="none" xmlns="http://www.w3.org/2000/svg">
<path d="M3.01361 9.75H5.2652V11.25H3.01361V9.75ZM6.76627 11.25H9.01787V9.75H6.76627V11.25ZM3.01361 14.25H5.2652V12.75H3.01361V14.25ZM6.76627 14.25H9.01787V12.75H6.76627V14.25ZM3.01361 5.25H5.2652V3.75H3.01361V5.25ZM6.76627 5.25H9.01787V3.75H6.76627V5.25ZM3.01361 8.25H5.2652V6.75H3.01361V8.25ZM6.76627 8.25H9.01787V6.75H6.76627V8.25ZM18.0243 6V18H0.0114746V2.25C0.0114746 1.65326 0.248696 1.08097 0.670953 0.65901C1.09321 0.237053 1.66591 0 2.26307 0L9.7684 0C10.3656 0 10.9383 0.237053 11.3605 0.65901C11.7828 1.08097 12.02 1.65326 12.02 2.25V3.75H15.7727C16.3698 3.75 16.9425 3.98705 17.3648 4.40901C17.787 4.83097 18.0243 5.40326 18.0243 6ZM10.5189 2.25C10.5189 2.05109 10.4399 1.86032 10.2991 1.71967C10.1584 1.57902 9.96746 1.5 9.7684 1.5H2.26307C2.06402 1.5 1.87312 1.57902 1.73237 1.71967C1.59161 1.86032 1.51254 2.05109 1.51254 2.25V16.5H10.5189V2.25ZM16.5232 6C16.5232 5.80109 16.4441 5.61032 16.3034 5.46967C16.1626 5.32902 15.9717 5.25 15.7727 5.25H12.02V16.5H16.5232V6ZM13.5211 11.25H15.0221V9.75H13.5211V11.25ZM13.5211 14.25H15.0221V12.75H13.5211V14.25ZM13.5211 8.25H15.0221V6.75H13.5211V8.25Z" fill="#1D4861"/>
</svg>
