<svg width="16" height="16" viewBox="0 0 16 16" fill="none" xmlns="http://www.w3.org/2000/svg">
<path d="M9.47949 5H10.2295C10.4284 5 10.6192 4.92098 10.7598 4.78033C10.9005 4.63968 10.9795 4.44891 10.9795 4.25C10.9795 4.05109 10.9005 3.86032 10.7598 3.71967C10.6192 3.57902 10.4284 3.5 10.2295 3.5H9.47949C9.28058 3.5 9.08981 3.57902 8.94916 3.71967C8.80851 3.86032 8.72949 4.05109 8.72949 4.25C8.72949 4.44891 8.80851 4.63968 8.94916 4.78033C9.08981 4.92098 9.28058 5 9.47949 5ZM9.47949 8H10.2295C10.4284 8 10.6192 7.92098 10.7598 7.78033C10.9005 7.63968 10.9795 7.44891 10.9795 7.25C10.9795 7.05109 10.9005 6.86032 10.7598 6.71967C10.6192 6.57902 10.4284 6.5 10.2295 6.5H9.47949C9.28058 6.5 9.08981 6.57902 8.94916 6.71967C8.80851 6.86032 8.72949 7.05109 8.72949 7.25C8.72949 7.44891 8.80851 7.63968 8.94916 7.78033C9.08981 7.92098 9.28058 8 9.47949 8ZM5.72949 5H6.47949C6.6784 5 6.86917 4.92098 7.00982 4.78033C7.15047 4.63968 7.22949 4.44891 7.22949 4.25C7.22949 4.05109 7.15047 3.86032 7.00982 3.71967C6.86917 3.57902 6.6784 3.5 6.47949 3.5H5.72949C5.53058 3.5 5.33981 3.57902 5.19916 3.71967C5.05851 3.86032 4.97949 4.05109 4.97949 4.25C4.97949 4.44891 5.05851 4.63968 5.19916 4.78033C5.33981 4.92098 5.53058 5 5.72949 5ZM5.72949 8H6.47949C6.6784 8 6.86917 7.92098 7.00982 7.78033C7.15047 7.63968 7.22949 7.44891 7.22949 7.25C7.22949 7.05109 7.15047 6.86032 7.00982 6.71967C6.86917 6.57902 6.6784 6.5 6.47949 6.5H5.72949C5.53058 6.5 5.33981 6.57902 5.19916 6.71967C5.05851 6.86032 4.97949 7.05109 4.97949 7.25C4.97949 7.44891 5.05851 7.63968 5.19916 7.78033C5.33981 7.92098 5.53058 8 5.72949 8ZM14.7295 14H13.9795V1.25C13.9795 1.05109 13.9005 0.860322 13.7598 0.71967C13.6192 0.579018 13.4284 0.5 13.2295 0.5H2.72949C2.53058 0.5 2.33981 0.579018 2.19916 0.71967C2.05851 0.860322 1.97949 1.05109 1.97949 1.25V14H1.22949C1.03058 14 0.839814 14.079 0.699162 14.2197C0.55851 14.3603 0.479492 14.5511 0.479492 14.75C0.479492 14.9489 0.55851 15.1397 0.699162 15.2803C0.839814 15.421 1.03058 15.5 1.22949 15.5H14.7295C14.9284 15.5 15.1192 15.421 15.2598 15.2803C15.4005 15.1397 15.4795 14.9489 15.4795 14.75C15.4795 14.5511 15.4005 14.3603 15.2598 14.2197C15.1192 14.079 14.9284 14 14.7295 14ZM8.72949 14H7.22949V11H8.72949V14ZM12.4795 14H10.2295V10.25C10.2295 10.0511 10.1505 9.86032 10.0098 9.71967C9.86917 9.57902 9.6784 9.5 9.47949 9.5H6.47949C6.28058 9.5 6.08981 9.57902 5.94916 9.71967C5.80851 9.86032 5.72949 10.0511 5.72949 10.25V14H3.47949V2H12.4795V14Z" fill="#1D4861"/>
</svg>
