<svg width="10" height="13" viewBox="0 0 10 13" fill="none" xmlns="http://www.w3.org/2000/svg">
<path fill-rule="evenodd" clip-rule="evenodd" d="M2.22902 5.83317C2.22902 4.30288 3.46956 3.06234 4.99985 3.06234C6.53014 3.06234 7.77068 4.30288 7.77068 5.83317C7.77068 7.36346 6.53014 8.604 4.99985 8.604C3.46956 8.604 2.22902 7.36346 2.22902 5.83317ZM4.99985 3.93734C3.95281 3.93734 3.10402 4.78613 3.10402 5.83317C3.10402 6.88021 3.95281 7.729 4.99985 7.729C6.04689 7.729 6.89568 6.88021 6.89568 5.83317C6.89568 4.78613 6.04689 3.93734 4.99985 3.93734Z" fill="#1D4861"/>
<path fill-rule="evenodd" clip-rule="evenodd" d="M0.0557304 5.16633C0.262421 2.65881 2.35784 0.729004 4.87387 0.729004H5.12583C7.64186 0.729004 9.73728 2.65881 9.94397 5.16633C10.055 6.51334 9.63892 7.85086 8.78337 8.89717L5.98742 12.3165C5.477 12.9408 4.5227 12.9408 4.01228 12.3165L1.21633 8.89717C0.36078 7.85086 -0.0553007 6.51334 0.0557304 5.16633ZM4.87387 1.604C2.81322 1.604 1.09705 3.18453 0.927773 5.23822C0.835365 6.35929 1.18166 7.47247 1.89371 8.34329L4.68966 11.7627C4.84998 11.9587 5.14972 11.9587 5.31004 11.7627L8.106 8.34329C8.81805 7.47247 9.16434 6.35929 9.07193 5.23822C8.90265 3.18453 7.18648 1.604 5.12583 1.604H4.87387Z" fill="#1D4861"/>
</svg>
