<svg width="10" height="14" viewBox="0 0 10 14" fill="none" xmlns="http://www.w3.org/2000/svg">
<path d="M3.24984 10.7915H6.74984M1.84984 1.1665H8.14984C8.47653 1.1665 8.63988 1.1665 8.76467 1.23008C8.87443 1.28601 8.96366 1.37525 9.01959 1.48501C9.08317 1.60979 9.08317 1.77314 9.08317 2.09984V3.30997C9.08317 3.59533 9.08317 3.73801 9.05094 3.87227C9.02236 3.99132 8.97522 4.10512 8.91125 4.2095C8.8391 4.32724 8.73821 4.42813 8.53644 4.6299L6.82647 6.33987C6.59546 6.57088 6.47996 6.68639 6.43668 6.81958C6.39861 6.93674 6.39861 7.06294 6.43668 7.1801C6.47996 7.31329 6.59546 7.42879 6.82647 7.6598L8.53644 9.36977C8.73821 9.57155 8.8391 9.67243 8.91125 9.79017C8.97522 9.89456 9.02236 10.0084 9.05094 10.1274C9.08317 10.2617 9.08317 10.4043 9.08317 10.6897V11.8998C9.08317 12.2265 9.08317 12.3899 9.01959 12.5147C8.96366 12.6244 8.87443 12.7137 8.76467 12.7696C8.63988 12.8332 8.47653 12.8332 8.14984 12.8332H1.84984C1.52314 12.8332 1.35979 12.8332 1.23501 12.7696C1.12525 12.7137 1.03601 12.6244 0.980083 12.5147C0.916504 12.3899 0.916504 12.2265 0.916504 11.8998V10.6897C0.916504 10.4043 0.916504 10.2617 0.948739 10.1274C0.977319 10.0084 1.02446 9.89456 1.08842 9.79017C1.16057 9.67243 1.26146 9.57155 1.46324 9.36977L3.17321 7.6598C3.40421 7.42879 3.51972 7.31329 3.563 7.1801C3.60106 7.06294 3.60106 6.93674 3.563 6.81958C3.51972 6.68639 3.40421 6.57088 3.1732 6.33987L1.46324 4.6299C1.26146 4.42813 1.16057 4.32724 1.08842 4.2095C1.02446 4.10512 0.977319 3.99132 0.948739 3.87227C0.916504 3.73801 0.916504 3.59533 0.916504 3.30997V2.09984C0.916504 1.77314 0.916504 1.60979 0.980083 1.48501C1.03601 1.37525 1.12525 1.28601 1.23501 1.23008C1.35979 1.1665 1.52314 1.1665 1.84984 1.1665Z" stroke="#003764" stroke-linecap="round" stroke-linejoin="round"/>
</svg>
