<svg width="44" height="54" viewBox="0 0 44 54" fill="none" xmlns="http://www.w3.org/2000/svg">
<path d="M24.75 25.625C24.75 23.3468 26.5968 21.5 28.875 21.5C31.1532 21.5 33 23.3468 33 25.625C33 27.9032 31.1532 29.75 28.875 29.75C26.5968 29.75 24.75 27.9032 24.75 25.625Z" fill="#F4E1E3"/>
<path d="M19.624 30.0319C19.2471 29.4288 18.5861 29.0625 17.875 29.0625C17.1639 29.0625 16.5029 29.4288 16.126 30.0319L9.251 41.0319C8.85363 41.6677 8.83258 42.4691 9.19605 43.1248C9.55951 43.7806 10.2502 44.1875 11 44.1875H33C33.7812 44.1875 34.4954 43.7461 34.8448 43.0474C35.1941 42.3486 35.1187 41.5125 34.65 40.8875L30.525 35.3875C30.1355 34.8682 29.5242 34.5625 28.875 34.5625C28.2258 34.5625 27.6145 34.8682 27.225 35.3875L24.9048 38.4811L19.624 30.0319Z" fill="#F4E1E3"/>
<path fill-rule="evenodd" clip-rule="evenodd" d="M8.25 0.1875C4.07335 0.1875 0.6875 3.57334 0.6875 7.75V46.25C0.6875 50.4267 4.07334 53.8125 8.25 53.8125H35.75C39.9267 53.8125 43.3125 50.4267 43.3125 46.25V15.9111C43.3125 14.8639 42.971 13.8454 42.3397 13.0099L34.0958 2.09886C33.1863 0.895069 31.7649 0.1875 30.2561 0.1875H8.25ZM4.8125 7.75C4.8125 5.85152 6.35152 4.3125 8.25 4.3125H28.1875V16.4044C28.1875 17.5435 29.1109 18.4669 30.25 18.4669H39.1875V46.25C39.1875 48.1485 37.6485 49.6875 35.75 49.6875H8.25C6.35152 49.6875 4.8125 48.1485 4.8125 46.25V7.75Z" fill="#F4E1E3"/>
</svg>
