<svg xmlns="http://www.w3.org/2000/svg" width="29.472" height="19.648" viewBox="0 0 29.472 19.648">
  <g id="Flag_of_Saudi_Arabia__type_2_" data-name="Flag_of_Saudi_Arabia_(type_2)" transform="translate(0)">
    <path id="Path_28960" data-name="Path 28960" d="M29.472,16.981V-2.667H0V16.981Z" transform="translate(0 2.667)" fill="#006c35"/>
    <path id="Path_28961" data-name="Path 28961" d="M18-3.7H16.83v-.111c.053-.046.124-.107.124-.143,0-.062-.147-.189-.181-.189s-.181.13-.181.189c0,.039.064.094.117.14l0,0V-3.7H7.5c.328.326.814.322,1.79.332.87.013.867.013,7.419,0v.117c-.053.046-.117.107-.117.143,0,.062.139.189.181.189a.4.4,0,0,0,.158-.134h.4a.177.177,0,0,0,.158.072.185.185,0,0,0,.158-.072h.482a.241.241,0,0,0,.192.072c.185-.007.226-.1.226-.427C18.548-3.681,18.364-3.71,18-3.7Zm.083.55h-.43a.179.179,0,0,0-.158-.075.179.179,0,0,0-.158.075h-.4a.472.472,0,0,0-.106-.1v-.117h1.251a.36.36,0,0,0,0,.218Z" transform="translate(1.71 17.655)" fill="#fff"/>
    <g id="Group_12880" data-name="Group 12880" transform="translate(7.368 4.912)">
      <path id="Path_28962" data-name="Path 28962" d="M-5.62,4.406c.1-.262.108-.5-.01-.411-.1.075-.157,0-.079-.084.1-.122.226-.159.256.047A.889.889,0,0,1-5.62,4.406Z" transform="translate(6.112 -3.77)" fill="#fff"/>
      <path id="Path_28963" data-name="Path 28963" d="M-4.707,5.861c.029.337.128.963.128,1.178s.039.159.1.037a.853.853,0,0,0,.039-.43c-.02-.187-.029-.5-.069-.916a.661.661,0,0,0,.177-.206c.079-.14.1-.131.128-.019.059.224.295.374.609.159.295-.2.167-.608.039-1.057.108.019.147-.065.079-.178a.8.8,0,0,0-.138-.178c-.049-.056-.1-.1-.147-.047s-.088.1-.118.14-.029.075.01.168a2.787,2.787,0,0,1,.216.7c.029.15-.029.187-.138.187a.3.3,0,0,1-.314-.252,1.385,1.385,0,0,1-.079-.477.5.5,0,0,0-.079-.4c-.118-.15-.128-.122-.157-.047a.649.649,0,0,0-.02.346c.049.206.079.383.108.5a.456.456,0,0,1-.2.355c-.029-.281-.079-.655-.1-.954.167-.056.079-.271-.059-.5-.1-.178-.138-.1-.206.009s-.02.159.029.252c-.039.075.029.187.059.393.01.131.039.5.069.832A.281.281,0,0,1-5,5.263a.778.778,0,0,1-.029-.589c.049-.14.1-.355.01-.411s-.187.009-.256.112a1.294,1.294,0,0,0-.236.664,1.109,1.109,0,0,1-.088.374c-.039.075-.108.084-.177-.028a1.9,1.9,0,0,1-.147-.86c0-.112-.029-.131-.069,0a1.7,1.7,0,0,0,.128,1.141c.108.206.246.159.344-.009.147-.252.088-.477.226-.851.079-.234.108-.056.079.084-.069.374-.049.982.511.973Z" transform="translate(6.044 -3.757)" fill="#fff"/>
      <path id="Path_28964" data-name="Path 28964" d="M-4.609,3.9a.23.23,0,0,0,.039.224.136.136,0,0,0,.2.019c.049-.056.049-.065.1.009.029.056.128.037.157-.019a.177.177,0,0,0,.02-.159c-.029-.065-.029-.047-.049.028-.02.122-.138.094-.147-.056s-.029-.065-.069.028c-.069.14-.167.112-.167-.009,0-.1-.029-.187-.079-.065Z" transform="translate(6.368 -3.763)" fill="#fff"/>
      <path id="Path_28965" data-name="Path 28965" d="M-5.906,6.294a1.917,1.917,0,0,1,.835-.552c.118-.037.177-.084.177.028s0,.112-.1.14a3.714,3.714,0,0,0-.855.393C-5.925,6.36-6.023,6.425-5.906,6.294Z" transform="translate(6.063 -3.339)" fill="#fff"/>
      <path id="Path_28966" data-name="Path 28966" d="M-5.707,6.668a1.754,1.754,0,0,1,.01.2,1.179,1.179,0,0,1-.059.215c-.118.4.059.6.157.449s.138-.131.128-.009c-.01.4-.413.43-.442.094A1.42,1.42,0,0,1-5.8,6.817C-5.766,6.7-5.727,6.6-5.707,6.668Z" transform="translate(6.071 -3.124)" fill="#fff"/>
      <path id="Path_28967" data-name="Path 28967" d="M-3.742,6.49c-.039.009-.079.028-.108.037-.177.047-.206-.019-.2-.122s.02-.131.138-.084a.473.473,0,0,1,.167.168l.265-.094a.972.972,0,0,0-.226-.29c-.177-.168-.324-.178-.472.028a.487.487,0,0,0-.118.421c.01.178-.029.243.118.29a.37.37,0,0,0,.285,0c.069-.019.167-.047.265-.084a.329.329,0,0,1-.049.271c-.364.411-.924.711-1.169.44A.8.8,0,0,1-5,6.808c.039-.234-.039-.131-.069-.047a1.23,1.23,0,0,0,0,.86.609.609,0,0,0,.855.215c.423-.178.835-.5.816-.935,0-.084-.01-.159-.01-.215.039-.019.108-.065.157-.084.01.15-.01.337,0,.486a.737.737,0,0,1-.354.748,2.041,2.041,0,0,1-.865.355c-.678.094-.835-.318-.826-.87,0-.084.039-.14.039-.262-.01-.234-.039-.2-.118.037A1.667,1.667,0,0,0-5.3,8.276c.236.43,1.032.309,1.651.028A1.215,1.215,0,0,0-3,6.957c0-.14-.01-.29-.02-.449C-3,6.5-3,6.48-2.985,6.471c.088.271.5.2.629.037.069-.075.069-.084.128,0,.088.122.393.159.472-.009a.915.915,0,0,0,.039-.477c-.02-.131-.049-.122-.138-.056s-.02.084-.01.178c.039.355-.285.327-.324-.037-.02-.224-.059-.14-.088-.037-.138.44-.541.524-.5.019.01-.15-.088-.1-.138-.047a1.451,1.451,0,0,1-.138.112c-.029-.411-.059-.879-.108-1.44.118.14.226-.019.147-.178-.059-.122-.147-.393-.206-.542s-.079-.1-.206.019-.1.159-.039.29a2.922,2.922,0,0,0,.049.645c.029.234.108.72.147,1.337-.059.028-.147.084-.206.112Z" transform="translate(6.18 -3.75)" fill="#fff"/>
      <path id="Path_28968" data-name="Path 28968" d="M-2.885,6.587a.547.547,0,0,1-.02.281c-.039.084,0,.122.059.019a.551.551,0,0,0,.069-.374c-.01-.094-.01-.122-.1-.159s-.128.019-.157.094C-3.072,6.541-3.022,6.643-2.885,6.587Z" transform="translate(6.728 -3.193)" fill="#fff"/>
      <path id="Path_28969" data-name="Path 28969" d="M-2.674,4.885c-.118.14-.206.346-.039.468.088.075.275-.009.344-.15s.039-.168-.079-.047c-.167.178-.334.019-.157-.224C-2.487,4.764-2.556,4.726-2.674,4.885Z" transform="translate(6.782 -3.548)" fill="#fff"/>
      <path id="Path_28970" data-name="Path 28970" d="M-2.32,4.262a.631.631,0,0,0,.049-.122c.02-.056-.029-.112-.069-.028-.029.065-.039.112.02.15l-.108.178a.319.319,0,0,1-.079-.383c.118-.29.511-.252.4.122a.772.772,0,0,1-.079.206c.059.075.029.168-.088.15a1.7,1.7,0,0,1-.8.589c-.2.084-.226.019-.079-.065a2.672,2.672,0,0,0,.717-.617Z" transform="translate(6.684 -3.758)" fill="#fff"/>
      <path id="Path_28971" data-name="Path 28971" d="M-2.1,4.32a1.047,1.047,0,0,0,.177,1.169c.187.2.324.1.4-.112s.147-.411.206-.552.108-.112.1.019c-.029.262-.049.683.226.842s.7-.112.845-.393c.442.561.835.3.884-.243a2,2,0,0,0-.118-.636C.569,4.3.6,4.3.667,4.357s.187.1.128-.084A.78.78,0,0,0,.54,3.908c-.1-.084-.118-.037-.157.028s-.029.084-.088.131-.049.084,0,.187c.167.411.324,1.01.059,1.066-.246.047-.4-.458-.413-.683a2.44,2.44,0,0,0-.108-.711c-.069-.159-.088-.187-.138-.1-.039.065-.049.112-.088.178s0,.084.029.215c.147.655.128.954-.187,1.122s-.482.009-.482-.2a3.491,3.491,0,0,1,.02-.645c.02-.187.069-.215,0-.309s-.128-.065-.216.056a3.9,3.9,0,0,0-.462.907c-.069.215-.206.14-.3-.037a1.343,1.343,0,0,1-.059-.748C-2.015,4.217-2.035,4.151-2.1,4.32Z" transform="translate(6.92 -3.778)" fill="#fff"/>
      <path id="Path_28972" data-name="Path 28972" d="M-1.024,3.927c-.069.065-.069.075-.01.159a.689.689,0,0,1,.118.486c-.01.094.01.187.059.019a1.114,1.114,0,0,0-.02-.542C-.926,3.908-.985,3.871-1.024,3.927Z" transform="translate(7.176 -3.749)" fill="#fff"/>
      <path id="Path_28973" data-name="Path 28973" d="M1,6.025c.069-.019.138-.028.216-.047.206-.047.088-.065-.049-.15s-.206-.084-.2.009A1.749,1.749,0,0,0,1,6.025L.747,6.1C.58,5.867.688,5.7.815,5.52c.157-.215.413-.15.708.047s.177.5-.108.664a1.794,1.794,0,0,1-.265.112c.029.065-.01.084-.1.028A6.264,6.264,0,0,0,.226,6.7c.285.019,1.464,0,1.7-.028s.2.019.128.215-.147.168-.344.2A6.7,6.7,0,0,0,.6,7.4c-.334.131-.216.365.128.486.265.065.236.094.187.243s-.039.178-.364.131a1.38,1.38,0,0,1-1.209-.87c-.491.664-.973,1.029-1.425.916a.479.479,0,0,1-.354-.486,8.191,8.191,0,0,1-1.15.393c-.108.037-.2-.009-.049-.075a10.06,10.06,0,0,0,1.209-.673,2.707,2.707,0,0,1,.216-.57c.049-.1.079-.065.079.019,0,.065-.02.234-.01.355.069-.056.167-.112.216-.159.275-.234.58-.383.373-.757-.088-.168-.157-.29-.187-.365-.177-.065-.128-.159-.049-.318s.108-.2.265-.019c.226.252.256.365.1.346.246.6.187.907-.2,1.262a2.3,2.3,0,0,1-.58.43c-.02.159.049.318.364.271A1.824,1.824,0,0,0-.767,7c-.088-.327-.285-.916-.4-1.216-.059-.15,0-.215.049-.337s.088-.2.157-.028A4.749,4.749,0,0,1-.58,6.456c.108.477.088.888.344,1.113a.982.982,0,0,0,.423.206C.068,7.456.314,7.213.638,7.1c-.2-.178-.5-.15-.845-.168C-.462,6.923-.433,6.9-.364,6.68s.147-.243.334-.318c.256-.094.511-.187.776-.262Z" transform="translate(6.575 -3.426)" fill="#fff"/>
      <path id="Path_28974" data-name="Path 28974" d="M-.8,5.613a.349.349,0,0,0,.059.281.1.1,0,0,0,.177-.019c.029-.084.049-.094.108-.028s.295.009.187-.318c-.049-.131-.069-.1-.069.047,0,.234-.079.234-.167.009C-.535,5.5-.575,5.5-.585,5.613c0,.215-.1.243-.157.028C-.761,5.548-.781,5.473-.8,5.613Z" transform="translate(7.238 -3.397)" fill="#fff"/>
      <path id="Path_28975" data-name="Path 28975" d="M1.574,3.934c-.039.075-.069.131.01.187a.364.364,0,0,1,.147.374c-.029.131,0,.234.088.047a.661.661,0,0,0-.069-.58C1.673,3.831,1.623,3.859,1.574,3.934Z" transform="translate(7.772 -3.756)" fill="#fff"/>
      <path id="Path_28976" data-name="Path 28976" d="M2.589,7.358A7.21,7.21,0,0,0,1.5,5.385q-.029-.351-.029-.645c.088.094.147.037.118-.084a4.452,4.452,0,0,0-.256-.636c-.039-.1-.147-.131-.2.019-.069.178-.079.215.01.337a4.887,4.887,0,0,0,.059.561C1.1,4.786.958,4.6.85,4.44c.167.065.265.019.118-.131a6.368,6.368,0,0,0-.482-.43C.359,3.767.3,3.842.319,3.945a1.208,1.208,0,0,1,.01.262c-.01.084.02.14.147.187.256.318.511.645.747.982.029.281.088.589.118.842a6.007,6.007,0,0,1,.1,1.711c-.079.252,0,.365.128-.019A2.9,2.9,0,0,0,1.6,6.591c-.029-.224-.039-.5-.069-.767a10.774,10.774,0,0,1,.953,1.59c.088.215.167.262.108-.056Z" transform="translate(7.494 -3.767)" fill="#fff"/>
      <path id="Path_28977" data-name="Path 28977" d="M1.64,4.808c.039.112.088.168.118.028.02-.122.059-.159.079-.028s.108.112.128-.009.069-.187.088-.056a.4.4,0,0,1-.01.234A.092.092,0,0,1,1.9,5c-.069-.056-.088-.056-.138-.009-.108.094-.147.028-.167-.1-.01-.112.029-.159.049-.084Z" transform="translate(7.784 -3.574)" fill="#fff"/>
      <path id="Path_28978" data-name="Path 28978" d="M.349,7.4a1.567,1.567,0,0,1,.226-.131c.079-.037.138-.028.079.131-.059.187-.029.243.1.2s.187-.084.285-.122.187-.037.049.065a1.248,1.248,0,0,1-.354.215c-.2.047-.295-.028-.256-.178s.069-.2-.049-.15C.29,7.484.3,7.428.349,7.4Z" transform="translate(7.494 -2.986)" fill="#fff"/>
      <path id="Path_28979" data-name="Path 28979" d="M2.584,4.593c.079.065.167.065.118-.075s-.088-.309-.138-.468-.079-.2-.138-.122-.118.112-.167.168a.2.2,0,0,0,0,.243A21.093,21.093,0,0,1,2.515,6.9c.029.524.108.767-.236,1.122a1.542,1.542,0,0,1-.767.514c-.206.056-.285.14.029.122.462-.028.531-.037.9-.458.216-.224.324-.524.3-1.216C2.731,5.771,2.554,5.247,2.584,4.593Z" transform="translate(7.726 -3.752)" fill="#fff"/>
      <path id="Path_28980" data-name="Path 28980" d="M2.969,4.646c.138.065.285.1.177-.056A2.3,2.3,0,0,1,2.89,4c-.069-.187-.088-.178-.2-.019-.167.243-.02.477.02.757.138,1,.275,2.02.314,2.291a1.93,1.93,0,0,1,.01.823c-.029.1.01.131.079.009a1.679,1.679,0,0,0,.059-1.206c-.049-.43-.206-1.571-.236-2.029" transform="translate(8.018 -3.758)" fill="#fff"/>
      <path id="Path_28981" data-name="Path 28981" d="M3.48,5.2c-.02.084-.138.084-.128-.009a.755.755,0,0,0,0-.15.077.077,0,0,1,.138-.056,1.7,1.7,0,0,1,.187.346c.039.075.059.056.059-.047a1.942,1.942,0,0,1-.02-.318.265.265,0,0,1,.1-.15c.069-.047.108-.056.138.028s.079.084.049.15c-.039.094-.128-.094-.187.037a3.423,3.423,0,0,0-.01.449c0,.084-.039.206-.108.065A1.336,1.336,0,0,0,3.48,5.2Z" transform="translate(8.186 -3.55)" fill="#fff"/>
      <path id="Path_28982" data-name="Path 28982" d="M3.432,6.171c0-.065.029-.084.147-.178.1-.075.373-.262.462-.346s.157-.159.177-.056.029.14-.079.2a3.978,3.978,0,0,0-.482.281C3.559,6.143,3.432,6.237,3.432,6.171Z" transform="translate(8.204 -3.375)" fill="#fff"/>
      <path id="Path_28983" data-name="Path 28983" d="M6.3,7.3a1.113,1.113,0,0,0-.236-.514c-.177-.243-.334-.468-.491-.683-.049-.561-.118-1.16-.118-1.478.079.075.138,0,.1-.122s-.118-.449-.177-.589-.108-.1-.187.019-.118.178-.069.271a10.58,10.58,0,0,0,.187,1.543c-.157-.206-.3-.4-.442-.58-.01-.206-.029-.411-.039-.617.088.065.128.047.079-.075s-.147-.4-.2-.524-.079-.122-.147-.028a.344.344,0,0,0-.049.421c.01.131.029.271.039.393-.088-.112-.167-.224-.236-.327.088.047.157-.028.059-.112a3.8,3.8,0,0,1-.354-.327c-.088-.1-.167-.1-.167-.009a2.326,2.326,0,0,1,0,.262c-.02.075-.02.15.1.281.226.262.442.533.649.786A17.447,17.447,0,0,1,4.711,7.2c-.01.224-.088.355-.216.393s-.256-.037-.373-.206c-.216-.3-.295-.243-.462.019a6.176,6.176,0,0,0-.354.627c-.079.168-.216.318-.344.094a1.288,1.288,0,0,1-.128-.655c0-.178-.029-.318-.1-.037-.177.692-.069.842.128.991.246.206.324.224.452.047.256-.337.324-.636.472-.8.118-.131.118-.028.177.037a.668.668,0,0,0,.482.271c.206.037.58-.131.55-.786-.02-.393-.049-.926-.088-1.5.2.262.373.5.511.683a4.1,4.1,0,0,1,.088.982c-.02.309.049.309.118-.009a3.669,3.669,0,0,0-.01-.729c.265.337.423.561.531.72.118.2.187.365.157-.037Z" transform="translate(8.025 -3.766)" fill="#fff"/>
      <path id="Path_28984" data-name="Path 28984" d="M5.167,4.148c-.059.094-.049.112.02.215a1.048,1.048,0,0,1,.128.477c0,.159.059.14.088-.009a1.171,1.171,0,0,0-.069-.617C5.246,4.008,5.217,4.083,5.167,4.148Z" transform="translate(8.591 -3.709)" fill="#fff"/>
      <path id="Path_28985" data-name="Path 28985" d="M6.019,4.5c.108.094.167.065.1-.094s-.157-.327-.226-.477-.1-.122-.187-.009-.108.2-.069.262c.187,1.487.275,2.263.295,2.712a1.366,1.366,0,0,1-.8,1.44c-.216.14-.462.3.059.178s1.061-.449,1-1.8C6.147,5.5,5.98,4.963,6.019,4.5Z" transform="translate(8.535 -3.766)" fill="#fff"/>
      <path id="Path_28986" data-name="Path 28986" d="M3.866,6c-.039.056-.069.1.01.139s.2.153.147.278c-.029.1,0,.174.088.035a.385.385,0,0,0-.069-.43c-.079-.1-.128-.076-.177-.021Z" transform="translate(8.294 -3.281)" fill="#fff"/>
      <path id="Path_28987" data-name="Path 28987" d="M4.326,7.459a.078.078,0,0,1,0,.122c-.046.04-.079.062-.125.1-.022.035-.036.089.031.106.123.033.356-.113.356-.117a.082.082,0,0,0,.027-.1c-.027-.029-.088-.012-.128-.017-.019,0-.031-.038,0-.092a.36.36,0,0,0,.052-.095c.019-.04,0-.067-.067-.089a.574.574,0,0,0-.177,0c-.042.009-.057.027-.064.075,0,.074.05.07.1.1Z" transform="translate(8.375 -2.98)" fill="#fff" fill-rule="evenodd"/>
    </g>
  </g>
</svg>
