<svg width="41" height="43" viewBox="0 0 41 43" fill="none" xmlns="http://www.w3.org/2000/svg">
<path d="M33.3333 5.6333H35.9999C38.2091 5.6333 39.9999 7.42416 39.9999 9.6333V37.1889C39.9999 39.398 38.2091 41.1889 35.9999 41.1889H33.3333" stroke="#76BC21" stroke-width="2" stroke-linecap="round"/>
<rect x="6.33325" y="15.0778" width="5.11111" height="5.11111" rx="1" stroke="#003764" stroke-width="2"/>
<rect x="6.33325" y="26.6333" width="5.11111" height="5.11111" rx="1" stroke="#003764" stroke-width="2"/>
<line x1="16" y1="16.6333" x2="25.7778" y2="16.6333" stroke="#003764" stroke-width="2"/>
<line x1="16" y1="29.0778" x2="25.7778" y2="29.0778" stroke="#003764" stroke-width="2"/>
<path fill-rule="evenodd" clip-rule="evenodd" d="M18.0215 1.72151C16.5411 0.664047 14.5335 0.738854 13.1358 1.90356L12.5267 2.41115H10.8888C9.23193 2.41115 7.88878 3.7543 7.88878 5.41115V6.44823L7.6123 6.63254L8.79635 8.40861C9.35275 9.24321 10.2894 9.74451 11.2925 9.74451H19.8184C20.8215 9.74451 21.7582 9.24321 22.3146 8.40861L23.2759 6.96671H23.6666V5.41115C23.6666 3.7543 22.3234 2.41115 20.6666 2.41115H18.987L18.0215 1.72151ZM18.6782 4.41115C18.473 4.41371 18.2651 4.35333 18.0853 4.22489L16.8591 3.34898C16.1188 2.82025 15.115 2.85765 14.4162 3.44001L13.529 4.17937C13.34 4.33681 13.1102 4.41277 12.8822 4.41115M18.6782 4.41115H20.6666C21.2188 4.41115 21.6666 4.85887 21.6666 5.41115V5.77509L20.6505 7.29921C20.465 7.57741 20.1528 7.74451 19.8184 7.74451H11.2925C10.9581 7.74451 10.6459 7.57741 10.4604 7.29921L9.88878 6.44171V5.41115C9.88878 4.85887 10.3365 4.41115 10.8888 4.41115H12.8822" fill="#003764"/>
<rect x="1" y="6.18896" width="30" height="34.4444" rx="3" stroke="#003764" stroke-width="2"/>
<path d="M10.6667 5.6333L20.4445 5.6333" stroke="white" stroke-width="4" stroke-linecap="round"/>
</svg>
