<svg xmlns="http://www.w3.org/2000/svg" width="58" height="59" viewBox="0 0 58 59">
  <g id="google" transform="translate(-1329 -449)">
    <ellipse id="Ellipse_1663" data-name="Ellipse 1663" cx="29" cy="29.5" rx="29" ry="29.5" transform="translate(1329 449)" fill="#f5f5f5"/>
    <g id="svgexport-6_3_" data-name="svgexport-6 (3)" transform="translate(1340.783 462.01)">
      <g id="Group_12873" data-name="Group 12873" transform="translate(0 0)">
        <path id="Path_28908" data-name="Path 28908" d="M7.972,110.564a8.979,8.979,0,0,1,1.271-4.615v-5.734H3.509a17.015,17.015,0,0,0,0,20.7H9.243v-5.734A8.979,8.979,0,0,1,7.972,110.564Z" transform="translate(0 -93.558)" fill="#fbbd00"/>
        <path id="Path_28909" data-name="Path 28909" d="M199.986,374.226,196,378.212l3.986,3.986a16.877,16.877,0,0,0,10.349-3.509v-5.727h-5.727A9.034,9.034,0,0,1,199.986,374.226Z" transform="translate(-182.98 -348.185)" fill="#0f9d58"/>
        <path id="Path_28910" data-name="Path 28910" d="M58.557,325.477l-5.734,5.734a17.291,17.291,0,0,0,1.472,1.676,16.9,16.9,0,0,0,12.025,4.981V329.9A9.038,9.038,0,0,1,58.557,325.477Z" transform="translate(-49.314 -303.855)" fill="#31aa52"/>
        <path id="Path_28911" data-name="Path 28911" d="M273.006,201.222a17.161,17.161,0,0,0-.278-3.081l-.15-.817H256V205.3h8.068a8.993,8.993,0,0,1-3.447,3.7l5.727,5.727a17.27,17.27,0,0,0,1.676-1.472A16.9,16.9,0,0,0,273.006,201.222Z" transform="translate(-238.994 -184.216)" fill="#3c79e6"/>
        <path id="Path_28912" data-name="Path 28912" d="M206.374,10.618l.7.7,5.637-5.637-.7-.7A16.9,16.9,0,0,0,199.986,0L196,3.986l3.986,3.986A8.976,8.976,0,0,1,206.374,10.618Z" transform="translate(-182.98 0)" fill="#cf2d48"/>
        <path id="Path_28913" data-name="Path 28913" d="M66.319,7.972V0A16.9,16.9,0,0,0,54.294,4.981a17.26,17.26,0,0,0-1.472,1.676l5.734,5.734a9.039,9.039,0,0,1,7.764-4.419Z" transform="translate(-49.313 0)" fill="#eb4132"/>
      </g>
    </g>
  </g>
</svg>
