<svg width="27" height="28" viewBox="0 0 27 28" fill="none" xmlns="http://www.w3.org/2000/svg">
<g clip-path="url(#clip0_2415_19429)">
<path d="M13.5 0.5C10.83 0.5 8.21987 1.29176 5.99981 2.77516C3.77974 4.25856 2.04942 6.36697 1.02763 8.83377C0.00584936 11.3006 -0.261496 14.015 0.259405 16.6337C0.780305 19.2525 2.06606 21.6579 3.95406 23.5459C5.84207 25.434 8.24754 26.7197 10.8663 27.2406C13.485 27.7615 16.1994 27.4942 18.6662 26.4724C21.133 25.4506 23.2414 23.7203 24.7248 21.5002C26.2082 19.2801 27 16.67 27 14C26.9961 10.4208 25.5726 6.98924 23.0417 4.45833C20.5108 1.92743 17.0792 0.503871 13.5 0.5V0.5ZM23.2279 8.375H19.6043C18.7931 6.49511 17.725 4.73685 16.4306 3.1505C19.2954 3.93004 21.7376 5.80715 23.2279 8.375ZM18.5625 14C18.5533 15.1454 18.3728 16.283 18.027 17.375H8.97301C8.62724 16.283 8.44674 15.1454 8.43751 14C8.44674 12.8546 8.62724 11.717 8.97301 10.625H18.027C18.3728 11.717 18.5533 12.8546 18.5625 14ZM9.87526 19.625H17.1248C16.1699 21.5102 14.9492 23.2484 13.5 24.7865C12.0503 23.2489 10.8295 21.5105 9.87526 19.625ZM9.87526 8.375C10.8301 6.48981 12.0508 4.75155 13.5 3.2135C14.9497 4.75112 16.1705 6.48945 17.1248 8.375H9.87526ZM10.575 3.1505C9.27862 4.73651 8.20866 6.49478 7.39576 8.375H3.77213C5.26372 5.80599 7.70812 3.92872 10.575 3.1505ZM2.76863 10.625H6.63751C6.34586 11.7265 6.19466 12.8605 6.18751 14C6.19466 15.1395 6.34586 16.2735 6.63751 17.375H2.76863C2.07714 15.1781 2.07714 12.8219 2.76863 10.625ZM3.77213 19.625H7.39576C8.20866 21.5052 9.27862 23.2635 10.575 24.8495C7.70812 24.0713 5.26372 22.194 3.77213 19.625ZM16.4306 24.8495C17.725 23.2632 18.7931 21.5049 19.6043 19.625H23.2279C21.7376 22.1928 19.2954 24.07 16.4306 24.8495ZM24.2314 17.375H20.3625C20.6542 16.2735 20.8054 15.1395 20.8125 14C20.8054 12.8605 20.6542 11.7265 20.3625 10.625H24.2291C24.9206 12.8219 24.9206 15.1781 24.2291 17.375H24.2314Z" fill="#003764"/>
</g>
<defs>
<clipPath id="clip0_2415_19429">
<rect width="27" height="27" fill="white" transform="translate(0 0.5)"/>
</clipPath>
</defs>
</svg>
