<svg width="41" height="43" viewBox="0 0 41 43" fill="none" xmlns="http://www.w3.org/2000/svg">
<path d="M19.5917 7.7551C19.5917 11.4858 16.5674 14.5102 12.8366 14.5102C9.10591 14.5102 6.08154 11.4858 6.08154 7.7551C6.08154 4.02436 9.10591 1 12.8366 1C16.5674 1 19.5917 4.02436 19.5917 7.7551Z" stroke="#003764" stroke-width="2"/>
<path d="M11.2041 32.6531H4C2.34315 32.6531 1 31.3099 1 29.6531V22.3379C1 22.1403 1.01801 21.9436 1.06265 21.7512C1.71202 18.9524 4.11819 13.8776 9.16327 13.8776M16.5102 13.8776C18.6871 14.1497 23.0408 15.8367 23.0408 20.4082" stroke="#003764" stroke-width="2" stroke-linecap="round"/>
<rect x="14.2449" y="24.6735" width="19.2245" height="12.6939" rx="3" stroke="#76BC21" stroke-width="2"/>
<path d="M27.1226 37.551H30.6532C32.31 37.551 33.6532 36.2079 33.6532 34.551V27.7551" stroke="white" stroke-width="2" stroke-linecap="square"/>
<g clip-path="url(#clip0_360_477)">
<path d="M33.6872 29.0861C34.9138 29.9798 35.711 31.4274 35.711 33.0612C35.711 35.7757 33.5105 37.9762 30.7961 37.9762H30.507M27.9049 37.0363C26.6783 36.1426 25.8811 34.695 25.8811 33.0612C25.8811 30.3468 28.0816 28.1462 30.7961 28.1462H31.0852M31.3743 39.0748L30.2178 37.9184L31.3743 36.7619M30.2178 29.3605L31.3743 28.2041L30.2178 27.0476" stroke="#76BC21" stroke-width="2" stroke-linecap="round" stroke-linejoin="round"/>
</g>
<defs>
<clipPath id="clip0_360_477">
<rect width="13.8776" height="13.8776" fill="white" transform="translate(23.8572 26.1224)"/>
</clipPath>
</defs>
</svg>
