<svg width="22" height="19" viewBox="0 0 22 19" fill="none" xmlns="http://www.w3.org/2000/svg">
<path d="M20.5 0H1.5C0.671573 0 0 0.671573 0 1.5C0 2.32843 0.671573 3 1.5 3H20.5C21.3284 3 22 2.32843 22 1.5C22 0.671573 21.3284 0 20.5 0Z" fill="white"/>
<path opacity="0.81" d="M11.5 8H1.5C0.671573 8 0 8.67157 0 9.5C0 10.3284 0.671573 11 1.5 11H11.5C12.3284 11 13 10.3284 13 9.5C13 8.67157 12.3284 8 11.5 8Z" fill="white"/>
<path opacity="0.37" d="M20.5 8H16.5C15.6716 8 15 8.67157 15 9.5C15 10.3284 15.6716 11 16.5 11H20.5C21.3284 11 22 10.3284 22 9.5C22 8.67157 21.3284 8 20.5 8Z" fill="white"/>
<path d="M20.5 16H1.5C0.671573 16 0 16.6716 0 17.5C0 18.3284 0.671573 19 1.5 19H20.5C21.3284 19 22 18.3284 22 17.5C22 16.6716 21.3284 16 20.5 16Z" fill="white"/>
</svg>
