<svg width="32" height="32" viewBox="0 0 32 32" fill="none" xmlns="http://www.w3.org/2000/svg">
<g clip-path="url(#clip0_3667_7052)">
<path d="M26.1661 23.2247L23.2411 12.6823C22.6165 10.4272 21.2555 8.44574 19.3748 7.05338C17.4941 5.66102 15.2016 4.93774 12.8624 4.99867C10.5231 5.0596 8.27146 5.90123 6.46575 7.38961C4.66005 8.878 3.40407 10.9276 2.89772 13.2122L0.635347 23.3935C0.525876 23.8867 0.528546 24.3982 0.64316 24.8903C0.757774 25.3824 0.981407 25.8425 1.29756 26.2366C1.61371 26.6307 2.01432 26.9488 2.46982 27.1674C2.92532 27.386 3.4241 27.4996 3.92935 27.4997H7.98722C8.24543 28.7713 8.93529 29.9145 9.93993 30.7356C10.9446 31.5568 12.2022 32.0053 13.4997 32.0053C14.7972 32.0053 16.0549 31.5568 17.0595 30.7356C18.0641 29.9145 18.754 28.7713 19.0122 27.4997H22.916C23.4358 27.4995 23.9486 27.3791 24.4143 27.1481C24.8801 26.9171 25.2861 26.5816 25.6008 26.1678C25.9155 25.754 26.1304 25.2731 26.2286 24.7626C26.3269 24.2521 26.3047 23.7258 26.1661 23.2247ZM13.4997 29.7497C12.8042 29.7468 12.1265 29.5291 11.5594 29.1264C10.9924 28.7236 10.5636 28.1555 10.3317 27.4997H16.6677C16.4359 28.1555 16.0071 28.7236 15.44 29.1264C14.8729 29.5291 14.1953 29.7468 13.4997 29.7497ZM23.8103 24.8053C23.7054 24.9445 23.5693 25.0571 23.4131 25.1343C23.2568 25.2115 23.0846 25.251 22.9103 25.2497H3.92935C3.76089 25.2497 3.59459 25.2118 3.44272 25.1389C3.29086 25.066 3.1573 24.96 3.05191 24.8285C2.94652 24.6971 2.87198 24.5437 2.83381 24.3797C2.79563 24.2156 2.79479 24.045 2.83135 23.8806L5.09372 13.6993C5.49237 11.9063 6.47894 10.298 7.89661 9.13009C9.31428 7.96216 11.0817 7.30165 12.9178 7.25355C14.754 7.20544 16.5536 7.77251 18.0304 8.86461C19.5073 9.9567 20.5767 11.5111 21.0687 13.2808L23.9937 23.8232C24.0415 23.9899 24.0498 24.1654 24.0179 24.3359C23.9861 24.5064 23.915 24.6671 23.8103 24.8053Z" fill="#003764"/>
</g>
<circle cx="23.5" cy="8.5" r="8.5" fill="#FF3300"/>
<path d="M22.4946 7.68701H23.4087C23.7642 7.68701 24.0583 7.62565 24.291 7.50293C24.528 7.38021 24.7036 7.21094 24.8179 6.99512C24.9321 6.7793 24.9893 6.53174 24.9893 6.25244C24.9893 5.96045 24.9364 5.71077 24.8306 5.50342C24.729 5.29183 24.5724 5.12891 24.3608 5.01465C24.1535 4.90039 23.889 4.84326 23.5674 4.84326C23.2965 4.84326 23.0511 4.89827 22.8311 5.0083C22.6152 5.1141 22.4438 5.26644 22.3169 5.46533C22.1899 5.65999 22.1265 5.89274 22.1265 6.16357H20.5903C20.5903 5.67269 20.7194 5.23682 20.9775 4.85596C21.2357 4.4751 21.5869 4.17676 22.0312 3.96094C22.4798 3.74089 22.9834 3.63086 23.542 3.63086C24.1387 3.63086 24.6592 3.73031 25.1035 3.9292C25.5521 4.12386 25.9012 4.41585 26.1509 4.80518C26.4006 5.1945 26.5254 5.67692 26.5254 6.25244C26.5254 6.51481 26.464 6.78141 26.3413 7.05225C26.2186 7.32308 26.0366 7.57064 25.7954 7.79492C25.5542 8.01497 25.2537 8.19482 24.894 8.33447C24.5343 8.46989 24.1175 8.5376 23.6436 8.5376H22.4946V7.68701ZM22.4946 8.88037V8.04248H23.6436C24.1852 8.04248 24.6465 8.10596 25.0273 8.23291C25.4124 8.35986 25.7256 8.53548 25.9668 8.75977C26.208 8.97982 26.3836 9.23161 26.4937 9.51514C26.6079 9.79867 26.665 10.0991 26.665 10.4165C26.665 10.8481 26.5868 11.2332 26.4302 11.5718C26.2778 11.9061 26.0599 12.1896 25.7764 12.4224C25.4928 12.6551 25.1606 12.8307 24.7798 12.9492C24.4032 13.0677 23.9927 13.127 23.5483 13.127C23.1506 13.127 22.7697 13.0719 22.4058 12.9619C22.0418 12.8519 21.716 12.689 21.4282 12.4731C21.1405 12.2531 20.9119 11.9801 20.7427 11.6543C20.5776 11.3242 20.4951 10.9434 20.4951 10.5117H22.0249C22.0249 10.7868 22.0884 11.0301 22.2153 11.2417C22.3465 11.4491 22.5285 11.612 22.7612 11.7305C22.9982 11.849 23.269 11.9082 23.5737 11.9082C23.8953 11.9082 24.1725 11.8511 24.4053 11.7368C24.638 11.6226 24.8158 11.4533 24.9385 11.229C25.0654 11.0047 25.1289 10.7339 25.1289 10.4165C25.1289 10.0568 25.0591 9.76481 24.9194 9.54053C24.7798 9.31624 24.5809 9.1512 24.3228 9.04541C24.0646 8.93538 23.7599 8.88037 23.4087 8.88037H22.4946Z" fill="white"/>
<defs>
<clipPath id="clip0_3667_7052">
<rect width="27" height="27" fill="white" transform="translate(0 5)"/>
</clipPath>
</defs>
</svg>
