<svg width="27" height="23" viewBox="0 0 27 23" fill="none" xmlns="http://www.w3.org/2000/svg">
<path d="M9.87484 17.5418L13.4998 21.1668M13.4998 21.1668L17.1248 17.5418M13.4998 21.1668V12.7085M25.5832 7.87516H1.4165M5.64567 18.7502H5.28317C3.92971 18.7502 3.25298 18.7502 2.73603 18.4868C2.2813 18.2551 1.9116 17.8854 1.6799 17.4306C1.4165 16.9137 1.4165 16.237 1.4165 14.8835V5.70016C1.4165 4.3467 1.4165 3.66997 1.67991 3.15302C1.9116 2.69829 2.2813 2.32859 2.73603 2.0969C3.25298 1.8335 3.92971 1.8335 5.28317 1.8335H21.7165C23.07 1.8335 23.7467 1.8335 24.2636 2.0969C24.7184 2.32859 25.0881 2.6983 25.3198 3.15302C25.5832 3.66997 25.5832 4.3467 25.5832 5.70016V14.8835C25.5832 16.237 25.5832 16.9137 25.3198 17.4306C25.0881 17.8854 24.7184 18.2551 24.2636 18.4868C23.7467 18.7502 23.07 18.7502 21.7165 18.7502H21.354" stroke="#FF3300" stroke-width="2" stroke-linecap="round" stroke-linejoin="round"/>
</svg>
