<svg width="16" height="10" viewBox="0 0 16 10" fill="none" xmlns="http://www.w3.org/2000/svg">
<path d="M1.4541 0.5C1.30577 0.5 1.16076 0.543987 1.03742 0.626398C0.914088 0.708809 0.817958 0.825943 0.761192 0.962988C0.704427 1.10003 0.689574 1.25083 0.718513 1.39632C0.747452 1.5418 0.818882 1.67544 0.923772 1.78033C1.02866 1.88522 1.1623 1.95665 1.30778 1.98559C1.45327 2.01453 1.60407 1.99968 1.74111 1.94291C1.87816 1.88614 1.99529 1.79001 2.0777 1.66668C2.16012 1.54334 2.2041 1.39834 2.2041 1.25C2.2041 1.05109 2.12508 0.860322 1.98443 0.71967C1.84378 0.579018 1.65301 0.5 1.4541 0.5ZM4.4541 2H14.9541C15.153 2 15.3438 1.92098 15.4844 1.78033C15.6251 1.63968 15.7041 1.44891 15.7041 1.25C15.7041 1.05109 15.6251 0.860322 15.4844 0.71967C15.3438 0.579018 15.153 0.5 14.9541 0.5H4.4541C4.25519 0.5 4.06442 0.579018 3.92377 0.71967C3.78312 0.860322 3.7041 1.05109 3.7041 1.25C3.7041 1.44891 3.78312 1.63968 3.92377 1.78033C4.06442 1.92098 4.25519 2 4.4541 2ZM4.4541 4.25C4.30577 4.25 4.16076 4.29399 4.03742 4.3764C3.91409 4.45881 3.81796 4.57594 3.76119 4.71299C3.70443 4.85003 3.68957 5.00083 3.71851 5.14632C3.74745 5.2918 3.81888 5.42544 3.92377 5.53033C4.02866 5.63522 4.1623 5.70665 4.30778 5.73559C4.45327 5.76453 4.60407 5.74968 4.74111 5.69291C4.87816 5.63614 4.99529 5.54001 5.0777 5.41668C5.16012 5.29334 5.2041 5.14834 5.2041 5C5.2041 4.80109 5.12508 4.61032 4.98443 4.46967C4.84378 4.32902 4.65301 4.25 4.4541 4.25ZM7.4541 8C7.30577 8 7.16076 8.04399 7.03742 8.1264C6.91409 8.20881 6.81796 8.32594 6.76119 8.46299C6.70443 8.60003 6.68957 8.75083 6.71851 8.89632C6.74745 9.0418 6.81888 9.17544 6.92377 9.28033C7.02866 9.38522 7.1623 9.45665 7.30778 9.48559C7.45327 9.51453 7.60407 9.49968 7.74112 9.44291C7.87816 9.38614 7.99529 9.29002 8.0777 9.16668C8.16012 9.04334 8.2041 8.89834 8.2041 8.75C8.2041 8.55109 8.12508 8.36032 7.98443 8.21967C7.84378 8.07902 7.65301 8 7.4541 8ZM14.9541 4.25H7.4541C7.25519 4.25 7.06442 4.32902 6.92377 4.46967C6.78312 4.61032 6.7041 4.80109 6.7041 5C6.7041 5.19891 6.78312 5.38968 6.92377 5.53033C7.06442 5.67098 7.25519 5.75 7.4541 5.75H14.9541C15.153 5.75 15.3438 5.67098 15.4844 5.53033C15.6251 5.38968 15.7041 5.19891 15.7041 5C15.7041 4.80109 15.6251 4.61032 15.4844 4.46967C15.3438 4.32902 15.153 4.25 14.9541 4.25ZM14.9541 8H10.4541C10.2552 8 10.0644 8.07902 9.92377 8.21967C9.78312 8.36032 9.7041 8.55109 9.7041 8.75C9.7041 8.94891 9.78312 9.13968 9.92377 9.28033C10.0644 9.42098 10.2552 9.5 10.4541 9.5H14.9541C15.153 9.5 15.3438 9.42098 15.4844 9.28033C15.6251 9.13968 15.7041 8.94891 15.7041 8.75C15.7041 8.55109 15.6251 8.36032 15.4844 8.21967C15.3438 8.07902 15.153 8 14.9541 8Z" fill="#1D4861"/>
</svg>
