<svg width="12" height="14" viewBox="0 0 12 14" fill="none" xmlns="http://www.w3.org/2000/svg">
<path fill-rule="evenodd" clip-rule="evenodd" d="M2.75098 3.625C2.75098 1.86459 4.17807 0.4375 5.93848 0.4375C7.69888 0.4375 9.12598 1.86459 9.12598 3.625C9.12598 5.38541 7.69888 6.8125 5.93848 6.8125C4.17807 6.8125 2.75098 5.38541 2.75098 3.625ZM5.93848 1.5625C4.79939 1.5625 3.87598 2.48591 3.87598 3.625C3.87598 4.76409 4.79939 5.6875 5.93848 5.6875C7.07756 5.6875 8.00098 4.76409 8.00098 3.625C8.00098 2.48591 7.07756 1.5625 5.93848 1.5625Z" fill="#1D4861"/>
<path fill-rule="evenodd" clip-rule="evenodd" d="M2.93848 9.0625C2.0065 9.0625 1.25098 9.81802 1.25098 10.75V11.6412C1.25098 11.6548 1.26081 11.6664 1.2742 11.6685C4.36327 12.1729 7.51368 12.1729 10.6027 11.6685C10.6161 11.6664 10.626 11.6548 10.626 11.6412V10.75C10.626 9.81802 9.87046 9.0625 8.93848 9.0625H8.68283C8.66306 9.0625 8.64342 9.06563 8.62463 9.07176L7.97549 9.28372C6.65187 9.71593 5.22508 9.71593 3.90146 9.28372L3.25233 9.07176C3.23354 9.06563 3.2139 9.0625 3.19413 9.0625H2.93848ZM0.125977 10.75C0.125977 9.1967 1.38518 7.9375 2.93848 7.9375H3.19413C3.3325 7.9375 3.47 7.95938 3.60153 8.00233L4.25067 8.21429C5.34738 8.5724 6.52957 8.5724 7.62629 8.21429L8.27542 8.00233C8.40696 7.95938 8.54446 7.9375 8.68283 7.9375H8.93848C10.4918 7.9375 11.751 9.1967 11.751 10.75V11.6412C11.751 12.2061 11.3416 12.6878 10.784 12.7788C7.5749 13.3028 4.30205 13.3028 1.09293 12.7788C0.535389 12.6878 0.125977 12.2061 0.125977 11.6412V10.75Z" fill="#1D4861"/>
</svg>
