<svg width="21" height="20" viewBox="0 0 21 20" fill="none" xmlns="http://www.w3.org/2000/svg">
<path d="M14.6248 19H5.35618C4.75036 19 4.44745 19 4.30719 18.8802C4.18548 18.7763 4.1209 18.6203 4.13345 18.4608C4.14793 18.2769 4.36211 18.0627 4.79049 17.6343L13.2934 9.13137C13.6894 8.73536 13.8875 8.53735 14.1158 8.46316C14.3166 8.3979 14.533 8.3979 14.7338 8.46316C14.9622 8.53735 15.1602 8.73535 15.5562 9.13137L19.4248 13V14.2M14.6248 19C16.305 19 17.145 19 17.7868 18.673C18.3513 18.3854 18.8102 17.9265 19.0978 17.362C19.4248 16.7202 19.4248 15.8802 19.4248 14.2M14.6248 19H6.2248C4.54465 19 3.70457 19 3.06283 18.673C2.49835 18.3854 2.03941 17.9265 1.75179 17.362C1.4248 16.7202 1.4248 15.8802 1.4248 14.2V5.8C1.4248 4.11984 1.4248 3.27976 1.75179 2.63803C2.03941 2.07354 2.49835 1.6146 3.06283 1.32698C3.70457 1 4.54465 1 6.2248 1H14.6248C16.305 1 17.145 1 17.7868 1.32698C18.3513 1.6146 18.8102 2.07354 19.0978 2.63803C19.4248 3.27976 19.4248 4.11984 19.4248 5.8V14.2M8.9248 6.5C8.9248 7.60457 8.02937 8.5 6.9248 8.5C5.82024 8.5 4.9248 7.60457 4.9248 6.5C4.9248 5.39543 5.82024 4.5 6.9248 4.5C8.02937 4.5 8.9248 5.39543 8.9248 6.5Z" stroke="#D9D9D9" stroke-width="2" stroke-linecap="round" stroke-linejoin="round"/>
</svg>
