<svg width="22" height="25" viewBox="0 0 22 25" fill="none" xmlns="http://www.w3.org/2000/svg">
<path d="M13.19 19.2668C13.6724 21.0673 12.6039 22.9179 10.8035 23.4003C9.00303 23.8828 7.1524 22.8143 6.66997 21.0138M9.25307 5.45864C9.5953 4.84292 9.70804 4.09874 9.51131 3.36457C9.10929 1.86419 7.56709 0.973805 6.06672 1.37583C4.56635 1.77785 3.67596 3.32005 4.07798 4.82042C4.2747 5.5546 4.74443 6.14271 5.34867 6.50482M15.2655 9.62613C14.8639 8.12748 13.7919 6.87427 12.2852 6.1422C10.7785 5.41013 8.96062 5.25915 7.23141 5.7225C5.50219 6.18584 4.00333 7.22554 3.06454 8.61287C2.12575 10.0002 1.82394 11.6215 2.2255 13.1202C2.88989 15.5997 2.76088 17.5779 2.34131 19.0811C1.86311 20.7943 1.62401 21.6509 1.68861 21.8229C1.76251 22.0197 1.81597 22.0737 2.01198 22.1497C2.18331 22.216 2.90305 22.0232 4.34253 21.6375L17.6907 18.0608C19.1302 17.6751 19.85 17.4823 19.9651 17.3391C20.0969 17.1754 20.1162 17.1018 20.0818 16.8945C20.0518 16.7132 19.4164 16.0909 18.1457 14.8463C17.0307 13.7543 15.9299 12.1057 15.2655 9.62613Z" stroke="#003764" stroke-width="2" stroke-linecap="round" stroke-linejoin="round"/>
</svg>
