<svg width="23" height="29" viewBox="0 0 23 29" fill="none" xmlns="http://www.w3.org/2000/svg">
<path d="M16.9687 15.9583C16.9687 15.3543 16.479 14.8646 15.875 14.8646H7.12496C6.5209 14.8646 6.03121 15.3543 6.03121 15.9583C6.03121 16.5624 6.5209 17.0521 7.12496 17.0521H15.875C16.479 17.0521 16.9687 16.5624 16.9687 15.9583Z" fill="#76BC21"/>
<path d="M16.9687 21.7917C16.9687 21.1876 16.479 20.6979 15.875 20.6979H7.12496C6.5209 20.6979 6.03121 21.1876 6.03121 21.7917C6.03121 22.3957 6.5209 22.8854 7.12496 22.8854H15.875C16.479 22.8854 16.9687 22.3957 16.9687 21.7917Z" fill="#76BC21"/>
<path fill-rule="evenodd" clip-rule="evenodd" d="M4.20829 0.28125C1.9934 0.28125 0.197876 2.07677 0.197876 4.29167V24.7083C0.197876 26.9232 1.9934 28.7188 4.20829 28.7188H18.7916C21.0065 28.7188 22.802 26.9232 22.802 24.7083V8.6195C22.802 8.06421 22.6209 7.52407 22.2862 7.08102L17.9144 1.29485C17.4321 0.656476 16.6783 0.28125 15.8782 0.28125H4.20829ZM2.38538 4.29167C2.38538 3.2849 3.20152 2.46875 4.20829 2.46875H14.7812V8.88111C14.7812 9.48517 15.2709 9.97486 15.875 9.97486H20.6145V24.7083C20.6145 25.7151 19.7984 26.5312 18.7916 26.5312H4.20829C3.20152 26.5312 2.38538 25.7151 2.38538 24.7083V4.29167Z" fill="#76BC21"/>
</svg>
