<svg width="22" height="22" viewBox="0 0 22 22" fill="none" xmlns="http://www.w3.org/2000/svg">
<path fill-rule="evenodd" clip-rule="evenodd" d="M13.3819 14.6635C10.1795 17.2284 5.4918 17.0265 2.52319 14.0579C-0.662026 10.8727 -0.662026 5.7084 2.52319 2.52319C5.7084 -0.662026 10.8727 -0.662026 14.0579 2.52319C17.0265 5.4918 17.2284 10.1794 14.6635 13.3818L20.8932 19.6116C21.2471 19.9655 21.2471 20.5393 20.8932 20.8932C20.5393 21.2471 19.9655 21.2471 19.6116 20.8932L13.3819 14.6635ZM3.80482 12.7762C1.32743 10.2988 1.32743 6.28221 3.80482 3.80482C6.28221 1.32743 10.2988 1.32743 12.7762 3.80482C15.2518 6.28039 15.2536 10.293 12.7817 12.7708C12.7799 12.7726 12.778 12.7744 12.7762 12.7762C12.7744 12.778 12.7726 12.7798 12.7708 12.7817C10.293 15.2536 6.28039 15.2518 3.80482 12.7762Z" fill="#003764"/>
</svg>
