<svg width="42" height="42" viewBox="0 0 42 42" fill="none" xmlns="http://www.w3.org/2000/svg">
<path d="M24.2787 15.2006C25.9577 15.2006 27.3189 13.8395 27.3189 12.1605C27.3189 10.4814 25.9577 9.12034 24.2787 9.12034C22.5997 9.12034 21.2386 10.4814 21.2386 12.1605C21.2386 13.8395 22.5997 15.2006 24.2787 15.2006Z" stroke="#76BC21" stroke-width="2" stroke-linecap="round" stroke-linejoin="round"/>
<path d="M31.096 14.9242C30.9733 15.2021 30.9368 15.5103 30.9909 15.8091C31.0451 16.108 31.1876 16.3837 31.4 16.6009L31.4553 16.6561C31.6266 16.8273 31.7625 17.0305 31.8552 17.2541C31.9479 17.4778 31.9956 17.7176 31.9956 17.9597C31.9956 18.2018 31.9479 18.4416 31.8552 18.6653C31.7625 18.8889 31.6266 19.0922 31.4553 19.2633C31.2841 19.4346 31.0809 19.5705 30.8573 19.6632C30.6336 19.7559 30.3938 19.8036 30.1517 19.8036C29.9096 19.8036 29.6698 19.7559 29.4461 19.6632C29.2225 19.5705 29.0192 19.4346 28.8481 19.2633L28.7929 19.208C28.5757 18.9956 28.3 18.8531 28.0011 18.799C27.7023 18.7448 27.394 18.7813 27.1162 18.904C26.8437 19.0208 26.6113 19.2147 26.4476 19.4618C26.284 19.709 26.1961 19.9986 26.1949 20.2951V20.4517C26.1949 20.9403 26.0008 21.409 25.6553 21.7545C25.3097 22.1001 24.8411 22.2942 24.3524 22.2942C23.8638 22.2942 23.3951 22.1001 23.0496 21.7545C22.7041 21.409 22.5099 20.9403 22.5099 20.4517V20.3688C22.5028 20.0638 22.4041 19.7681 22.2267 19.52C22.0492 19.2719 21.8013 19.083 21.515 18.9777C21.2371 18.855 20.9289 18.8185 20.6301 18.8727C20.3312 18.9268 20.0554 19.0693 19.8383 19.2817L19.7831 19.337C19.6119 19.5083 19.4087 19.6442 19.1851 19.7369C18.9614 19.8296 18.7216 19.8773 18.4795 19.8773C18.2374 19.8773 17.9976 19.8296 17.7739 19.7369C17.5502 19.6442 17.347 19.5083 17.1759 19.337C17.0046 19.1659 16.8687 18.9626 16.776 18.739C16.6833 18.5153 16.6355 18.2755 16.6355 18.0334C16.6355 17.7913 16.6833 17.5515 16.776 17.3278C16.8687 17.1042 17.0046 16.901 17.1759 16.7298L17.2312 16.6746C17.4436 16.4574 17.586 16.1817 17.6402 15.8828C17.6944 15.584 17.6578 15.2758 17.5352 14.9979C17.4184 14.7254 17.2245 14.493 16.9774 14.3294C16.7302 14.1657 16.4406 14.0778 16.1441 14.0766H15.9875C15.4989 14.0766 15.0302 13.8825 14.6847 13.537C14.3391 13.1915 14.145 12.7228 14.145 12.2342C14.145 11.7455 14.3391 11.2768 14.6847 10.9313C15.0302 10.5858 15.4989 10.3917 15.9875 10.3917H16.0704C16.3754 10.3845 16.6711 10.2858 16.9192 10.1084C17.1673 9.93095 17.3562 9.68298 17.4615 9.39671C17.5841 9.11885 17.6207 8.81062 17.5665 8.51177C17.5123 8.21292 17.3699 7.93716 17.1575 7.72004L17.1022 7.66477C16.9309 7.49365 16.795 7.29044 16.7023 7.06677C16.6096 6.84309 16.5618 6.60333 16.5618 6.3612C16.5618 6.11907 16.6096 5.87931 16.7023 5.65564C16.795 5.43196 16.9309 5.22875 17.1022 5.05764C17.2733 4.88633 17.4765 4.75043 17.7002 4.65771C17.9239 4.56498 18.1637 4.51726 18.4058 4.51726C18.6479 4.51726 18.8877 4.56498 19.1114 4.65771C19.335 4.75043 19.5382 4.88633 19.7094 5.05764L19.7646 5.11291C19.9817 5.32529 20.2575 5.46776 20.5564 5.52195C20.8552 5.57614 21.1634 5.53956 21.4413 5.41692H21.515C21.7875 5.30014 22.0199 5.10624 22.1835 4.85908C22.3472 4.61191 22.4351 4.32229 22.4362 4.02584V3.86923C22.4362 3.38057 22.6304 2.91192 22.9759 2.56639C23.3214 2.22085 23.7901 2.02673 24.2787 2.02673C24.7674 2.02673 25.236 2.22085 25.5816 2.56639C25.9271 2.91192 26.1212 3.38057 26.1212 3.86923V3.95214C26.1224 4.24859 26.2103 4.53822 26.3739 4.78538C26.5376 5.03254 26.77 5.22644 27.0425 5.34322C27.3203 5.46586 27.6286 5.50244 27.9274 5.44825C28.2263 5.39406 28.502 5.25159 28.7192 5.03921L28.7744 4.98394C28.9455 4.81263 29.1488 4.67673 29.3724 4.58401C29.5961 4.49128 29.8359 4.44356 30.078 4.44356C30.3201 4.44356 30.5599 4.49128 30.7836 4.58401C31.0072 4.67673 31.2104 4.81263 31.3816 4.98394C31.5529 5.15506 31.6888 5.35826 31.7815 5.58194C31.8742 5.80561 31.9219 6.04537 31.9219 6.2875C31.9219 6.52963 31.8742 6.76939 31.7815 6.99307C31.6888 7.21674 31.5529 7.41995 31.3816 7.59107L31.3263 7.64634C31.1139 7.86346 30.9714 8.13922 30.9172 8.43807C30.8631 8.73692 30.8996 9.04515 31.0223 9.32301V9.39671C31.139 9.66919 31.333 9.90157 31.5801 10.0653C31.8273 10.2289 32.1169 10.3168 32.4134 10.318H32.57C33.0586 10.318 33.5273 10.5121 33.8728 10.8576C34.2183 11.2031 34.4125 11.6718 34.4125 12.1605C34.4125 12.6491 34.2183 13.1178 33.8728 13.4633C33.5273 13.8088 33.0586 14.0029 32.57 14.0029H32.4871C32.1906 14.0041 31.901 14.092 31.6538 14.2557C31.4067 14.4193 31.2127 14.6517 31.096 14.9242Z" stroke="#76BC21" stroke-width="2" stroke-linecap="round" stroke-linejoin="round"/>
<path d="M1.69488 40.3032L8.48569 38.1425C8.97125 37.988 9.263 37.4931 9.16307 36.9935L7.10935 26.7249C6.99845 26.1704 6.45019 25.8181 5.89973 25.9476L1 27.1005" stroke="#003764" stroke-width="2" stroke-linecap="round"/>
<path d="M8.99121 34.7442L23.5999 36.4429C23.815 36.4679 24.0323 36.4225 24.2193 36.3134L40.4628 26.838C40.5592 26.7818 40.6478 26.7118 40.7094 26.6187C41.2994 25.7261 41.2604 23.684 37.9703 23.6273C37.8782 23.6257 37.7839 23.6388 37.6953 23.6639L19.4145 28.8377" stroke="#003764" stroke-width="2" stroke-linecap="round"/>
<path d="M7.60132 27.7954L13.666 24.7631C13.7908 24.7006 13.9273 24.665 14.0667 24.6586L28.7953 23.9735C29.0269 23.9735 29.4902 24.8074 29.4902 25.3633" stroke="#003764" stroke-width="2" stroke-linecap="round"/>
</svg>
