<svg width="360" height="288" viewBox="0 0 360 288" fill="none" xmlns="http://www.w3.org/2000/svg">
<rect x="0.5" y="0.5" width="359" height="287" rx="1.5" fill="white"/>
<path d="M65.3 39.664H66.32C66.256 38.96 66.016 38.424 65.6 38.056C65.184 37.68 64.624 37.492 63.92 37.492C63.312 37.492 62.808 37.62 62.408 37.876C62.008 38.132 61.688 38.472 61.448 38.896C61.208 39.32 61.036 39.808 60.932 40.36C60.836 40.904 60.788 41.468 60.788 42.052C60.788 42.5 60.82 42.964 60.884 43.444C60.956 43.924 61.096 44.364 61.304 44.764C61.512 45.164 61.808 45.492 62.192 45.748C62.576 46.004 63.084 46.132 63.716 46.132C64.252 46.132 64.7 46.044 65.06 45.868C65.428 45.684 65.72 45.456 65.936 45.184C66.16 44.904 66.32 44.596 66.416 44.26C66.512 43.924 66.56 43.6 66.56 43.288C66.56 42.896 66.5 42.532 66.38 42.196C66.26 41.86 66.088 41.568 65.864 41.32C65.648 41.072 65.376 40.88 65.048 40.744C64.728 40.6 64.364 40.528 63.956 40.528C63.492 40.528 63.08 40.616 62.72 40.792C62.368 40.968 62.072 41.252 61.832 41.644L61.808 41.62C61.816 41.292 61.848 40.94 61.904 40.564C61.96 40.188 62.06 39.84 62.204 39.52C62.356 39.192 62.564 38.924 62.828 38.716C63.092 38.5 63.44 38.392 63.872 38.392C64.28 38.392 64.608 38.508 64.856 38.74C65.104 38.972 65.252 39.28 65.3 39.664ZM63.764 41.428C64.052 41.428 64.304 41.48 64.52 41.584C64.736 41.688 64.916 41.828 65.06 42.004C65.204 42.172 65.308 42.376 65.372 42.616C65.444 42.848 65.48 43.096 65.48 43.36C65.48 43.608 65.44 43.848 65.36 44.08C65.288 44.304 65.18 44.504 65.036 44.68C64.892 44.856 64.712 44.996 64.496 45.1C64.288 45.196 64.044 45.244 63.764 45.244C63.484 45.244 63.232 45.196 63.008 45.1C62.792 44.996 62.608 44.86 62.456 44.692C62.312 44.524 62.2 44.324 62.12 44.092C62.04 43.86 62 43.612 62 43.348C62 43.084 62.036 42.836 62.108 42.604C62.188 42.364 62.304 42.16 62.456 41.992C62.608 41.816 62.792 41.68 63.008 41.584C63.224 41.48 63.476 41.428 63.764 41.428Z" fill="#86909C"/>
<path d="M75 42H340" stroke="#E5E6EB" stroke-dasharray="4 4"/>
<path d="M64.4 84.108H61.544L64.376 79.944H64.4V84.108ZM65.36 84.108V78.492H64.544L60.668 84.024V85.008H64.4V87H65.36V85.008H66.512V84.108H65.36Z" fill="#86909C"/>
<path d="M75 83H340" stroke="#E5E6EB" stroke-dasharray="4 4"/>
<path d="M60.86 129.504H61.88C61.872 129.248 61.896 128.996 61.952 128.748C62.016 128.492 62.116 128.264 62.252 128.064C62.388 127.864 62.56 127.704 62.768 127.584C62.984 127.456 63.24 127.392 63.536 127.392C63.76 127.392 63.972 127.428 64.172 127.5C64.372 127.572 64.544 127.676 64.688 127.812C64.84 127.948 64.96 128.112 65.048 128.304C65.136 128.488 65.18 128.696 65.18 128.928C65.18 129.224 65.132 129.484 65.036 129.708C64.948 129.932 64.812 130.14 64.628 130.332C64.452 130.524 64.228 130.716 63.956 130.908C63.684 131.092 63.368 131.296 63.008 131.52C62.712 131.696 62.428 131.884 62.156 132.084C61.884 132.284 61.64 132.516 61.424 132.78C61.208 133.044 61.028 133.356 60.884 133.716C60.748 134.068 60.66 134.496 60.62 135H66.176V134.1H61.808C61.856 133.836 61.956 133.604 62.108 133.404C62.268 133.196 62.456 133.004 62.672 132.828C62.896 132.652 63.14 132.488 63.404 132.336C63.668 132.176 63.932 132.016 64.196 131.856C64.46 131.688 64.716 131.512 64.964 131.328C65.212 131.144 65.432 130.94 65.624 130.716C65.816 130.484 65.968 130.224 66.08 129.936C66.2 129.648 66.26 129.316 66.26 128.94C66.26 128.54 66.188 128.188 66.044 127.884C65.908 127.58 65.72 127.328 65.48 127.128C65.24 126.92 64.956 126.764 64.628 126.66C64.308 126.548 63.964 126.492 63.596 126.492C63.148 126.492 62.748 126.568 62.396 126.72C62.044 126.872 61.748 127.084 61.508 127.356C61.276 127.62 61.104 127.936 60.992 128.304C60.88 128.672 60.836 129.072 60.86 129.504Z" fill="#86909C"/>
<path d="M75 131H340" stroke="#E5E6EB" stroke-dasharray="4 4"/>
<path d="M61.916 178.812C61.916 178.604 61.916 178.376 61.916 178.128C61.924 177.872 61.944 177.62 61.976 177.372C62.016 177.116 62.068 176.868 62.132 176.628C62.204 176.388 62.304 176.18 62.432 176.004C62.568 175.82 62.736 175.672 62.936 175.56C63.136 175.448 63.38 175.392 63.668 175.392C63.956 175.392 64.2 175.448 64.4 175.56C64.6 175.672 64.764 175.82 64.892 176.004C65.028 176.18 65.128 176.388 65.192 176.628C65.264 176.868 65.316 177.116 65.348 177.372C65.388 177.62 65.408 177.872 65.408 178.128C65.416 178.376 65.42 178.604 65.42 178.812C65.42 179.132 65.408 179.492 65.384 179.892C65.368 180.284 65.304 180.656 65.192 181.008C65.088 181.352 64.916 181.644 64.676 181.884C64.436 182.124 64.1 182.244 63.668 182.244C63.236 182.244 62.9 182.124 62.66 181.884C62.42 181.644 62.244 181.352 62.132 181.008C62.028 180.656 61.964 180.284 61.94 179.892C61.924 179.492 61.916 179.132 61.916 178.812ZM60.836 178.824C60.836 179.136 60.844 179.46 60.86 179.796C60.876 180.132 60.916 180.46 60.98 180.78C61.044 181.1 61.136 181.404 61.256 181.692C61.376 181.972 61.54 182.22 61.748 182.436C61.956 182.652 62.216 182.824 62.528 182.952C62.848 183.072 63.228 183.132 63.668 183.132C64.116 183.132 64.496 183.072 64.808 182.952C65.12 182.824 65.38 182.652 65.588 182.436C65.796 182.22 65.96 181.972 66.08 181.692C66.2 181.404 66.292 181.1 66.356 180.78C66.42 180.46 66.46 180.132 66.476 179.796C66.492 179.46 66.5 179.136 66.5 178.824C66.5 178.512 66.492 178.188 66.476 177.852C66.46 177.516 66.42 177.188 66.356 176.868C66.292 176.548 66.2 176.244 66.08 175.956C65.96 175.668 65.796 175.416 65.588 175.2C65.38 174.984 65.116 174.812 64.796 174.684C64.484 174.556 64.108 174.492 63.668 174.492C63.228 174.492 62.848 174.556 62.528 174.684C62.216 174.812 61.956 174.984 61.748 175.2C61.54 175.416 61.376 175.668 61.256 175.956C61.136 176.244 61.044 176.548 60.98 176.868C60.916 177.188 60.876 177.516 60.86 177.852C60.844 178.188 60.836 178.512 60.836 178.824Z" fill="#86909C"/>
<path d="M75 179H340" stroke="#C9CDD4"/>
<path d="M37.3838 19H36.3038V11.38H33.6278V10.432H40.0478V11.38H37.3838V19ZM42.2518 12.568V19H41.1958V12.568H42.2518ZM41.7358 10.156C41.8958 10.156 42.0358 10.212 42.1558 10.324C42.2838 10.428 42.3478 10.596 42.3478 10.828C42.3478 11.052 42.2838 11.22 42.1558 11.332C42.0358 11.444 41.8958 11.5 41.7358 11.5C41.5598 11.5 41.4118 11.444 41.2918 11.332C41.1718 11.22 41.1118 11.052 41.1118 10.828C41.1118 10.596 41.1718 10.428 41.2918 10.324C41.4118 10.212 41.5598 10.156 41.7358 10.156ZM51.3455 12.448C52.0735 12.448 52.6175 12.636 52.9775 13.012C53.3375 13.38 53.5175 13.98 53.5175 14.812V19H52.4735V14.86C52.4735 14.356 52.3655 13.976 52.1495 13.72C51.9415 13.464 51.6135 13.336 51.1655 13.336C50.5415 13.336 50.0935 13.516 49.8215 13.876C49.5575 14.236 49.4255 14.76 49.4255 15.448V19H48.3815V14.86C48.3815 14.524 48.3335 14.244 48.2375 14.02C48.1415 13.788 47.9975 13.616 47.8055 13.504C47.6135 13.392 47.3655 13.336 47.0615 13.336C46.6295 13.336 46.2895 13.428 46.0415 13.612C45.7935 13.788 45.6135 14.048 45.5015 14.392C45.3975 14.736 45.3455 15.16 45.3455 15.664V19H44.2895V12.568H45.1415L45.2975 13.444H45.3575C45.4935 13.22 45.6575 13.036 45.8495 12.892C46.0495 12.74 46.2695 12.628 46.5095 12.556C46.7495 12.484 46.9975 12.448 47.2535 12.448C47.7495 12.448 48.1615 12.536 48.4895 12.712C48.8255 12.888 49.0695 13.16 49.2215 13.528H49.2815C49.4975 13.16 49.7895 12.888 50.1575 12.712C50.5335 12.536 50.9295 12.448 51.3455 12.448ZM57.9884 12.448C58.5404 12.448 59.0124 12.568 59.4044 12.808C59.8044 13.048 60.1084 13.388 60.3164 13.828C60.5324 14.26 60.6404 14.768 60.6404 15.352V15.988H56.2364C56.2524 16.716 56.4364 17.272 56.7884 17.656C57.1484 18.032 57.6484 18.22 58.2884 18.22C58.6964 18.22 59.0564 18.184 59.3684 18.112C59.6884 18.032 60.0164 17.92 60.3524 17.776V18.7C60.0244 18.844 59.7004 18.948 59.3804 19.012C59.0604 19.084 58.6804 19.12 58.2404 19.12C57.6324 19.12 57.0924 18.996 56.6204 18.748C56.1564 18.5 55.7924 18.132 55.5284 17.644C55.2724 17.148 55.1444 16.544 55.1444 15.832C55.1444 15.128 55.2604 14.524 55.4924 14.02C55.7324 13.516 56.0644 13.128 56.4884 12.856C56.9204 12.584 57.4204 12.448 57.9884 12.448ZM57.9764 13.312C57.4724 13.312 57.0724 13.476 56.7764 13.804C56.4884 14.124 56.3164 14.572 56.2604 15.148H59.5364C59.5364 14.78 59.4804 14.46 59.3684 14.188C59.2564 13.916 59.0844 13.704 58.8524 13.552C58.6284 13.392 58.3364 13.312 57.9764 13.312ZM66.4658 17.224C66.4658 17.64 66.3618 17.988 66.1538 18.268C65.9458 18.548 65.6498 18.76 65.2658 18.904C64.8818 19.048 64.4258 19.12 63.8978 19.12C63.4498 19.12 63.0618 19.084 62.7338 19.012C62.4138 18.94 62.1298 18.84 61.8818 18.712V17.752C62.1378 17.88 62.4458 18 62.8058 18.112C63.1738 18.216 63.5458 18.268 63.9218 18.268C64.4578 18.268 64.8458 18.184 65.0858 18.016C65.3258 17.84 65.4458 17.608 65.4458 17.32C65.4458 17.16 65.4018 17.016 65.3138 16.888C65.2258 16.76 65.0658 16.632 64.8338 16.504C64.6098 16.376 64.2858 16.232 63.8618 16.072C63.4458 15.912 63.0898 15.752 62.7938 15.592C62.4978 15.432 62.2698 15.24 62.1098 15.016C61.9498 14.792 61.8698 14.504 61.8698 14.152C61.8698 13.608 62.0898 13.188 62.5298 12.892C62.9778 12.596 63.5618 12.448 64.2818 12.448C64.6738 12.448 65.0378 12.488 65.3738 12.568C65.7178 12.64 66.0378 12.744 66.3338 12.88L65.9738 13.72C65.7978 13.64 65.6098 13.572 65.4098 13.516C65.2178 13.452 65.0218 13.404 64.8218 13.372C64.6218 13.332 64.4178 13.312 64.2098 13.312C63.7778 13.312 63.4458 13.384 63.2138 13.528C62.9898 13.664 62.8778 13.852 62.8778 14.092C62.8778 14.268 62.9298 14.42 63.0338 14.548C63.1378 14.668 63.3098 14.788 63.5498 14.908C63.7978 15.02 64.1258 15.156 64.5338 15.316C64.9418 15.468 65.2898 15.624 65.5778 15.784C65.8658 15.944 66.0858 16.14 66.2378 16.372C66.3898 16.596 66.4658 16.88 66.4658 17.224Z" fill="#86909C"/>
<rect x="89" y="42" width="25" height="137" fill="#1D4861"/>
<rect x="142" y="132" width="25" height="47" fill="#1D4861"/>
<rect x="195" y="51" width="25" height="128" fill="#1D4861"/>
<rect x="248" y="42" width="25" height="137" fill="#1D4861"/>
<rect x="301" y="82" width="25" height="97" fill="#1D4861"/>
<path d="M70.0978 217.642C69.8291 217.911 69.6335 218.201 69.5109 218.512C69.3836 218.818 69.3341 219.136 69.3624 219.466C69.386 219.792 69.485 220.122 69.6594 220.456C69.8291 220.786 70.0719 221.109 70.3877 221.425C70.8026 221.84 71.2268 222.137 71.6605 222.316C72.0989 222.49 72.5279 222.533 72.9475 222.443C73.3717 222.349 73.7771 222.109 74.1637 221.722C74.3852 221.501 74.5762 221.272 74.7364 221.036C74.8967 220.8 75.0429 220.56 75.1748 220.315L75.7264 220.866C75.6085 221.126 75.4648 221.373 75.2951 221.609C75.1301 221.84 74.9085 222.094 74.6304 222.373C74.1165 222.886 73.5815 223.209 73.0252 223.341C72.469 223.473 71.908 223.431 71.3423 223.214C70.7814 222.993 70.2369 222.618 69.7089 222.09C69.3271 221.708 69.0301 221.307 68.818 220.888C68.6105 220.463 68.4927 220.034 68.4644 219.601C68.4408 219.162 68.5186 218.731 68.6978 218.307C68.8722 217.878 69.155 217.468 69.5463 217.076C69.8056 216.817 70.0813 216.593 70.3736 216.405C70.6659 216.216 70.9534 216.075 71.2363 215.98L71.5191 216.772C71.2928 216.857 71.0548 216.968 70.8049 217.105C70.5598 217.237 70.3241 217.416 70.0978 217.642ZM78.2708 214.787C78.5867 215.102 78.8247 215.425 78.985 215.755C79.1453 216.076 79.2325 216.399 79.2466 216.724C79.2655 217.045 79.2089 217.36 79.0769 217.672C78.9449 217.973 78.7446 218.258 78.4759 218.527C78.226 218.777 77.9526 218.966 77.6556 219.093C77.3539 219.215 77.0405 219.27 76.7152 219.255C76.3899 219.241 76.0623 219.159 75.7323 219.008C75.4023 218.848 75.0794 218.61 74.7636 218.294C74.344 217.874 74.0612 217.45 73.915 217.021C73.7642 216.587 73.7453 216.163 73.8585 215.748C73.9669 215.329 74.2026 214.937 74.5656 214.574C74.9097 214.23 75.2892 214.006 75.704 213.903C76.1189 213.79 76.5455 213.806 76.9839 213.952C77.4223 214.089 77.8513 214.367 78.2708 214.787ZM75.407 217.65C75.704 217.947 76.001 218.169 76.298 218.315C76.595 218.452 76.8849 218.496 77.1677 218.449C77.4506 218.402 77.7193 218.251 77.9738 217.997C78.2284 217.742 78.3792 217.474 78.4264 217.191C78.4735 216.908 78.4264 216.62 78.285 216.328C78.1435 216.026 77.9243 215.727 77.6273 215.43C77.3257 215.128 77.0287 214.911 76.7364 214.779C76.4441 214.647 76.1589 214.607 75.8808 214.659C75.6027 214.702 75.334 214.853 75.0747 215.112C74.6881 215.498 74.5349 215.906 74.6151 216.335C74.6952 216.764 74.9592 217.202 75.407 217.65ZM81.4561 207.684C81.8851 207.255 82.3164 207.045 82.7501 207.055C83.1791 207.059 83.6387 207.307 84.129 207.797L86.5968 210.265L85.9816 210.88L83.5421 208.44C83.2451 208.143 82.9575 207.983 82.6794 207.96C82.406 207.931 82.1373 208.049 81.8733 208.313C81.5056 208.681 81.3477 209.051 81.3995 209.423C81.4561 209.791 81.6871 210.178 82.0925 210.583L84.1855 212.676L83.5704 213.291L81.1308 210.852C80.9329 210.654 80.7396 210.517 80.551 210.442C80.3577 210.361 80.1715 210.345 79.9924 210.392C79.8133 210.439 79.6341 210.552 79.455 210.731C79.2004 210.986 79.0543 211.241 79.0166 211.495C78.9742 211.745 79.0213 212.004 79.158 212.273C79.2994 212.537 79.5186 212.817 79.8156 213.114L81.7814 215.08L81.1591 215.702L77.369 211.912L77.8711 211.41L78.4792 211.835L78.5145 211.799C78.4627 211.587 78.4509 211.382 78.4792 211.184C78.5075 210.977 78.5711 210.781 78.6701 210.597C78.7691 210.413 78.894 210.246 79.0449 210.095C79.3371 209.803 79.6318 209.612 79.9288 209.522C80.2305 209.428 80.5345 209.445 80.8409 209.572L80.8763 209.536C80.7867 209.192 80.7985 208.86 80.9116 208.539C81.0295 208.214 81.211 207.929 81.4561 207.684ZM85.7099 203.43C86.1765 202.963 86.7139 202.751 87.3221 202.794C87.9349 202.831 88.5689 203.178 89.2242 203.833C89.6532 204.262 89.9501 204.691 90.1151 205.12C90.2801 205.54 90.3202 205.943 90.2353 206.329C90.1505 206.706 89.9501 207.053 89.6343 207.369C89.441 207.562 89.243 207.708 89.0403 207.807C88.8376 207.906 88.642 207.97 88.4534 207.998C88.2649 208.017 88.0834 208.015 87.909 207.991L87.8665 208.033C87.9561 208.104 88.0669 208.196 88.1989 208.309C88.3309 208.422 88.4416 208.524 88.5312 208.613L90.0868 210.169L89.4646 210.791L83.9774 205.304L84.4866 204.795L85.0876 205.226L85.1159 205.198C85.0829 205.014 85.0735 204.825 85.0876 204.632C85.1065 204.434 85.163 204.236 85.2573 204.038C85.3563 203.836 85.5072 203.633 85.7099 203.43ZM86.12 204.067C85.8654 204.321 85.7099 204.576 85.6533 204.83C85.592 205.08 85.6226 205.337 85.7452 205.601C85.8678 205.865 86.0752 206.148 86.3675 206.449L86.4877 206.57C86.7988 206.881 87.0958 207.112 87.3786 207.263C87.6615 207.413 87.9372 207.468 88.2059 207.425C88.4794 207.378 88.7528 207.218 89.0262 206.944C89.2572 206.713 89.3821 206.461 89.401 206.188C89.4245 205.91 89.3632 205.627 89.2171 205.339C89.071 205.042 88.8565 204.752 88.5736 204.47C88.1399 204.036 87.7086 203.774 87.2796 203.685C86.8554 203.59 86.4688 203.718 86.12 204.067ZM92.7402 204.121L92.1179 204.744L86.7439 199.37L87.3661 198.747L92.7402 204.121ZM91.5226 197.632C91.9846 197.17 92.4277 196.929 92.852 196.91C93.2762 196.891 93.7099 197.104 94.153 197.547L96.734 200.128L96.2814 200.58L95.6238 200.163L95.5955 200.191C95.6238 200.436 95.6262 200.665 95.6026 200.877C95.579 201.08 95.513 201.278 95.4046 201.471C95.3009 201.66 95.143 201.86 94.9309 202.072C94.7046 202.298 94.4595 202.463 94.1955 202.567C93.9362 202.666 93.6722 202.685 93.4035 202.624C93.1301 202.558 92.8661 202.397 92.6115 202.143C92.2344 201.766 92.093 201.327 92.1873 200.828C92.2769 200.323 92.621 199.753 93.2197 199.116L93.8419 198.452L93.6156 198.225C93.2998 197.91 93.0122 197.759 92.753 197.773C92.4937 197.787 92.2391 197.919 91.9893 198.169C91.7913 198.367 91.6334 198.586 91.5155 198.827C91.393 199.062 91.2916 199.296 91.2115 199.527L90.5539 199.251C90.6293 198.996 90.7495 198.725 90.9145 198.438C91.0748 198.145 91.2775 197.877 91.5226 197.632ZM93.7288 199.47C93.2762 199.96 93.024 200.363 92.9722 200.679C92.925 200.99 93.0217 201.266 93.2621 201.506C93.4742 201.719 93.6934 201.811 93.9197 201.782C94.1507 201.749 94.3675 201.631 94.5702 201.429C94.8908 201.108 95.0699 200.755 95.1076 200.368C95.1406 199.977 94.9733 199.597 94.6056 199.23L94.2662 198.89L93.7288 199.47ZM94.7367 194.545L98.5268 198.335L97.9046 198.957L94.1145 195.167L94.7367 194.545ZM93.0114 193.427C93.1057 193.333 93.2212 193.284 93.3579 193.279C93.4946 193.265 93.6313 193.326 93.768 193.463C93.9 193.595 93.9613 193.731 93.9518 193.873C93.9471 194.01 93.8976 194.125 93.8034 194.219C93.6996 194.323 93.5794 194.377 93.4427 194.382C93.306 194.387 93.1717 194.323 93.0397 194.191C92.903 194.054 92.8393 193.92 92.8488 193.788C92.8535 193.651 92.9077 193.531 93.0114 193.427ZM97.6911 191.449C98.1437 190.996 98.5962 190.765 99.0488 190.756C99.4966 190.742 99.9656 190.98 100.456 191.47L102.924 193.938L102.309 194.553L99.8831 192.128C99.5767 191.821 99.2798 191.661 98.9922 191.647C98.7046 191.633 98.4147 191.772 98.1225 192.064C97.7029 192.484 97.5308 192.891 97.6063 193.287C97.6817 193.683 97.941 194.103 98.3841 194.546L100.35 196.512L99.7276 197.134L95.9375 193.344L96.4395 192.842L97.0477 193.266L97.083 193.231C97.0359 193.014 97.0312 192.802 97.0689 192.594C97.1066 192.378 97.1796 192.172 97.2881 191.979C97.3965 191.786 97.5308 191.609 97.6911 191.449ZM104.926 191.059C105.02 190.965 105.11 190.861 105.195 190.748C105.275 190.63 105.336 190.531 105.379 190.451L105.852 190.924C105.819 191.023 105.751 191.144 105.647 191.285C105.548 191.431 105.442 191.561 105.329 191.674C105.131 191.872 104.914 192.023 104.678 192.127C104.443 192.221 104.188 192.235 103.915 192.169C103.641 192.103 103.351 191.917 103.045 191.61L100.839 189.404L100.302 189.942L100.005 189.645L100.302 188.853L99.7429 187.799L100.111 187.431L100.98 188.301L102.076 187.205L102.557 187.686L101.461 188.782L103.653 190.974C103.884 191.205 104.11 191.323 104.332 191.327C104.554 191.323 104.752 191.233 104.926 191.059Z" fill="#1D4861"/>
<path d="M105.689 244.449L104.947 245.192L98.0527 243.7L98.0244 243.728C98.114 243.808 98.213 243.898 98.3214 243.997C98.4345 244.091 98.5547 244.197 98.682 244.315C98.8046 244.428 98.9319 244.546 99.0639 244.668C99.1959 244.791 99.3255 244.916 99.4528 245.043L102.274 247.865L101.687 248.452L96.6385 243.403L97.3739 242.667L104.247 244.152L104.275 244.124C104.214 244.072 104.131 243.999 104.028 243.905C103.919 243.806 103.801 243.697 103.674 243.58C103.542 243.457 103.408 243.332 103.271 243.205C103.134 243.078 103.01 242.957 102.896 242.844L100.047 239.995L100.641 239.401L105.689 244.449ZM104.578 237.84C104.903 237.514 105.252 237.307 105.624 237.217C106.001 237.123 106.381 237.144 106.763 237.281C107.144 237.408 107.507 237.644 107.852 237.988L108.226 238.363L105.631 240.958C106.07 241.377 106.506 241.597 106.939 241.615C107.373 241.625 107.778 241.441 108.156 241.064C108.396 240.823 108.587 240.59 108.728 240.364C108.87 240.128 108.997 239.869 109.11 239.586L109.655 240.131C109.546 240.409 109.417 240.661 109.266 240.887C109.12 241.118 108.917 241.363 108.658 241.623C108.299 241.981 107.908 242.226 107.484 242.358C107.064 242.485 106.633 242.483 106.19 242.351C105.747 242.209 105.315 241.929 104.896 241.509C104.481 241.095 104.193 240.67 104.033 240.237C103.878 239.798 103.845 239.374 103.934 238.964C104.028 238.549 104.243 238.174 104.578 237.84ZM105.08 238.356C104.783 238.653 104.644 238.985 104.662 239.353C104.681 239.711 104.844 240.076 105.15 240.449L107.081 238.518C106.864 238.301 106.642 238.146 106.416 238.052C106.19 237.957 105.964 237.934 105.737 237.981C105.511 238.019 105.292 238.144 105.08 238.356ZM111.132 234.722C111.005 234.651 110.88 234.583 110.757 234.517C110.63 234.446 110.512 234.38 110.404 234.319C110.295 234.248 110.194 234.184 110.1 234.128C110.005 234.071 109.928 234.022 109.866 233.979L109.838 234.008C109.88 234.069 109.93 234.147 109.986 234.241C110.048 234.33 110.111 234.432 110.177 234.545C110.248 234.653 110.319 234.771 110.389 234.898C110.46 235.016 110.529 235.141 110.595 235.273L112.044 238.08L111.337 238.788L106.507 236.037L107.151 235.393L109.697 236.893C109.871 236.992 110.045 237.095 110.22 237.204C110.389 237.307 110.55 237.411 110.701 237.515C110.851 237.609 110.976 237.696 111.075 237.776L111.104 237.748C111.061 237.677 111.007 237.59 110.941 237.487C110.875 237.383 110.804 237.274 110.729 237.161C110.658 237.043 110.587 236.926 110.517 236.808C110.451 236.685 110.392 236.574 110.34 236.475L108.876 233.668L109.555 232.989L112.341 234.474C112.483 234.55 112.631 234.632 112.787 234.722C112.947 234.807 113.1 234.894 113.246 234.983C113.388 235.068 113.508 235.151 113.607 235.231L113.635 235.203C113.564 235.113 113.482 234.997 113.388 234.856C113.293 234.705 113.192 234.543 113.084 234.368C112.975 234.184 112.869 234.003 112.765 233.824L111.273 231.271L111.91 230.635L114.646 235.478L113.918 236.207L111.132 234.722ZM119.845 230.294L113.757 227.529L113.729 227.557C113.832 227.642 113.96 227.755 114.111 227.896C114.266 228.033 114.434 228.186 114.613 228.356C114.787 228.521 114.964 228.693 115.143 228.872L118.205 231.934L117.618 232.521L112.569 227.472L113.51 226.532L119.202 229.113L119.23 229.084L116.677 223.364L117.611 222.43L122.66 227.479L122.03 228.109L118.926 225.004C118.761 224.839 118.601 224.674 118.445 224.509C118.285 224.34 118.139 224.179 118.007 224.029C117.87 223.873 117.755 223.743 117.66 223.64L117.632 223.668L120.368 229.77L119.845 230.294ZM121.551 220.866C121.876 220.541 122.225 220.333 122.597 220.244C122.975 220.15 123.354 220.171 123.736 220.308C124.118 220.435 124.481 220.671 124.825 221.015L125.2 221.389L122.605 223.985C123.043 224.404 123.479 224.623 123.913 224.642C124.346 224.652 124.752 224.468 125.129 224.091C125.369 223.85 125.56 223.617 125.702 223.391C125.843 223.155 125.97 222.896 126.084 222.613L126.628 223.157C126.52 223.435 126.39 223.688 126.239 223.914C126.093 224.145 125.89 224.39 125.631 224.649C125.273 225.007 124.881 225.253 124.457 225.385C124.038 225.512 123.606 225.51 123.163 225.378C122.72 225.236 122.289 224.956 121.869 224.536C121.454 224.121 121.167 223.697 121.006 223.263C120.851 222.825 120.818 222.401 120.907 221.99C121.002 221.576 121.216 221.201 121.551 220.866ZM122.053 221.382C121.756 221.679 121.617 222.012 121.636 222.379C121.655 222.738 121.817 223.103 122.124 223.475L124.054 221.545C123.837 221.328 123.616 221.173 123.389 221.078C123.163 220.984 122.937 220.96 122.711 221.008C122.484 221.045 122.265 221.17 122.053 221.382ZM128.236 214.181C128.665 213.752 129.097 213.542 129.53 213.551C129.959 213.556 130.419 213.804 130.909 214.294L133.377 216.762L132.762 217.377L130.322 214.937C130.025 214.64 129.738 214.48 129.46 214.457C129.186 214.428 128.918 214.546 128.654 214.81C128.286 215.178 128.128 215.548 128.18 215.92C128.236 216.288 128.467 216.675 128.873 217.08L130.966 219.173L130.351 219.788L127.911 217.349C127.713 217.151 127.52 217.014 127.331 216.939C127.138 216.858 126.952 216.842 126.773 216.889C126.593 216.936 126.414 217.049 126.235 217.228C125.981 217.483 125.835 217.738 125.797 217.992C125.754 218.242 125.802 218.501 125.938 218.77C126.08 219.034 126.299 219.314 126.596 219.611L128.562 221.577L127.939 222.199L124.149 218.409L124.651 217.907L125.259 218.332L125.295 218.296C125.243 218.084 125.231 217.879 125.259 217.681C125.288 217.474 125.351 217.278 125.45 217.094C125.549 216.91 125.674 216.743 125.825 216.592C126.117 216.3 126.412 216.109 126.709 216.019C127.011 215.925 127.315 215.942 127.621 216.069L127.656 216.033C127.567 215.689 127.579 215.357 127.692 215.036C127.81 214.711 127.991 214.426 128.236 214.181ZM131.104 210.903C131.264 211.063 131.411 211.219 131.543 211.37C131.675 211.511 131.776 211.626 131.847 211.716L131.882 211.681C131.83 211.412 131.844 211.129 131.924 210.832C132.005 210.535 132.193 210.238 132.49 209.941C132.961 209.47 133.504 209.258 134.116 209.305C134.729 209.343 135.361 209.687 136.011 210.337C136.445 210.771 136.742 211.2 136.902 211.624C137.067 212.044 137.105 212.444 137.016 212.826C136.926 213.208 136.726 213.555 136.415 213.866C136.118 214.163 135.821 214.351 135.524 214.431C135.227 214.511 134.948 214.53 134.689 214.488L134.64 214.537L134.993 215.146L134.548 215.591L129.174 210.217L129.796 209.595L131.104 210.903ZM132.9 210.563C132.631 210.832 132.471 211.096 132.419 211.355C132.363 211.61 132.408 211.876 132.554 212.154C132.695 212.428 132.928 212.727 133.254 213.052L133.282 213.081C133.749 213.547 134.182 213.83 134.583 213.929C134.984 214.019 135.392 213.856 135.806 213.441C136.146 213.102 136.273 212.725 136.188 212.31C136.108 211.89 135.832 211.445 135.361 210.974C134.885 210.497 134.442 210.224 134.032 210.153C133.626 210.078 133.249 210.215 132.9 210.563ZM136.501 205.916C136.826 205.591 137.175 205.383 137.548 205.294C137.925 205.2 138.304 205.221 138.686 205.358C139.068 205.485 139.431 205.72 139.775 206.065L140.15 206.439L137.555 209.034C137.993 209.454 138.429 209.673 138.863 209.692C139.296 209.701 139.702 209.518 140.079 209.141C140.319 208.9 140.51 208.667 140.652 208.44C140.793 208.205 140.92 207.946 141.034 207.663L141.578 208.207C141.47 208.485 141.34 208.737 141.189 208.964C141.043 209.195 140.84 209.44 140.581 209.699C140.223 210.057 139.831 210.303 139.407 210.435C138.988 210.562 138.556 210.559 138.113 210.427C137.67 210.286 137.239 210.006 136.819 209.586C136.404 209.171 136.117 208.747 135.957 208.313C135.801 207.875 135.768 207.451 135.858 207.04C135.952 206.626 136.166 206.251 136.501 205.916ZM137.003 206.432C136.706 206.729 136.567 207.062 136.586 207.429C136.605 207.788 136.767 208.153 137.074 208.525L139.004 206.595C138.787 206.378 138.566 206.223 138.339 206.128C138.113 206.034 137.887 206.01 137.661 206.058C137.434 206.095 137.215 206.22 137.003 206.432ZM140.796 201.621C140.867 201.55 140.947 201.479 141.037 201.409C141.126 201.329 141.209 201.265 141.284 201.218L141.779 201.868C141.704 201.915 141.624 201.972 141.539 202.038C141.459 202.099 141.386 202.163 141.32 202.229C141.173 202.375 141.065 202.545 140.994 202.738C140.924 202.931 140.893 203.136 140.902 203.353C140.907 203.565 140.957 203.78 141.051 203.997C141.15 204.209 141.296 204.411 141.489 204.605L143.512 206.627L142.889 207.249L139.099 203.459L139.608 202.95L140.372 203.572L140.4 203.544C140.339 203.323 140.308 203.099 140.308 202.872C140.304 202.641 140.341 202.42 140.422 202.208C140.497 201.991 140.622 201.795 140.796 201.621ZM147.232 200.814C147.477 201.059 147.621 201.326 147.663 201.613C147.705 201.901 147.656 202.2 147.514 202.511C147.373 202.822 147.147 203.133 146.836 203.445C146.572 203.708 146.322 203.916 146.086 204.067C145.855 204.213 145.629 204.321 145.407 204.392L144.842 203.826C145.068 203.751 145.32 203.64 145.598 203.494C145.876 203.338 146.126 203.15 146.348 202.928C146.664 202.612 146.843 202.334 146.885 202.094C146.923 201.849 146.857 201.641 146.687 201.472C146.593 201.377 146.482 201.318 146.355 201.295C146.228 201.271 146.058 201.29 145.846 201.351C145.638 201.408 145.363 201.514 145.018 201.67C144.679 201.821 144.375 201.936 144.106 202.016C143.838 202.096 143.59 202.117 143.364 202.08C143.137 202.042 142.921 201.92 142.713 201.712C142.393 201.392 142.275 201.014 142.36 200.581C142.449 200.142 142.706 199.711 143.13 199.287C143.361 199.056 143.599 198.865 143.845 198.714C144.09 198.554 144.34 198.426 144.594 198.332L144.877 199.039C144.726 199.096 144.575 199.167 144.424 199.251C144.274 199.327 144.13 199.414 143.993 199.513C143.852 199.607 143.72 199.716 143.597 199.838C143.343 200.093 143.189 200.331 143.137 200.552C143.086 200.765 143.13 200.941 143.272 201.083C143.376 201.186 143.496 201.245 143.632 201.26C143.764 201.269 143.937 201.238 144.149 201.168C144.361 201.087 144.634 200.974 144.969 200.828C145.299 200.677 145.596 200.564 145.86 200.489C146.124 200.413 146.369 200.399 146.595 200.446C146.817 200.489 147.029 200.611 147.232 200.814ZM146.019 196.525C146.109 196.615 146.196 196.712 146.281 196.815C146.37 196.914 146.448 197.006 146.514 197.091L146.556 197.049C146.505 196.836 146.498 196.627 146.535 196.419C146.573 196.212 146.646 196.012 146.754 195.818C146.858 195.62 146.99 195.441 147.15 195.281C147.457 194.974 147.761 194.769 148.063 194.666C148.364 194.553 148.668 194.545 148.975 194.644C149.281 194.743 149.597 194.956 149.922 195.281L152.39 197.749L151.775 198.364L149.35 195.938C149.043 195.632 148.746 195.472 148.459 195.458C148.171 195.443 147.881 195.583 147.589 195.875C147.306 196.158 147.139 196.433 147.087 196.702C147.03 196.966 147.07 197.237 147.207 197.515C147.344 197.784 147.561 198.067 147.858 198.364L149.816 200.323L149.194 200.945L143.82 195.571L144.442 194.949L146.019 196.525ZM150.397 192.161L154.187 195.951L153.565 196.574L149.775 192.784L150.397 192.161ZM148.672 191.044C148.766 190.95 148.882 190.9 149.018 190.896C149.155 190.881 149.292 190.943 149.428 191.079C149.56 191.211 149.622 191.348 149.612 191.49C149.608 191.626 149.558 191.742 149.464 191.836C149.36 191.94 149.24 191.994 149.103 191.999C148.967 192.003 148.832 191.94 148.7 191.808C148.563 191.671 148.5 191.537 148.509 191.405C148.514 191.268 148.568 191.148 148.672 191.044ZM153.33 189.087C153.797 188.62 154.334 188.408 154.943 188.45C155.555 188.488 156.189 188.835 156.845 189.49C157.274 189.919 157.571 190.348 157.736 190.777C157.901 191.196 157.941 191.599 157.856 191.986C157.771 192.363 157.571 192.709 157.255 193.025C157.062 193.219 156.864 193.365 156.661 193.464C156.458 193.563 156.263 193.626 156.074 193.655C155.885 193.674 155.704 193.671 155.529 193.648L155.487 193.69C155.577 193.761 155.687 193.853 155.819 193.966C155.951 194.079 156.062 194.18 156.152 194.27L157.707 195.825L157.085 196.448L151.598 190.961L152.107 190.451L152.708 190.883L152.736 190.855C152.703 190.671 152.694 190.482 152.708 190.289C152.727 190.091 152.784 189.893 152.878 189.695C152.977 189.492 153.128 189.289 153.33 189.087ZM153.741 189.723C153.486 189.978 153.33 190.232 153.274 190.487C153.213 190.737 153.243 190.994 153.366 191.258C153.488 191.522 153.696 191.804 153.988 192.106L154.108 192.226C154.419 192.537 154.716 192.768 154.999 192.919C155.282 193.07 155.558 193.124 155.826 193.082C156.1 193.035 156.373 192.874 156.647 192.601C156.878 192.37 157.003 192.118 157.021 191.844C157.045 191.566 156.984 191.283 156.838 190.996C156.691 190.699 156.477 190.409 156.194 190.126C155.76 189.693 155.329 189.431 154.9 189.341C154.476 189.247 154.089 189.374 153.741 189.723Z" fill="#1D4861"/>
<path d="M147.504 255.056L141.416 252.291L141.388 252.319C141.491 252.404 141.619 252.517 141.769 252.659C141.925 252.796 142.092 252.949 142.271 253.118C142.446 253.283 142.623 253.456 142.802 253.635L145.864 256.696L145.277 257.283L140.228 252.235L141.168 251.294L146.861 253.875L146.889 253.847L144.336 248.126L145.27 247.193L150.318 252.242L149.689 252.871L146.585 249.767C146.42 249.602 146.259 249.437 146.104 249.272C145.944 249.102 145.798 248.942 145.666 248.791C145.529 248.635 145.413 248.506 145.319 248.402L145.291 248.43L148.027 254.533L147.504 255.056ZM149.21 245.629C149.535 245.303 149.884 245.096 150.256 245.006C150.633 244.912 151.013 244.933 151.395 245.07C151.777 245.197 152.14 245.433 152.484 245.777L152.858 246.152L150.263 248.747C150.702 249.167 151.138 249.386 151.571 249.405C152.005 249.414 152.411 249.23 152.788 248.853C153.028 248.613 153.219 248.379 153.36 248.153C153.502 247.917 153.629 247.658 153.742 247.375L154.287 247.92C154.178 248.198 154.049 248.45 153.898 248.676C153.752 248.907 153.549 249.152 153.29 249.412C152.931 249.77 152.54 250.015 152.116 250.147C151.696 250.274 151.265 250.272 150.822 250.14C150.379 249.999 149.947 249.718 149.528 249.298C149.113 248.884 148.826 248.459 148.665 248.026C148.51 247.587 148.477 247.163 148.566 246.753C148.661 246.338 148.875 245.963 149.21 245.629ZM149.712 246.145C149.415 246.442 149.276 246.774 149.295 247.142C149.313 247.5 149.476 247.865 149.782 248.238L151.713 246.307C151.496 246.091 151.274 245.935 151.048 245.841C150.822 245.746 150.596 245.723 150.369 245.77C150.143 245.808 149.924 245.933 149.712 246.145ZM155.895 238.943C156.324 238.514 156.755 238.304 157.189 238.314C157.618 238.319 158.078 238.566 158.568 239.056L161.036 241.524L160.421 242.139L157.981 239.7C157.684 239.403 157.397 239.243 157.118 239.219C156.845 239.191 156.576 239.309 156.312 239.573C155.945 239.94 155.787 240.31 155.839 240.683C155.895 241.05 156.126 241.437 156.531 241.842L158.625 243.935L158.009 244.551L155.57 242.111C155.372 241.913 155.179 241.776 154.99 241.701C154.797 241.621 154.611 241.604 154.431 241.651C154.252 241.699 154.073 241.812 153.894 241.991C153.639 242.245 153.493 242.5 153.456 242.755C153.413 243.004 153.46 243.264 153.597 243.532C153.738 243.796 153.958 244.077 154.255 244.374L156.22 246.34L155.598 246.962L151.808 243.172L152.31 242.67L152.918 243.094L152.954 243.059C152.902 242.846 152.89 242.641 152.918 242.443C152.946 242.236 153.01 242.04 153.109 241.857C153.208 241.673 153.333 241.505 153.484 241.354C153.776 241.062 154.071 240.871 154.368 240.782C154.669 240.687 154.973 240.704 155.28 240.831L155.315 240.796C155.226 240.452 155.237 240.119 155.351 239.799C155.468 239.474 155.65 239.188 155.895 238.943ZM158.763 235.665C158.923 235.826 159.069 235.981 159.201 236.132C159.333 236.273 159.435 236.389 159.505 236.478L159.541 236.443C159.489 236.174 159.503 235.892 159.583 235.595C159.663 235.298 159.852 235.001 160.149 234.704C160.62 234.232 161.162 234.02 161.775 234.067C162.388 234.105 163.02 234.449 163.67 235.1C164.104 235.533 164.401 235.962 164.561 236.387C164.726 236.806 164.764 237.207 164.674 237.589C164.585 237.97 164.384 238.317 164.073 238.628C163.776 238.925 163.479 239.114 163.182 239.194C162.885 239.274 162.607 239.293 162.348 239.25L162.298 239.3L162.652 239.908L162.207 240.353L156.833 234.979L157.455 234.357L158.763 235.665ZM160.559 235.326C160.29 235.595 160.13 235.859 160.078 236.118C160.022 236.372 160.066 236.639 160.212 236.917C160.354 237.19 160.587 237.49 160.913 237.815L160.941 237.843C161.407 238.31 161.841 238.593 162.242 238.692C162.643 238.781 163.05 238.619 163.465 238.204C163.805 237.864 163.932 237.487 163.847 237.072C163.767 236.653 163.491 236.207 163.02 235.736C162.544 235.26 162.1 234.986 161.69 234.916C161.285 234.84 160.908 234.977 160.559 235.326ZM164.16 230.679C164.485 230.353 164.834 230.146 165.206 230.056C165.583 229.962 165.963 229.983 166.345 230.12C166.727 230.247 167.09 230.483 167.434 230.827L167.808 231.202L165.213 233.797C165.652 234.216 166.088 234.436 166.522 234.455C166.955 234.464 167.361 234.28 167.738 233.903C167.978 233.663 168.169 233.429 168.311 233.203C168.452 232.967 168.579 232.708 168.692 232.425L169.237 232.97C169.128 233.248 168.999 233.5 168.848 233.726C168.702 233.957 168.499 234.202 168.24 234.462C167.882 234.82 167.49 235.065 167.066 235.197C166.646 235.324 166.215 235.322 165.772 235.19C165.329 235.048 164.898 234.768 164.478 234.348C164.063 233.934 163.776 233.509 163.615 233.076C163.46 232.637 163.427 232.213 163.516 231.803C163.611 231.388 163.825 231.013 164.16 230.679ZM164.662 231.195C164.365 231.492 164.226 231.824 164.245 232.192C164.263 232.55 164.426 232.915 164.733 233.288L166.663 231.357C166.446 231.141 166.225 230.985 165.998 230.891C165.772 230.796 165.546 230.773 165.319 230.82C165.093 230.858 164.874 230.983 164.662 231.195ZM168.455 226.383C168.526 226.312 168.606 226.242 168.696 226.171C168.785 226.091 168.868 226.027 168.943 225.98L169.438 226.631C169.363 226.678 169.282 226.734 169.198 226.8C169.117 226.862 169.044 226.925 168.978 226.991C168.832 227.137 168.724 227.307 168.653 227.5C168.582 227.694 168.552 227.899 168.561 228.116C168.566 228.328 168.615 228.542 168.71 228.759C168.809 228.971 168.955 229.174 169.148 229.367L171.17 231.39L170.548 232.012L166.758 228.222L167.267 227.713L168.031 228.335L168.059 228.307C167.998 228.085 167.967 227.861 167.967 227.635C167.963 227.404 168 227.182 168.08 226.97C168.156 226.753 168.281 226.558 168.455 226.383ZM174.89 225.577C175.136 225.822 175.279 226.088 175.322 226.376C175.364 226.663 175.315 226.962 175.173 227.274C175.032 227.585 174.806 227.896 174.494 228.207C174.23 228.471 173.981 228.678 173.745 228.829C173.514 228.975 173.288 229.084 173.066 229.154L172.5 228.589C172.727 228.513 172.979 228.403 173.257 228.256C173.535 228.101 173.785 227.912 174.007 227.691C174.322 227.375 174.502 227.097 174.544 226.856C174.582 226.611 174.516 226.404 174.346 226.234C174.252 226.14 174.141 226.081 174.014 226.057C173.886 226.034 173.717 226.053 173.504 226.114C173.297 226.17 173.021 226.277 172.677 226.432C172.338 226.583 172.034 226.698 171.765 226.779C171.496 226.859 171.249 226.88 171.023 226.842C170.796 226.805 170.579 226.682 170.372 226.475C170.051 226.154 169.934 225.777 170.018 225.343C170.108 224.905 170.365 224.473 170.789 224.049C171.02 223.818 171.258 223.627 171.503 223.476C171.748 223.316 171.998 223.189 172.253 223.095L172.536 223.802C172.385 223.858 172.234 223.929 172.083 224.014C171.932 224.089 171.789 224.176 171.652 224.275C171.51 224.37 171.378 224.478 171.256 224.601C171.001 224.855 170.848 225.093 170.796 225.315C170.744 225.527 170.789 225.704 170.931 225.845C171.034 225.949 171.155 226.008 171.291 226.022C171.423 226.031 171.595 226.001 171.807 225.93C172.02 225.85 172.293 225.737 172.628 225.591C172.958 225.44 173.255 225.327 173.519 225.251C173.783 225.176 174.028 225.162 174.254 225.209C174.476 225.251 174.688 225.374 174.89 225.577ZM173.678 221.288C173.767 221.377 173.855 221.474 173.939 221.578C174.029 221.677 174.107 221.769 174.173 221.853L174.215 221.811C174.163 221.599 174.156 221.389 174.194 221.182C174.232 220.974 174.305 220.774 174.413 220.581C174.517 220.383 174.649 220.204 174.809 220.043C175.116 219.737 175.42 219.532 175.721 219.428C176.023 219.315 176.327 219.308 176.634 219.407C176.94 219.506 177.256 219.718 177.581 220.043L180.049 222.511L179.434 223.126L177.008 220.701C176.702 220.394 176.405 220.234 176.117 220.22C175.83 220.206 175.54 220.345 175.248 220.637C174.965 220.92 174.797 221.196 174.746 221.465C174.689 221.729 174.729 222 174.866 222.278C175.002 222.546 175.219 222.829 175.516 223.126L177.475 225.085L176.853 225.707L171.479 220.333L172.101 219.711L173.678 221.288ZM178.056 216.924L181.846 220.714L181.224 221.336L177.434 217.546L178.056 216.924ZM176.331 215.807C176.425 215.712 176.54 215.663 176.677 215.658C176.814 215.644 176.951 215.705 177.087 215.842C177.219 215.974 177.281 216.111 177.271 216.252C177.266 216.389 177.217 216.504 177.123 216.599C177.019 216.702 176.899 216.756 176.762 216.761C176.625 216.766 176.491 216.702 176.359 216.57C176.222 216.434 176.159 216.299 176.168 216.167C176.173 216.03 176.227 215.91 176.331 215.807ZM180.989 213.849C181.456 213.382 181.993 213.17 182.601 213.213C183.214 213.251 183.848 213.597 184.503 214.252C184.932 214.681 185.229 215.11 185.394 215.539C185.559 215.959 185.599 216.362 185.515 216.748C185.43 217.125 185.229 217.472 184.914 217.788C184.72 217.981 184.522 218.127 184.32 218.226C184.117 218.325 183.921 218.389 183.733 218.417C183.544 218.436 183.363 218.434 183.188 218.41L183.146 218.452C183.235 218.523 183.346 218.615 183.478 218.728C183.61 218.841 183.721 218.943 183.811 219.032L185.366 220.588L184.744 221.21L179.257 215.723L179.766 215.214L180.367 215.645L180.395 215.617C180.362 215.433 180.353 215.245 180.367 215.051C180.386 214.853 180.442 214.655 180.537 214.457C180.636 214.255 180.786 214.052 180.989 213.849ZM181.399 214.486C181.145 214.74 180.989 214.995 180.933 215.249C180.871 215.499 180.902 215.756 181.025 216.02C181.147 216.284 181.354 216.567 181.647 216.869L181.767 216.989C182.078 217.3 182.375 217.531 182.658 217.682C182.941 217.833 183.217 217.887 183.485 217.844C183.759 217.797 184.032 217.637 184.305 217.364C184.536 217.133 184.661 216.88 184.68 216.607C184.704 216.329 184.643 216.046 184.496 215.758C184.35 215.461 184.136 215.171 183.853 214.889C183.419 214.455 182.988 214.193 182.559 214.104C182.135 214.009 181.748 214.137 181.399 214.486ZM184.973 207.49C185.392 207.07 185.79 206.78 186.168 206.62C186.545 206.45 186.905 206.406 187.249 206.486C187.594 206.566 187.926 206.766 188.246 207.087C188.515 207.356 188.69 207.629 188.77 207.907C188.85 208.185 188.866 208.456 188.819 208.72C188.772 208.975 188.694 209.218 188.586 209.449L192.235 210.325L191.492 211.068L188.183 210.205L187.179 211.209L189.265 213.295L188.628 213.932L183.58 208.883L184.973 207.49ZM185.489 208.077L184.768 208.798L186.641 210.672L187.398 209.915C187.671 209.642 187.86 209.383 187.964 209.137C188.063 208.888 188.082 208.652 188.02 208.43C187.964 208.204 187.829 207.985 187.617 207.773C187.396 207.551 187.174 207.419 186.952 207.377C186.736 207.33 186.507 207.365 186.267 207.483C186.026 207.601 185.767 207.799 185.489 208.077ZM190.545 204.293C190.87 203.968 191.219 203.761 191.592 203.671C191.969 203.577 192.348 203.598 192.73 203.735C193.112 203.862 193.475 204.098 193.819 204.442L194.194 204.817L191.599 207.412C192.037 207.831 192.473 208.05 192.907 208.069C193.341 208.079 193.746 207.895 194.123 207.518C194.363 207.277 194.554 207.044 194.696 206.818C194.837 206.582 194.965 206.323 195.078 206.04L195.622 206.584C195.514 206.862 195.384 207.115 195.233 207.341C195.087 207.572 194.884 207.817 194.625 208.076C194.267 208.435 193.876 208.68 193.451 208.812C193.032 208.939 192.6 208.937 192.157 208.805C191.714 208.663 191.283 208.383 190.863 207.963C190.448 207.548 190.161 207.124 190.001 206.69C189.845 206.252 189.812 205.828 189.902 205.418C189.996 205.003 190.21 204.628 190.545 204.293ZM191.047 204.809C190.75 205.106 190.611 205.439 190.63 205.806C190.649 206.165 190.811 206.53 191.118 206.902L193.048 204.972C192.831 204.755 192.61 204.6 192.384 204.505C192.157 204.411 191.931 204.388 191.705 204.435C191.478 204.472 191.259 204.597 191.047 204.809ZM194.897 199.941C195.35 199.489 195.802 199.258 196.255 199.248C196.702 199.234 197.172 199.472 197.662 199.963L200.13 202.43L199.514 203.046L197.089 200.62C196.783 200.314 196.486 200.153 196.198 200.139C195.911 200.125 195.621 200.264 195.328 200.557C194.909 200.976 194.737 201.384 194.812 201.78C194.888 202.176 195.147 202.595 195.59 203.038L197.556 205.004L196.933 205.626L193.143 201.836L193.645 201.334L194.254 201.759L194.289 201.723C194.242 201.506 194.237 201.294 194.275 201.087C194.312 200.87 194.386 200.665 194.494 200.472C194.602 200.278 194.737 200.102 194.897 199.941ZM198.907 195.931C199.233 195.606 199.582 195.398 199.954 195.309C200.331 195.214 200.711 195.236 201.092 195.372C201.474 195.5 201.837 195.735 202.181 196.079L202.556 196.454L199.961 199.049C200.399 199.469 200.836 199.688 201.269 199.707C201.703 199.716 202.108 199.532 202.485 199.155C202.726 198.915 202.917 198.682 203.058 198.455C203.2 198.22 203.327 197.96 203.44 197.677L203.984 198.222C203.876 198.5 203.746 198.752 203.596 198.979C203.449 199.21 203.247 199.455 202.987 199.714C202.629 200.072 202.238 200.317 201.814 200.449C201.394 200.577 200.963 200.574 200.52 200.442C200.077 200.301 199.645 200.02 199.226 199.601C198.811 199.186 198.523 198.762 198.363 198.328C198.207 197.89 198.174 197.465 198.264 197.055C198.358 196.64 198.573 196.266 198.907 195.931ZM199.41 196.447C199.113 196.744 198.973 197.076 198.992 197.444C199.011 197.802 199.174 198.168 199.48 198.54L201.411 196.61C201.194 196.393 200.972 196.237 200.746 196.143C200.52 196.049 200.293 196.025 200.067 196.072C199.841 196.11 199.622 196.235 199.41 196.447ZM205.462 192.813C205.335 192.742 205.21 192.674 205.087 192.608C204.96 192.537 204.842 192.471 204.733 192.41C204.625 192.339 204.524 192.276 204.429 192.219C204.335 192.163 204.257 192.113 204.196 192.071L204.168 192.099C204.21 192.16 204.26 192.238 204.316 192.332C204.378 192.422 204.441 192.523 204.507 192.636C204.578 192.745 204.649 192.863 204.719 192.99C204.79 193.108 204.858 193.233 204.924 193.365L206.374 196.172L205.667 196.879L200.837 194.128L201.481 193.485L204.026 194.984C204.201 195.083 204.375 195.187 204.55 195.295C204.719 195.399 204.88 195.502 205.03 195.606C205.181 195.7 205.306 195.788 205.405 195.868L205.434 195.84C205.391 195.769 205.337 195.682 205.271 195.578C205.205 195.474 205.134 195.366 205.059 195.253C204.988 195.135 204.917 195.017 204.847 194.899C204.781 194.776 204.722 194.666 204.67 194.567L203.206 191.76L203.885 191.081L206.671 192.566C206.812 192.641 206.961 192.724 207.116 192.813C207.277 192.898 207.43 192.985 207.576 193.075C207.717 193.16 207.838 193.242 207.937 193.322L207.965 193.294C207.894 193.204 207.812 193.089 207.717 192.947C207.623 192.797 207.522 192.634 207.413 192.46C207.305 192.276 207.199 192.094 207.095 191.915L205.603 189.362L206.24 188.726L208.976 193.57L208.248 194.298L205.462 192.813Z" fill="#1D4861"/>
<path d="M194.641 245.23C195.061 244.81 195.452 244.499 195.815 244.297C196.183 244.089 196.529 244.007 196.855 244.049C197.185 244.087 197.503 244.259 197.809 244.565C198.007 244.763 198.146 244.978 198.226 245.209C198.306 245.43 198.325 245.666 198.283 245.916C198.24 246.156 198.134 246.399 197.965 246.644L198 246.68C198.245 246.5 198.497 246.371 198.757 246.291C199.021 246.206 199.285 246.196 199.549 246.262C199.813 246.328 200.077 246.493 200.341 246.757C200.647 247.064 200.838 247.396 200.913 247.754C200.984 248.108 200.944 248.473 200.793 248.85C200.642 249.218 200.385 249.583 200.022 249.946L198.248 251.721L193.199 246.673L194.641 245.23ZM196.918 247.252C197.352 246.819 197.581 246.453 197.604 246.156C197.623 245.855 197.496 245.567 197.222 245.294C196.944 245.016 196.647 244.917 196.331 244.997C196.015 245.067 195.643 245.317 195.214 245.746L194.38 246.581L195.985 248.186L196.918 247.252ZM196.515 248.716L198.347 250.547L199.365 249.529C199.813 249.081 200.037 248.683 200.037 248.334C200.037 247.985 199.895 247.67 199.612 247.387C199.433 247.208 199.238 247.092 199.025 247.04C198.818 246.984 198.587 247.012 198.332 247.125C198.078 247.229 197.795 247.436 197.484 247.747L196.515 248.716ZM202.139 240.249L205.93 244.039L205.42 244.548L204.826 244.138L204.798 244.167C204.85 244.379 204.855 244.591 204.812 244.803C204.77 245.015 204.692 245.215 204.579 245.404C204.471 245.597 204.334 245.776 204.169 245.941C203.867 246.243 203.565 246.451 203.264 246.564C202.962 246.667 202.658 246.67 202.352 246.571C202.045 246.472 201.732 246.262 201.411 245.941L198.929 243.459L199.558 242.83L201.998 245.27C202.3 245.571 202.594 245.729 202.882 245.743C203.169 245.758 203.457 245.621 203.745 245.333C204.027 245.05 204.197 244.777 204.254 244.513C204.31 244.24 204.27 243.969 204.133 243.7C203.997 243.422 203.782 243.137 203.49 242.844L201.517 240.871L202.139 240.249ZM208.554 239.322C208.799 239.567 208.943 239.833 208.985 240.121C209.028 240.408 208.978 240.708 208.837 241.019C208.695 241.33 208.469 241.641 208.158 241.952C207.894 242.216 207.644 242.424 207.409 242.574C207.178 242.721 206.951 242.829 206.73 242.9L206.164 242.334C206.39 242.259 206.642 242.148 206.921 242.002C207.199 241.846 207.449 241.658 207.67 241.436C207.986 241.12 208.165 240.842 208.208 240.602C208.245 240.356 208.179 240.149 208.01 239.979C207.915 239.885 207.805 239.826 207.677 239.803C207.55 239.779 207.38 239.798 207.168 239.859C206.961 239.916 206.685 240.022 206.341 240.177C206.001 240.328 205.697 240.444 205.429 240.524C205.16 240.604 204.912 240.625 204.686 240.587C204.46 240.55 204.243 240.427 204.036 240.22C203.715 239.899 203.597 239.522 203.682 239.088C203.772 238.65 204.029 238.219 204.453 237.794C204.684 237.563 204.922 237.372 205.167 237.222C205.412 237.061 205.662 236.934 205.917 236.84L206.199 237.547C206.049 237.603 205.898 237.674 205.747 237.759C205.596 237.834 205.452 237.922 205.315 238.021C205.174 238.115 205.042 238.223 204.92 238.346C204.665 238.601 204.512 238.839 204.46 239.06C204.408 239.272 204.453 239.449 204.594 239.59C204.698 239.694 204.818 239.753 204.955 239.767C205.087 239.777 205.259 239.746 205.471 239.675C205.683 239.595 205.957 239.482 206.291 239.336C206.621 239.185 206.918 239.072 207.182 238.996C207.446 238.921 207.691 238.907 207.918 238.954C208.139 238.996 208.351 239.119 208.554 239.322ZM207.349 235.04L211.139 238.83L210.516 239.452L206.726 235.662L207.349 235.04ZM205.623 233.923C205.717 233.829 205.833 233.779 205.97 233.774C206.106 233.76 206.243 233.822 206.38 233.958C206.512 234.09 206.573 234.227 206.564 234.368C206.559 234.505 206.509 234.621 206.415 234.715C206.311 234.819 206.191 234.873 206.055 234.877C205.918 234.882 205.783 234.819 205.651 234.687C205.515 234.55 205.451 234.415 205.461 234.284C205.465 234.147 205.519 234.027 205.623 233.923ZM210.303 231.944C210.755 231.492 211.208 231.261 211.661 231.251C212.108 231.237 212.577 231.475 213.068 231.966L215.536 234.433L214.92 235.049L212.495 232.623C212.189 232.317 211.892 232.156 211.604 232.142C211.316 232.128 211.027 232.267 210.734 232.559C210.315 232.979 210.143 233.387 210.218 233.783C210.293 234.179 210.553 234.598 210.996 235.041L212.962 237.007L212.339 237.629L208.549 233.839L209.051 233.337L209.659 233.762L209.695 233.726C209.648 233.509 209.643 233.297 209.681 233.09C209.718 232.873 209.791 232.668 209.9 232.475C210.008 232.281 210.143 232.105 210.303 231.944ZM214.313 227.934C214.639 227.609 214.987 227.401 215.36 227.312C215.737 227.217 216.116 227.239 216.498 227.375C216.88 227.503 217.243 227.738 217.587 228.082L217.962 228.457L215.367 231.052C215.805 231.472 216.241 231.691 216.675 231.71C217.109 231.719 217.514 231.535 217.891 231.158C218.132 230.918 218.323 230.684 218.464 230.458C218.606 230.223 218.733 229.963 218.846 229.68L219.39 230.225C219.282 230.503 219.152 230.755 219.001 230.981C218.855 231.212 218.653 231.458 218.393 231.717C218.035 232.075 217.644 232.32 217.22 232.452C216.8 232.58 216.369 232.577 215.926 232.445C215.482 232.304 215.051 232.023 214.632 231.604C214.217 231.189 213.929 230.765 213.769 230.331C213.613 229.893 213.58 229.468 213.67 229.058C213.764 228.643 213.979 228.269 214.313 227.934ZM214.815 228.45C214.518 228.747 214.379 229.079 214.398 229.447C214.417 229.805 214.58 230.171 214.886 230.543L216.817 228.613C216.6 228.396 216.378 228.24 216.152 228.146C215.926 228.052 215.699 228.028 215.473 228.075C215.247 228.113 215.028 228.238 214.815 228.45ZM222.123 225.753C222.368 225.998 222.512 226.264 222.554 226.552C222.597 226.839 222.547 227.139 222.406 227.45C222.264 227.761 222.038 228.072 221.727 228.383C221.463 228.647 221.213 228.855 220.978 229.005C220.747 229.152 220.52 229.26 220.299 229.331L219.733 228.765C219.959 228.69 220.211 228.579 220.49 228.433C220.768 228.277 221.018 228.089 221.239 227.867C221.555 227.551 221.734 227.273 221.777 227.033C221.814 226.787 221.748 226.58 221.579 226.41C221.484 226.316 221.373 226.257 221.246 226.234C221.119 226.21 220.949 226.229 220.737 226.29C220.53 226.347 220.254 226.453 219.91 226.608C219.57 226.759 219.266 226.875 218.998 226.955C218.729 227.035 218.481 227.056 218.255 227.018C218.029 226.981 217.812 226.858 217.605 226.651C217.284 226.33 217.166 225.953 217.251 225.519C217.341 225.081 217.598 224.65 218.022 224.225C218.253 223.994 218.491 223.803 218.736 223.653C218.981 223.492 219.231 223.365 219.486 223.271L219.768 223.978C219.618 224.034 219.467 224.105 219.316 224.19C219.165 224.265 219.021 224.353 218.884 224.452C218.743 224.546 218.611 224.654 218.488 224.777C218.234 225.032 218.081 225.27 218.029 225.491C217.977 225.703 218.022 225.88 218.163 226.021C218.267 226.125 218.387 226.184 218.524 226.198C218.656 226.208 218.828 226.177 219.04 226.106C219.252 226.026 219.526 225.913 219.86 225.767C220.19 225.616 220.487 225.503 220.751 225.427C221.015 225.352 221.26 225.338 221.487 225.385C221.708 225.427 221.92 225.55 222.123 225.753ZM225.507 222.369C225.752 222.614 225.896 222.881 225.938 223.168C225.98 223.456 225.931 223.755 225.789 224.066C225.648 224.377 225.422 224.688 225.111 225C224.847 225.264 224.597 225.471 224.361 225.622C224.13 225.768 223.904 225.876 223.682 225.947L223.117 225.381C223.343 225.306 223.595 225.195 223.873 225.049C224.151 224.894 224.401 224.705 224.623 224.483C224.939 224.168 225.118 223.889 225.16 223.649C225.198 223.404 225.132 223.196 224.962 223.027C224.868 222.932 224.757 222.874 224.63 222.85C224.503 222.826 224.333 222.845 224.121 222.907C223.913 222.963 223.638 223.069 223.293 223.225C222.954 223.376 222.65 223.491 222.381 223.571C222.113 223.651 221.865 223.673 221.639 223.635C221.412 223.597 221.196 223.475 220.988 223.267C220.668 222.947 220.55 222.569 220.635 222.136C220.724 221.697 220.981 221.266 221.405 220.842C221.636 220.611 221.874 220.42 222.12 220.269C222.365 220.109 222.615 219.981 222.869 219.887L223.152 220.594C223.001 220.651 222.85 220.722 222.699 220.806C222.549 220.882 222.405 220.969 222.268 221.068C222.127 221.162 221.995 221.271 221.872 221.393C221.618 221.648 221.464 221.886 221.412 222.108C221.361 222.32 221.405 222.496 221.547 222.638C221.651 222.742 221.771 222.8 221.907 222.815C222.039 222.824 222.212 222.793 222.424 222.723C222.636 222.643 222.909 222.529 223.244 222.383C223.574 222.232 223.871 222.119 224.135 222.044C224.399 221.968 224.644 221.954 224.87 222.001C225.092 222.044 225.304 222.166 225.507 222.369ZM232.074 217.895L225.986 215.13L225.957 215.159C226.061 215.243 226.188 215.357 226.339 215.498C226.495 215.635 226.662 215.788 226.841 215.958C227.016 216.123 227.192 216.295 227.372 216.474L230.433 219.536L229.846 220.122L224.798 215.074L225.738 214.133L231.43 216.714L231.459 216.686L228.906 210.965L229.839 210.032L234.888 215.081L234.259 215.71L231.155 212.606C230.99 212.441 230.829 212.276 230.674 212.111C230.513 211.941 230.367 211.781 230.235 211.63C230.099 211.475 229.983 211.345 229.889 211.241L229.861 211.269L232.597 217.372L232.074 217.895ZM233.758 208.503C234.22 208.041 234.663 207.801 235.088 207.782C235.512 207.763 235.946 207.975 236.389 208.418L238.97 210.999L238.517 211.452L237.86 211.034L237.831 211.063C237.86 211.308 237.862 211.537 237.838 211.749C237.815 211.951 237.749 212.149 237.64 212.343C237.537 212.531 237.379 212.732 237.167 212.944C236.94 213.17 236.695 213.335 236.431 213.439C236.172 213.538 235.908 213.557 235.639 213.495C235.366 213.429 235.102 213.269 234.847 213.014C234.47 212.637 234.329 212.199 234.423 211.699C234.513 211.195 234.857 210.624 235.455 209.988L236.078 209.323L235.851 209.097C235.535 208.781 235.248 208.63 234.989 208.644C234.729 208.659 234.475 208.791 234.225 209.04C234.027 209.238 233.869 209.458 233.751 209.698C233.629 209.934 233.527 210.167 233.447 210.398L232.79 210.122C232.865 209.868 232.985 209.597 233.15 209.309C233.31 209.017 233.513 208.748 233.758 208.503ZM235.964 210.342C235.512 210.832 235.26 211.235 235.208 211.551C235.161 211.862 235.257 212.138 235.498 212.378C235.71 212.59 235.929 212.682 236.155 212.654C236.386 212.621 236.603 212.503 236.806 212.3C237.126 211.98 237.306 211.626 237.343 211.24C237.376 210.848 237.209 210.469 236.841 210.101L236.502 209.762L235.964 210.342ZM240.968 208.124C241.062 208.03 241.151 207.926 241.236 207.813C241.316 207.695 241.378 207.596 241.42 207.516L241.894 207.99C241.861 208.089 241.793 208.209 241.689 208.351C241.59 208.497 241.484 208.626 241.371 208.74C241.173 208.938 240.956 209.088 240.72 209.192C240.484 209.286 240.23 209.301 239.956 209.235C239.683 209.169 239.393 208.982 239.087 208.676L236.881 206.47L236.343 207.007L236.046 206.71L236.343 205.918L235.784 204.865L236.152 204.497L237.022 205.367L238.118 204.271L238.599 204.752L237.503 205.848L239.695 208.04C239.926 208.271 240.152 208.388 240.374 208.393C240.595 208.388 240.793 208.299 240.968 208.124ZM244.286 205.824C243.952 206.159 243.584 206.39 243.183 206.517C242.787 206.64 242.37 206.632 241.932 206.496C241.498 206.354 241.057 206.06 240.609 205.612C240.143 205.145 239.841 204.688 239.704 204.24C239.567 203.792 239.563 203.368 239.69 202.967C239.822 202.562 240.058 202.189 240.397 201.85C240.59 201.657 240.798 201.492 241.019 201.355C241.236 201.214 241.43 201.115 241.599 201.058L241.925 201.765C241.769 201.836 241.597 201.928 241.408 202.041C241.22 202.154 241.059 202.277 240.927 202.409C240.673 202.663 240.517 202.927 240.461 203.201C240.404 203.474 240.442 203.757 240.574 204.049C240.706 204.341 240.93 204.645 241.246 204.961C241.547 205.263 241.844 205.48 242.137 205.612C242.429 205.744 242.709 205.784 242.978 205.732C243.247 205.68 243.501 205.534 243.742 205.294C243.949 205.086 244.109 204.884 244.223 204.686C244.34 204.483 244.435 204.285 244.505 204.092L245.057 204.643C244.996 204.836 244.904 205.027 244.781 205.216C244.668 205.404 244.503 205.607 244.286 205.824ZM242.918 199.457C243.007 199.546 243.095 199.643 243.179 199.747C243.269 199.846 243.347 199.938 243.413 200.022L243.455 199.98C243.403 199.768 243.396 199.558 243.434 199.351C243.472 199.143 243.545 198.943 243.653 198.75C243.757 198.552 243.889 198.372 244.049 198.212C244.356 197.906 244.66 197.701 244.961 197.597C245.263 197.484 245.567 197.477 245.873 197.576C246.18 197.675 246.496 197.887 246.821 198.212L249.289 200.68L248.674 201.295L246.248 198.87C245.942 198.563 245.645 198.403 245.357 198.389C245.07 198.375 244.78 198.514 244.488 198.806C244.205 199.089 244.037 199.365 243.985 199.634C243.929 199.897 243.969 200.169 244.106 200.447C244.242 200.715 244.459 200.998 244.756 201.295L246.715 203.254L246.093 203.876L240.719 198.502L241.341 197.88L242.918 199.457ZM247.296 195.093L251.086 198.883L250.464 199.505L246.674 195.715L247.296 195.093ZM245.571 193.975C245.665 193.881 245.78 193.832 245.917 193.827C246.054 193.813 246.19 193.874 246.327 194.011C246.459 194.143 246.52 194.28 246.511 194.421C246.506 194.558 246.457 194.673 246.363 194.767C246.259 194.871 246.139 194.925 246.002 194.93C245.865 194.935 245.731 194.871 245.599 194.739C245.462 194.602 245.399 194.468 245.408 194.336C245.413 194.199 245.467 194.079 245.571 193.975ZM250.25 191.997C250.703 191.544 251.155 191.313 251.608 191.304C252.056 191.29 252.525 191.528 253.015 192.018L255.483 194.486L254.868 195.101L252.442 192.676C252.136 192.369 251.839 192.209 251.551 192.195C251.264 192.181 250.974 192.32 250.682 192.612C250.262 193.032 250.09 193.439 250.165 193.835C250.241 194.231 250.5 194.651 250.943 195.094L252.909 197.06L252.287 197.682L248.497 193.892L248.999 193.39L249.607 193.814L249.642 193.779C249.595 193.562 249.59 193.35 249.628 193.142C249.666 192.926 249.739 192.721 249.847 192.527C249.956 192.334 250.09 192.157 250.25 191.997ZM254.141 188.107C254.39 187.857 254.661 187.68 254.954 187.576C255.251 187.468 255.567 187.44 255.901 187.491L255.937 187.456L255.519 186.869L256.014 186.374L259.868 190.228C260.226 190.586 260.464 190.947 260.582 191.31C260.705 191.678 260.702 192.048 260.575 192.42C260.448 192.792 260.191 193.172 259.804 193.558C259.531 193.832 259.258 194.063 258.984 194.251C258.72 194.44 258.459 194.584 258.199 194.683L257.627 194.11C257.81 194.049 257.997 193.966 258.185 193.863C258.378 193.764 258.572 193.641 258.765 193.495C258.958 193.349 259.145 193.186 259.324 193.007C259.649 192.682 259.807 192.33 259.797 191.953C259.797 191.576 259.632 191.223 259.302 190.893L259.154 190.744C259.097 190.688 259.02 190.605 258.921 190.497C258.817 190.384 258.746 190.303 258.708 190.256L258.68 190.285C258.741 190.61 258.72 190.919 258.617 191.211C258.518 191.498 258.338 191.772 258.079 192.031C257.589 192.521 257.033 192.734 256.41 192.668C255.793 192.597 255.175 192.253 254.558 191.635C254.152 191.23 253.865 190.82 253.695 190.405C253.525 189.981 253.476 189.573 253.547 189.181C253.617 188.79 253.815 188.432 254.141 188.107ZM254.749 188.545C254.537 188.757 254.412 188.995 254.374 189.259C254.341 189.519 254.393 189.797 254.529 190.094C254.671 190.386 254.897 190.688 255.208 190.999C255.675 191.465 256.118 191.739 256.538 191.819C256.957 191.89 257.332 191.76 257.662 191.43C257.855 191.237 257.997 191.048 258.086 190.864C258.171 190.676 258.206 190.485 258.192 190.292C258.173 190.094 258.103 189.891 257.98 189.684C257.858 189.476 257.683 189.259 257.457 189.033L257.308 188.884C256.964 188.54 256.646 188.302 256.354 188.17C256.066 188.034 255.79 187.998 255.526 188.064C255.262 188.13 255.003 188.291 254.749 188.545Z" fill="#1D4861"/>
<path d="M268.828 235.556L263.779 230.508L264.416 229.871L268.899 234.354L271.105 232.148L271.671 232.714L268.828 235.556ZM270.054 226.609C270.38 226.283 270.729 226.076 271.101 225.986C271.478 225.892 271.858 225.913 272.239 226.05C272.621 226.177 272.984 226.413 273.328 226.757L273.703 227.132L271.108 229.727C271.546 230.146 271.982 230.366 272.416 230.385C272.85 230.394 273.255 230.21 273.632 229.833C273.873 229.593 274.064 229.359 274.205 229.133C274.347 228.897 274.474 228.638 274.587 228.355L275.131 228.9C275.023 229.178 274.893 229.43 274.743 229.656C274.596 229.887 274.394 230.132 274.134 230.392C273.776 230.75 273.385 230.995 272.961 231.127C272.541 231.254 272.11 231.252 271.667 231.12C271.224 230.979 270.792 230.698 270.373 230.278C269.958 229.864 269.67 229.439 269.51 229.006C269.354 228.567 269.321 228.143 269.411 227.733C269.505 227.318 269.72 226.943 270.054 226.609ZM270.557 227.125C270.26 227.422 270.12 227.754 270.139 228.122C270.158 228.48 270.321 228.845 270.627 229.218L272.558 227.287C272.341 227.071 272.119 226.915 271.893 226.821C271.667 226.726 271.44 226.703 271.214 226.75C270.988 226.788 270.769 226.913 270.557 227.125ZM273.926 222.738C274.175 222.488 274.446 222.311 274.739 222.207C275.036 222.099 275.352 222.07 275.686 222.122L275.722 222.087L275.304 221.5L275.799 221.005L279.653 224.859C280.011 225.217 280.249 225.578 280.367 225.941C280.49 226.308 280.487 226.678 280.36 227.051C280.233 227.423 279.976 227.803 279.589 228.189C279.316 228.463 279.043 228.694 278.769 228.882C278.505 229.071 278.244 229.215 277.984 229.314L277.412 228.741C277.595 228.68 277.782 228.597 277.97 228.493C278.163 228.394 278.357 228.272 278.55 228.126C278.743 227.98 278.929 227.817 279.109 227.638C279.434 227.312 279.592 226.961 279.582 226.584C279.582 226.207 279.417 225.853 279.087 225.524L278.939 225.375C278.882 225.318 278.805 225.236 278.706 225.128C278.602 225.014 278.531 224.934 278.493 224.887L278.465 224.915C278.526 225.241 278.505 225.549 278.402 225.842C278.303 226.129 278.123 226.403 277.864 226.662C277.374 227.152 276.818 227.364 276.195 227.298C275.578 227.228 274.96 226.884 274.343 226.266C273.937 225.861 273.65 225.45 273.48 225.036C273.31 224.611 273.261 224.204 273.332 223.812C273.402 223.421 273.6 223.063 273.926 222.738ZM274.534 223.176C274.322 223.388 274.197 223.626 274.159 223.89C274.126 224.149 274.178 224.427 274.314 224.724C274.456 225.017 274.682 225.318 274.993 225.63C275.46 226.096 275.903 226.37 276.323 226.45C276.742 226.521 277.117 226.391 277.447 226.061C277.64 225.868 277.782 225.679 277.871 225.495C277.956 225.307 277.991 225.116 277.977 224.922C277.958 224.724 277.888 224.522 277.765 224.314C277.643 224.107 277.468 223.89 277.242 223.664L277.093 223.515C276.749 223.171 276.431 222.933 276.139 222.801C275.851 222.664 275.575 222.629 275.311 222.695C275.047 222.761 274.788 222.921 274.534 223.176ZM278.375 218.302C278.837 217.84 279.28 217.6 279.704 217.581C280.129 217.562 280.562 217.774 281.005 218.217L283.586 220.798L283.134 221.251L282.476 220.834L282.448 220.862C282.476 221.107 282.478 221.336 282.455 221.548C282.431 221.751 282.365 221.949 282.257 222.142C282.153 222.33 281.995 222.531 281.783 222.743C281.557 222.969 281.312 223.134 281.048 223.238C280.788 223.337 280.524 223.356 280.256 223.294C279.982 223.228 279.718 223.068 279.464 222.814C279.087 222.437 278.945 221.998 279.04 221.498C279.129 220.994 279.473 220.424 280.072 219.787L280.694 219.123L280.468 218.896C280.152 218.58 279.865 218.43 279.605 218.444C279.346 218.458 279.091 218.59 278.842 218.84C278.644 219.038 278.486 219.257 278.368 219.497C278.245 219.733 278.144 219.966 278.064 220.197L277.406 219.922C277.482 219.667 277.602 219.396 277.767 219.108C277.927 218.816 278.13 218.547 278.375 218.302ZM280.581 220.141C280.129 220.631 279.876 221.034 279.824 221.35C279.777 221.661 279.874 221.937 280.114 222.177C280.327 222.389 280.546 222.481 280.772 222.453C281.003 222.42 281.22 222.302 281.423 222.099C281.743 221.779 281.922 221.425 281.96 221.039C281.993 220.648 281.826 220.268 281.458 219.9L281.118 219.561L280.581 220.141ZM285.379 219.006L284.757 219.628L279.383 214.254L280.005 213.632L285.379 219.006ZM289.324 212.359C289.626 212.661 289.81 212.991 289.876 213.349C289.937 213.703 289.888 214.073 289.727 214.459C289.572 214.841 289.31 215.216 288.942 215.584C288.754 215.772 288.563 215.944 288.37 216.1C288.181 216.251 288 216.38 287.825 216.489C287.646 216.592 287.476 216.673 287.316 216.729L286.708 216.121C286.953 216.027 287.231 215.885 287.542 215.697C287.858 215.504 288.15 215.273 288.419 215.004C288.669 214.754 288.846 214.511 288.949 214.276C289.053 214.04 289.086 213.818 289.048 213.611C289.011 213.403 288.909 213.217 288.744 213.052C288.579 212.887 288.405 212.784 288.221 212.741C288.037 212.699 287.811 212.718 287.542 212.798C287.274 212.868 286.932 213.003 286.517 213.201C286.22 213.337 285.944 213.444 285.69 213.519C285.435 213.585 285.195 213.613 284.968 213.604C284.742 213.594 284.525 213.543 284.318 213.448C284.115 213.349 283.915 213.201 283.717 213.003C283.448 212.734 283.288 212.437 283.236 212.112C283.179 211.782 283.22 211.445 283.356 211.101C283.498 210.752 283.726 210.419 284.042 210.104C284.32 209.825 284.601 209.597 284.884 209.418C285.166 209.239 285.445 209.097 285.718 208.993L286.064 209.736C285.815 209.835 285.56 209.962 285.301 210.118C285.046 210.269 284.808 210.455 284.587 210.676C284.374 210.889 284.228 211.096 284.148 211.299C284.068 211.501 284.049 211.695 284.092 211.878C284.129 212.058 284.221 212.22 284.367 212.366C284.537 212.536 284.714 212.642 284.898 212.685C285.082 212.727 285.298 212.713 285.548 212.642C285.798 212.571 286.112 212.451 286.489 212.282C286.894 212.093 287.262 211.961 287.592 211.886C287.922 211.801 288.226 211.794 288.504 211.864C288.787 211.93 289.06 212.095 289.324 212.359ZM289.21 207.453C289.535 207.128 289.884 206.92 290.256 206.831C290.634 206.737 291.013 206.758 291.395 206.895C291.777 207.022 292.14 207.258 292.484 207.602L292.859 207.976L290.263 210.572C290.702 210.991 291.138 211.21 291.572 211.229C292.005 211.239 292.411 211.055 292.788 210.678C293.028 210.437 293.219 210.204 293.361 209.978C293.502 209.742 293.629 209.483 293.742 209.2L294.287 209.744C294.178 210.022 294.049 210.275 293.898 210.501C293.752 210.732 293.549 210.977 293.29 211.236C292.932 211.594 292.54 211.84 292.116 211.972C291.697 212.099 291.265 212.097 290.822 211.965C290.379 211.823 289.948 211.543 289.528 211.123C289.113 210.708 288.826 210.284 288.665 209.85C288.51 209.412 288.477 208.988 288.566 208.577C288.661 208.163 288.875 207.788 289.21 207.453ZM289.712 207.969C289.415 208.266 289.276 208.599 289.295 208.966C289.314 209.325 289.476 209.69 289.783 210.062L291.713 208.132C291.496 207.915 291.275 207.76 291.048 207.665C290.822 207.571 290.596 207.547 290.37 207.595C290.143 207.632 289.924 207.757 289.712 207.969ZM293.505 203.158C293.576 203.087 293.656 203.016 293.746 202.946C293.835 202.866 293.918 202.802 293.993 202.755L294.488 203.405C294.413 203.452 294.333 203.509 294.248 203.575C294.168 203.636 294.094 203.7 294.028 203.766C293.882 203.912 293.774 204.082 293.703 204.275C293.632 204.468 293.602 204.673 293.611 204.89C293.616 205.102 293.665 205.317 293.76 205.534C293.859 205.746 294.005 205.949 294.198 206.142L296.22 208.164L295.598 208.786L291.808 204.996L292.317 204.487L293.081 205.109L293.109 205.081C293.048 204.86 293.017 204.636 293.017 204.409C293.013 204.178 293.05 203.957 293.13 203.745C293.206 203.528 293.331 203.332 293.505 203.158ZM299.354 205.031L294.128 202.676L294.793 202.012L297.833 203.44C297.975 203.506 298.13 203.581 298.3 203.666C298.47 203.751 298.63 203.836 298.781 203.921C298.927 204.001 299.047 204.074 299.141 204.14L299.17 204.112C299.108 204.013 299.035 203.888 298.951 203.737C298.87 203.581 298.788 203.419 298.703 203.249C298.623 203.075 298.55 202.922 298.484 202.79L297.055 199.749L297.72 199.084L300.068 204.317L299.354 205.031ZM298.942 197.862L302.732 201.652L302.11 202.275L298.32 198.485L298.942 197.862ZM297.217 196.745C297.311 196.651 297.427 196.601 297.563 196.597C297.7 196.582 297.837 196.644 297.973 196.78C298.105 196.912 298.167 197.049 298.157 197.191C298.153 197.327 298.103 197.443 298.009 197.537C297.905 197.641 297.785 197.695 297.648 197.7C297.511 197.704 297.377 197.641 297.245 197.509C297.108 197.372 297.045 197.238 297.054 197.106C297.059 196.969 297.113 196.849 297.217 196.745ZM305.524 199.002C305.189 199.337 304.822 199.568 304.421 199.695C304.025 199.818 303.608 199.811 303.169 199.674C302.736 199.532 302.295 199.238 301.847 198.79C301.38 198.323 301.079 197.866 300.942 197.418C300.805 196.97 300.801 196.546 300.928 196.145C301.06 195.74 301.295 195.368 301.635 195.028C301.828 194.835 302.036 194.67 302.257 194.533C302.474 194.392 302.667 194.293 302.837 194.236L303.162 194.943C303.007 195.014 302.835 195.106 302.646 195.219C302.457 195.332 302.297 195.455 302.165 195.587C301.911 195.841 301.755 196.105 301.699 196.379C301.642 196.652 301.68 196.935 301.812 197.227C301.944 197.52 302.168 197.824 302.483 198.139C302.785 198.441 303.082 198.658 303.374 198.79C303.667 198.922 303.947 198.962 304.216 198.91C304.485 198.858 304.739 198.712 304.98 198.472C305.187 198.264 305.347 198.062 305.46 197.864C305.578 197.661 305.672 197.463 305.743 197.27L306.295 197.821C306.233 198.015 306.142 198.205 306.019 198.394C305.906 198.583 305.741 198.785 305.524 199.002ZM304.933 191.73C305.259 191.404 305.607 191.197 305.98 191.107C306.357 191.013 306.736 191.034 307.118 191.171C307.5 191.298 307.863 191.534 308.207 191.878L308.582 192.253L305.987 194.848C306.425 195.268 306.861 195.487 307.295 195.506C307.729 195.515 308.134 195.331 308.511 194.954C308.752 194.714 308.943 194.48 309.084 194.254C309.225 194.018 309.353 193.759 309.466 193.476L310.01 194.021C309.902 194.299 309.772 194.551 309.621 194.777C309.475 195.008 309.273 195.253 309.013 195.513C308.655 195.871 308.264 196.116 307.84 196.248C307.42 196.375 306.989 196.373 306.546 196.241C306.102 196.1 305.671 195.819 305.252 195.4C304.837 194.985 304.549 194.561 304.389 194.127C304.233 193.688 304.2 193.264 304.29 192.854C304.384 192.439 304.599 192.064 304.933 191.73ZM305.435 192.246C305.138 192.543 304.999 192.875 305.018 193.243C305.037 193.601 305.2 193.967 305.506 194.339L307.436 192.409C307.22 192.192 306.998 192.036 306.772 191.942C306.546 191.848 306.319 191.824 306.093 191.871C305.867 191.909 305.648 192.034 305.435 192.246ZM312.743 189.549C312.988 189.794 313.132 190.06 313.174 190.348C313.217 190.635 313.167 190.935 313.026 191.246C312.884 191.557 312.658 191.868 312.347 192.179C312.083 192.443 311.833 192.65 311.597 192.801C311.366 192.947 311.14 193.056 310.919 193.127L310.353 192.561C310.579 192.485 310.831 192.375 311.11 192.229C311.388 192.073 311.638 191.884 311.859 191.663C312.175 191.347 312.354 191.069 312.397 190.828C312.434 190.583 312.368 190.376 312.199 190.206C312.104 190.112 311.993 190.053 311.866 190.029C311.739 190.006 311.569 190.025 311.357 190.086C311.15 190.143 310.874 190.249 310.53 190.404C310.19 190.555 309.886 190.671 309.618 190.751C309.349 190.831 309.101 190.852 308.875 190.814C308.649 190.777 308.432 190.654 308.225 190.447C307.904 190.126 307.786 189.749 307.871 189.315C307.961 188.877 308.218 188.446 308.642 188.021C308.873 187.79 309.111 187.599 309.356 187.449C309.601 187.288 309.851 187.161 310.105 187.067L310.388 187.774C310.237 187.83 310.087 187.901 309.936 187.986C309.785 188.061 309.641 188.149 309.504 188.248C309.363 188.342 309.231 188.45 309.108 188.573C308.854 188.827 308.701 189.065 308.649 189.287C308.597 189.499 308.642 189.676 308.783 189.817C308.887 189.921 309.007 189.98 309.144 189.994C309.276 190.004 309.448 189.973 309.66 189.902C309.872 189.822 310.146 189.709 310.48 189.563C310.81 189.412 311.107 189.299 311.371 189.223C311.635 189.148 311.88 189.134 312.107 189.181C312.328 189.223 312.54 189.346 312.743 189.549Z" fill="#1D4861"/>
<rect x="0.5" y="0.5" width="359" height="287" rx="1.5" stroke="#DDDCEA"/>
</svg>
