<svg width="438" height="288" viewBox="0 0 438 288" fill="none" xmlns="http://www.w3.org/2000/svg">
<rect x="0.5" y="0.5" width="437" height="287" rx="2.5" fill="white"/>
<path d="M127 33C142.781 33 158.338 36.7349 172.399 43.8993C186.46 51.0638 198.626 61.4543 207.902 74.2215C217.178 86.9886 223.3 101.77 225.769 117.357C228.238 132.943 226.982 148.893 222.106 163.902L203.085 157.721C206.986 145.714 207.99 132.955 206.015 120.485C204.04 108.016 199.142 96.1909 191.721 85.9772C184.301 75.7635 174.568 67.451 163.319 61.7195C152.07 55.9879 139.625 53 127 53V33Z" fill="#E86D38"/>
<path d="M222.104 163.907C217.226 178.916 208.866 192.557 197.706 203.715C186.547 214.873 172.905 223.232 157.896 228.108C142.887 232.983 126.937 234.238 111.351 231.768C95.764 229.298 80.9832 223.175 68.2166 213.898L79.9733 197.719C90.1865 205.14 102.011 210.039 114.48 212.014C126.95 213.99 139.71 212.987 151.717 209.086C163.724 205.185 174.637 198.499 183.565 189.572C192.493 180.645 199.181 169.733 203.083 157.726L222.104 163.907Z" fill="#D9D9D9"/>
<path d="M68.2389 213.914C51.1514 201.505 38.4311 184.005 31.901 163.922C25.3709 143.839 25.3662 122.204 31.8877 102.119L50.9102 108.295C45.693 124.364 45.6967 141.671 50.9208 157.738C56.1449 173.804 66.3211 187.804 79.9911 197.731L68.2389 213.914Z" fill="#FFC700"/>
<path d="M31.9 102.081C38.4295 81.9977 51.1493 64.4972 68.2363 52.0875C85.3233 39.6779 105.9 32.9961 127.018 33L127.015 53C110.12 52.9969 93.6587 58.3423 79.989 68.27C66.3194 78.1978 56.1436 92.1982 50.92 108.265L31.9 102.081Z" fill="#76BC21"/>
<path d="M116.876 121H115.796V113.38H113.12V112.432H119.54V113.38H116.876V121ZM125.436 117.772C125.436 118.308 125.364 118.784 125.22 119.2C125.084 119.608 124.884 119.956 124.62 120.244C124.364 120.532 124.048 120.752 123.672 120.904C123.304 121.048 122.892 121.12 122.436 121.12C122.012 121.12 121.62 121.048 121.26 120.904C120.9 120.752 120.588 120.532 120.324 120.244C120.06 119.956 119.852 119.608 119.7 119.2C119.556 118.784 119.484 118.308 119.484 117.772C119.484 117.06 119.604 116.46 119.844 115.972C120.084 115.476 120.428 115.1 120.876 114.844C121.324 114.58 121.856 114.448 122.472 114.448C123.056 114.448 123.568 114.58 124.008 114.844C124.456 115.1 124.804 115.476 125.052 115.972C125.308 116.46 125.436 117.06 125.436 117.772ZM120.576 117.772C120.576 118.276 120.64 118.716 120.768 119.092C120.904 119.46 121.112 119.744 121.392 119.944C121.672 120.144 122.028 120.244 122.46 120.244C122.892 120.244 123.248 120.144 123.528 119.944C123.808 119.744 124.012 119.46 124.14 119.092C124.276 118.716 124.344 118.276 124.344 117.772C124.344 117.26 124.276 116.824 124.14 116.464C124.004 116.104 123.796 115.828 123.516 115.636C123.244 115.436 122.888 115.336 122.448 115.336C121.792 115.336 121.316 115.552 121.02 115.984C120.724 116.416 120.576 117.012 120.576 117.772ZM129.258 120.256C129.418 120.256 129.582 120.244 129.75 120.22C129.918 120.188 130.054 120.156 130.158 120.124V120.928C130.046 120.984 129.886 121.028 129.678 121.06C129.47 121.1 129.27 121.12 129.078 121.12C128.742 121.12 128.43 121.064 128.142 120.952C127.862 120.832 127.634 120.628 127.458 120.34C127.282 120.052 127.194 119.648 127.194 119.128V115.384H126.282V114.88L127.206 114.46L127.626 113.092H128.25V114.568H130.11V115.384H128.25V119.104C128.25 119.496 128.342 119.788 128.526 119.98C128.718 120.164 128.962 120.256 129.258 120.256ZM133.882 114.46C134.666 114.46 135.246 114.632 135.622 114.976C135.998 115.32 136.186 115.868 136.186 116.62V121H135.418L135.214 120.088H135.166C134.982 120.32 134.79 120.516 134.59 120.676C134.398 120.828 134.174 120.94 133.918 121.012C133.67 121.084 133.366 121.12 133.006 121.12C132.622 121.12 132.274 121.052 131.962 120.916C131.658 120.78 131.418 120.572 131.242 120.292C131.066 120.004 130.978 119.644 130.978 119.212C130.978 118.572 131.23 118.08 131.734 117.736C132.238 117.384 133.014 117.192 134.062 117.16L135.154 117.124V116.74C135.154 116.204 135.038 115.832 134.806 115.624C134.574 115.416 134.246 115.312 133.822 115.312C133.486 115.312 133.166 115.364 132.862 115.468C132.558 115.564 132.274 115.676 132.01 115.804L131.686 115.012C131.966 114.86 132.298 114.732 132.682 114.628C133.066 114.516 133.466 114.46 133.882 114.46ZM134.194 117.892C133.394 117.924 132.838 118.052 132.526 118.276C132.222 118.5 132.07 118.816 132.07 119.224C132.07 119.584 132.178 119.848 132.394 120.016C132.618 120.184 132.902 120.268 133.246 120.268C133.79 120.268 134.242 120.12 134.602 119.824C134.962 119.52 135.142 119.056 135.142 118.432V117.856L134.194 117.892ZM139.228 121H138.172V111.88H139.228V121Z" fill="#4E5969"/>
<path d="M126.072 152H114.6C114.616 150.608 114.952 149.392 115.608 148.352C116.264 147.312 117.16 146.408 118.296 145.64C118.84 145.24 119.408 144.856 120 144.488C120.592 144.104 121.136 143.696 121.632 143.264C122.128 142.832 122.536 142.368 122.856 141.872C123.176 141.36 123.344 140.776 123.36 140.12C123.36 139.816 123.32 139.496 123.24 139.16C123.176 138.808 123.04 138.488 122.832 138.2C122.624 137.896 122.336 137.648 121.968 137.456C121.6 137.248 121.12 137.144 120.528 137.144C119.984 137.144 119.528 137.256 119.16 137.48C118.808 137.688 118.52 137.984 118.296 138.368C118.088 138.736 117.928 139.176 117.816 139.688C117.72 140.2 117.664 140.752 117.648 141.344H114.912C114.912 140.416 115.032 139.56 115.272 138.776C115.528 137.976 115.904 137.288 116.4 136.712C116.896 136.136 117.496 135.688 118.2 135.368C118.92 135.032 119.752 134.864 120.696 134.864C121.72 134.864 122.576 135.032 123.264 135.368C123.952 135.704 124.504 136.128 124.92 136.64C125.352 137.152 125.656 137.712 125.832 138.32C126.008 138.912 126.096 139.48 126.096 140.024C126.096 140.696 125.992 141.304 125.784 141.848C125.576 142.392 125.296 142.896 124.944 143.36C124.592 143.808 124.192 144.224 123.744 144.608C123.296 144.992 122.832 145.352 122.352 145.688C121.872 146.024 121.392 146.344 120.912 146.648C120.432 146.952 119.984 147.256 119.568 147.56C119.168 147.864 118.816 148.184 118.512 148.52C118.208 148.84 118 149.184 117.888 149.552H126.072V152ZM133.672 134.864C134.872 134.864 135.848 135.144 136.6 135.704C137.368 136.248 137.96 136.952 138.376 137.816C138.808 138.664 139.096 139.6 139.24 140.624C139.4 141.648 139.48 142.64 139.48 143.6C139.48 144.56 139.4 145.552 139.24 146.576C139.096 147.6 138.808 148.544 138.376 149.408C137.96 150.256 137.368 150.96 136.6 151.52C135.848 152.064 134.872 152.336 133.672 152.336C132.472 152.336 131.488 152.064 130.72 151.52C129.968 150.96 129.376 150.256 128.944 149.408C128.528 148.544 128.24 147.6 128.08 146.576C127.936 145.552 127.864 144.56 127.864 143.6C127.864 142.64 127.936 141.648 128.08 140.624C128.24 139.6 128.528 138.664 128.944 137.816C129.376 136.952 129.968 136.248 130.72 135.704C131.488 135.144 132.472 134.864 133.672 134.864ZM133.672 150.056C134.264 150.056 134.76 149.888 135.16 149.552C135.56 149.2 135.872 148.736 136.096 148.16C136.336 147.568 136.504 146.88 136.6 146.096C136.696 145.312 136.744 144.48 136.744 143.6C136.744 142.72 136.696 141.896 136.6 141.128C136.504 140.344 136.336 139.656 136.096 139.064C135.872 138.472 135.56 138.008 135.16 137.672C134.76 137.32 134.264 137.144 133.672 137.144C133.064 137.144 132.56 137.32 132.16 137.672C131.776 138.008 131.464 138.472 131.224 139.064C131 139.656 130.84 140.344 130.744 141.128C130.648 141.896 130.6 142.72 130.6 143.6C130.6 144.48 130.648 145.312 130.744 146.096C130.84 146.88 131 147.568 131.224 148.16C131.464 148.736 131.776 149.2 132.16 149.552C132.56 149.888 133.064 150.056 133.672 150.056Z" fill="#1D2129"/>
<rect x="263" y="41" width="4" height="28" rx="2" fill="#E86D38"/>
<path d="M279.116 49.004C279.947 49.004 280.628 49.1113 281.16 49.326C281.701 49.5313 282.103 49.844 282.364 50.264C282.625 50.684 282.756 51.2113 282.756 51.846C282.756 52.378 282.658 52.8213 282.462 53.176C282.266 53.5307 282.014 53.8153 281.706 54.03C281.407 54.2353 281.09 54.3987 280.754 54.52L283.498 59H282.028L279.606 54.87H277.618V59H276.358V49.004H279.116ZM279.046 50.096H277.618V53.806H279.116C279.657 53.806 280.101 53.736 280.446 53.596C280.791 53.4467 281.043 53.232 281.202 52.952C281.37 52.672 281.454 52.322 281.454 51.902C281.454 51.4633 281.365 51.1133 281.188 50.852C281.02 50.5907 280.759 50.3993 280.404 50.278C280.049 50.1567 279.597 50.096 279.046 50.096ZM287.797 51.356C288.441 51.356 288.992 51.496 289.449 51.776C289.916 52.056 290.27 52.4527 290.513 52.966C290.765 53.47 290.891 54.0627 290.891 54.744V55.486H285.753C285.772 56.3353 285.986 56.984 286.397 57.432C286.817 57.8707 287.4 58.09 288.147 58.09C288.623 58.09 289.043 58.048 289.407 57.964C289.78 57.8707 290.163 57.74 290.555 57.572V58.65C290.172 58.818 289.794 58.9393 289.421 59.014C289.048 59.098 288.604 59.14 288.091 59.14C287.382 59.14 286.752 58.9953 286.201 58.706C285.66 58.4167 285.235 57.9873 284.927 57.418C284.628 56.8393 284.479 56.1347 284.479 55.304C284.479 54.4827 284.614 53.778 284.885 53.19C285.165 52.602 285.552 52.1493 286.047 51.832C286.551 51.5147 287.134 51.356 287.797 51.356ZM287.783 52.364C287.195 52.364 286.728 52.5553 286.383 52.938C286.047 53.3113 285.846 53.834 285.781 54.506H289.603C289.603 54.0767 289.538 53.7033 289.407 53.386C289.276 53.0687 289.076 52.8213 288.805 52.644C288.544 52.4573 288.203 52.364 287.783 52.364ZM297.799 59.154C297.799 58.986 297.804 58.79 297.813 58.566C297.823 58.342 297.841 58.1507 297.869 57.992H297.785C297.571 58.3093 297.272 58.58 296.889 58.804C296.516 59.028 296.031 59.14 295.433 59.14C294.528 59.14 293.791 58.818 293.221 58.174C292.661 57.5207 292.381 56.55 292.381 55.262C292.381 54.4033 292.512 53.6847 292.773 53.106C293.035 52.5273 293.399 52.0933 293.865 51.804C294.332 51.5053 294.869 51.356 295.475 51.356C296.063 51.356 296.544 51.468 296.917 51.692C297.291 51.916 297.589 52.1913 297.813 52.518H297.869L298.051 51.496H299.031V62.36H297.799V59.154ZM295.671 58.118C296.185 58.118 296.595 58.0247 296.903 57.838C297.221 57.6513 297.449 57.3667 297.589 56.984C297.729 56.592 297.804 56.1067 297.813 55.528V55.276C297.813 54.324 297.655 53.6053 297.337 53.12C297.02 52.6253 296.455 52.378 295.643 52.378C294.971 52.378 294.472 52.644 294.145 53.176C293.819 53.6987 293.655 54.4033 293.655 55.29C293.655 56.1767 293.819 56.872 294.145 57.376C294.481 57.8707 294.99 58.118 295.671 58.118ZM307.687 51.496V59H306.679L306.497 58.006H306.441C306.282 58.2673 306.077 58.482 305.825 58.65C305.573 58.818 305.297 58.9393 304.999 59.014C304.7 59.098 304.387 59.14 304.061 59.14C303.463 59.14 302.959 59.0467 302.549 58.86C302.147 58.664 301.844 58.3653 301.639 57.964C301.433 57.5627 301.331 57.0447 301.331 56.41V51.496H302.577V56.326C302.577 56.9233 302.712 57.3713 302.983 57.67C303.253 57.9687 303.673 58.118 304.243 58.118C304.803 58.118 305.241 58.0153 305.559 57.81C305.885 57.5953 306.114 57.2873 306.245 56.886C306.385 56.4753 306.455 55.9807 306.455 55.402V51.496H307.687ZM311.301 51.496V59H310.069V51.496H311.301ZM310.699 48.682C310.886 48.682 311.049 48.7473 311.189 48.878C311.338 48.9993 311.413 49.1953 311.413 49.466C311.413 49.7273 311.338 49.9233 311.189 50.054C311.049 50.1847 310.886 50.25 310.699 50.25C310.494 50.25 310.321 50.1847 310.181 50.054C310.041 49.9233 309.971 49.7273 309.971 49.466C309.971 49.1953 310.041 48.9993 310.181 48.878C310.321 48.7473 310.494 48.682 310.699 48.682ZM317.178 51.356C317.318 51.356 317.468 51.3653 317.626 51.384C317.794 51.3933 317.939 51.412 318.06 51.44L317.906 52.574C317.785 52.546 317.65 52.5227 317.5 52.504C317.36 52.4853 317.225 52.476 317.094 52.476C316.805 52.476 316.53 52.5367 316.268 52.658C316.007 52.7793 315.774 52.952 315.568 53.176C315.363 53.3907 315.2 53.652 315.078 53.96C314.966 54.268 314.91 54.6133 314.91 54.996V59H313.678V51.496H314.686L314.826 52.868H314.882C315.041 52.588 315.232 52.336 315.456 52.112C315.68 51.8787 315.937 51.6967 316.226 51.566C316.516 51.426 316.833 51.356 317.178 51.356ZM322.086 51.356C322.73 51.356 323.281 51.496 323.738 51.776C324.205 52.056 324.559 52.4527 324.802 52.966C325.054 53.47 325.18 54.0627 325.18 54.744V55.486H320.042C320.061 56.3353 320.275 56.984 320.686 57.432C321.106 57.8707 321.689 58.09 322.436 58.09C322.912 58.09 323.332 58.048 323.696 57.964C324.069 57.8707 324.452 57.74 324.844 57.572V58.65C324.461 58.818 324.083 58.9393 323.71 59.014C323.337 59.098 322.893 59.14 322.38 59.14C321.671 59.14 321.041 58.9953 320.49 58.706C319.949 58.4167 319.524 57.9873 319.216 57.418C318.917 56.8393 318.768 56.1347 318.768 55.304C318.768 54.4827 318.903 53.778 319.174 53.19C319.454 52.602 319.841 52.1493 320.336 51.832C320.84 51.5147 321.423 51.356 322.086 51.356ZM322.072 52.364C321.484 52.364 321.017 52.5553 320.672 52.938C320.336 53.3113 320.135 53.834 320.07 54.506H323.892C323.892 54.0767 323.827 53.7033 323.696 53.386C323.565 53.0687 323.365 52.8213 323.094 52.644C322.833 52.4573 322.492 52.364 322.072 52.364ZM329.75 59.14C328.817 59.14 328.07 58.818 327.51 58.174C326.95 57.5207 326.67 56.55 326.67 55.262C326.67 53.974 326.95 53.0033 327.51 52.35C328.08 51.6873 328.831 51.356 329.764 51.356C330.156 51.356 330.497 51.4073 330.786 51.51C331.076 51.6033 331.328 51.734 331.542 51.902C331.757 52.07 331.939 52.2567 332.088 52.462H332.172C332.163 52.3407 332.144 52.1633 332.116 51.93C332.098 51.6873 332.088 51.496 332.088 51.356V48.36H333.32V59H332.326L332.144 57.992H332.088C331.939 58.2067 331.757 58.4027 331.542 58.58C331.328 58.748 331.071 58.8833 330.772 58.986C330.483 59.0887 330.142 59.14 329.75 59.14ZM329.946 58.118C330.74 58.118 331.295 57.9033 331.612 57.474C331.939 57.0353 332.102 56.3773 332.102 55.5V55.276C332.102 54.3427 331.948 53.6287 331.64 53.134C331.332 52.63 330.763 52.378 329.932 52.378C329.27 52.378 328.77 52.644 328.434 53.176C328.108 53.6987 327.944 54.4033 327.944 55.29C327.944 56.186 328.108 56.8813 328.434 57.376C328.77 57.8707 329.274 58.118 329.946 58.118ZM340.815 51.37C341.73 51.37 342.407 51.5707 342.845 51.972C343.284 52.3733 343.503 53.0127 343.503 53.89V59H342.607L342.369 57.936H342.313C342.099 58.2067 341.875 58.4353 341.641 58.622C341.417 58.7993 341.156 58.93 340.857 59.014C340.568 59.098 340.213 59.14 339.793 59.14C339.345 59.14 338.939 59.0607 338.575 58.902C338.221 58.7433 337.941 58.5007 337.735 58.174C337.53 57.838 337.427 57.418 337.427 56.914C337.427 56.1673 337.721 55.5933 338.309 55.192C338.897 54.7813 339.803 54.5573 341.025 54.52L342.299 54.478V54.03C342.299 53.4047 342.164 52.9707 341.893 52.728C341.623 52.4853 341.24 52.364 340.745 52.364C340.353 52.364 339.98 52.4247 339.625 52.546C339.271 52.658 338.939 52.7887 338.631 52.938L338.253 52.014C338.58 51.8367 338.967 51.6873 339.415 51.566C339.863 51.4353 340.33 51.37 340.815 51.37ZM341.179 55.374C340.246 55.4113 339.597 55.5607 339.233 55.822C338.879 56.0833 338.701 56.452 338.701 56.928C338.701 57.348 338.827 57.656 339.079 57.852C339.341 58.048 339.672 58.146 340.073 58.146C340.708 58.146 341.235 57.9733 341.655 57.628C342.075 57.2733 342.285 56.732 342.285 56.004V55.332L341.179 55.374ZM348.831 59.14C348.168 59.14 347.576 59.0047 347.053 58.734C346.54 58.4633 346.134 58.0433 345.835 57.474C345.546 56.9047 345.401 56.1767 345.401 55.29C345.401 54.366 345.555 53.6147 345.863 53.036C346.171 52.4573 346.586 52.0327 347.109 51.762C347.641 51.4913 348.243 51.356 348.915 51.356C349.298 51.356 349.666 51.398 350.021 51.482C350.376 51.5567 350.665 51.65 350.889 51.762L350.511 52.784C350.287 52.7 350.026 52.6207 349.727 52.546C349.428 52.4713 349.148 52.434 348.887 52.434C348.383 52.434 347.968 52.5413 347.641 52.756C347.314 52.9707 347.072 53.288 346.913 53.708C346.754 54.128 346.675 54.6507 346.675 55.276C346.675 55.8733 346.754 56.382 346.913 56.802C347.072 57.222 347.31 57.5393 347.627 57.754C347.944 57.9687 348.341 58.076 348.817 58.076C349.228 58.076 349.587 58.034 349.895 57.95C350.212 57.866 350.502 57.7633 350.763 57.642V58.734C350.511 58.8647 350.231 58.9627 349.923 59.028C349.624 59.1027 349.26 59.14 348.831 59.14ZM355.053 58.132C355.24 58.132 355.431 58.118 355.627 58.09C355.823 58.0527 355.982 58.0153 356.103 57.978V58.916C355.973 58.9813 355.786 59.0327 355.543 59.07C355.301 59.1167 355.067 59.14 354.843 59.14C354.451 59.14 354.087 59.0747 353.751 58.944C353.425 58.804 353.159 58.566 352.953 58.23C352.748 57.894 352.645 57.4227 352.645 56.816V52.448H351.581V51.86L352.659 51.37L353.149 49.774H353.877V51.496H356.047V52.448H353.877V56.788C353.877 57.2453 353.985 57.586 354.199 57.81C354.423 58.0247 354.708 58.132 355.053 58.132ZM358.838 51.496V59H357.606V51.496H358.838ZM358.236 48.682C358.423 48.682 358.586 48.7473 358.726 48.878C358.875 48.9993 358.95 49.1953 358.95 49.466C358.95 49.7273 358.875 49.9233 358.726 50.054C358.586 50.1847 358.423 50.25 358.236 50.25C358.031 50.25 357.858 50.1847 357.718 50.054C357.578 49.9233 357.508 49.7273 357.508 49.466C357.508 49.1953 357.578 48.9993 357.718 48.878C357.858 48.7473 358.031 48.682 358.236 48.682ZM367.739 55.234C367.739 55.8593 367.655 56.4147 367.487 56.9C367.329 57.376 367.095 57.782 366.787 58.118C366.489 58.454 366.12 58.7107 365.681 58.888C365.252 59.056 364.771 59.14 364.239 59.14C363.745 59.14 363.287 59.056 362.867 58.888C362.447 58.7107 362.083 58.454 361.775 58.118C361.467 57.782 361.225 57.376 361.047 56.9C360.879 56.4147 360.795 55.8593 360.795 55.234C360.795 54.4033 360.935 53.7033 361.215 53.134C361.495 52.5553 361.897 52.1167 362.419 51.818C362.942 51.51 363.563 51.356 364.281 51.356C364.963 51.356 365.56 51.51 366.073 51.818C366.596 52.1167 367.002 52.5553 367.291 53.134C367.59 53.7033 367.739 54.4033 367.739 55.234ZM362.069 55.234C362.069 55.822 362.144 56.3353 362.293 56.774C362.452 57.2033 362.695 57.5347 363.021 57.768C363.348 58.0013 363.763 58.118 364.267 58.118C364.771 58.118 365.187 58.0013 365.513 57.768C365.84 57.5347 366.078 57.2033 366.227 56.774C366.386 56.3353 366.465 55.822 366.465 55.234C366.465 54.6367 366.386 54.128 366.227 53.708C366.069 53.288 365.826 52.966 365.499 52.742C365.182 52.5087 364.767 52.392 364.253 52.392C363.488 52.392 362.933 52.644 362.587 53.148C362.242 53.652 362.069 54.3473 362.069 55.234ZM373.304 51.356C374.2 51.356 374.877 51.5753 375.334 52.014C375.791 52.4433 376.02 53.1433 376.02 54.114V59H374.802V54.198C374.802 53.5913 374.667 53.1387 374.396 52.84C374.125 52.5413 373.701 52.392 373.122 52.392C372.291 52.392 371.717 52.6253 371.4 53.092C371.083 53.5587 370.924 54.2307 370.924 55.108V59H369.692V51.496H370.686L370.868 52.518H370.938C371.106 52.2567 371.311 52.042 371.554 51.874C371.806 51.6967 372.081 51.566 372.38 51.482C372.679 51.398 372.987 51.356 373.304 51.356Z" fill="#4E5969"/>
<path d="M382.009 56.416H384.977V52.104H384.949L382.009 56.416ZM387.749 57.676H386.489V60H384.977V57.676H380.777V56.094L384.977 50.2H386.489V56.416H387.749V57.676ZM392.113 50.004C392.813 50.004 393.382 50.1673 393.821 50.494C394.269 50.8113 394.614 51.222 394.857 51.726C395.109 52.2207 395.277 52.7667 395.361 53.364C395.454 53.9613 395.501 54.54 395.501 55.1C395.501 55.66 395.454 56.2387 395.361 56.836C395.277 57.4333 395.109 57.984 394.857 58.488C394.614 58.9827 394.269 59.3933 393.821 59.72C393.382 60.0373 392.813 60.196 392.113 60.196C391.413 60.196 390.839 60.0373 390.391 59.72C389.952 59.3933 389.607 58.9827 389.355 58.488C389.112 57.984 388.944 57.4333 388.851 56.836C388.767 56.2387 388.725 55.66 388.725 55.1C388.725 54.54 388.767 53.9613 388.851 53.364C388.944 52.7667 389.112 52.2207 389.355 51.726C389.607 51.222 389.952 50.8113 390.391 50.494C390.839 50.1673 391.413 50.004 392.113 50.004ZM392.113 58.866C392.458 58.866 392.747 58.768 392.981 58.572C393.214 58.3667 393.396 58.096 393.527 57.76C393.667 57.4147 393.765 57.0133 393.821 56.556C393.877 56.0987 393.905 55.6133 393.905 55.1C393.905 54.5867 393.877 54.106 393.821 53.658C393.765 53.2007 393.667 52.7993 393.527 52.454C393.396 52.1087 393.214 51.838 392.981 51.642C392.747 51.4367 392.458 51.334 392.113 51.334C391.758 51.334 391.464 51.4367 391.231 51.642C391.007 51.838 390.825 52.1087 390.685 52.454C390.554 52.7993 390.461 53.2007 390.405 53.658C390.349 54.106 390.321 54.5867 390.321 55.1C390.321 55.6133 390.349 56.0987 390.405 56.556C390.461 57.0133 390.554 57.4147 390.685 57.76C390.825 58.096 391.007 58.3667 391.231 58.572C391.464 58.768 391.758 58.866 392.113 58.866Z" fill="#1D2129"/>
<path d="M400.004 56.904C400.004 56.72 400.016 56.528 400.04 56.328C400.064 56.12 400.112 55.932 400.184 55.764C400.264 55.588 400.372 55.444 400.508 55.332C400.644 55.212 400.824 55.152 401.048 55.152C401.28 55.152 401.46 55.212 401.588 55.332C401.724 55.444 401.828 55.588 401.9 55.764C401.972 55.932 402.016 56.12 402.032 56.328C402.056 56.528 402.068 56.716 402.068 56.892C402.068 57.076 402.056 57.272 402.032 57.48C402.008 57.688 401.956 57.88 401.876 58.056C401.804 58.224 401.7 58.364 401.564 58.476C401.428 58.588 401.244 58.644 401.012 58.644C400.788 58.644 400.608 58.588 400.472 58.476C400.344 58.356 400.244 58.212 400.172 58.044C400.1 57.868 400.052 57.68 400.028 57.48C400.012 57.272 400.004 57.08 400.004 56.904ZM399.104 56.928C399.104 57.256 399.136 57.564 399.2 57.852C399.272 58.14 399.384 58.392 399.536 58.608C399.688 58.824 399.888 58.996 400.136 59.124C400.384 59.244 400.688 59.304 401.048 59.304C401.4 59.304 401.696 59.236 401.936 59.1C402.176 58.964 402.372 58.788 402.524 58.572C402.684 58.348 402.796 58.092 402.86 57.804C402.932 57.508 402.968 57.204 402.968 56.892C402.968 56.564 402.936 56.256 402.872 55.968C402.816 55.672 402.712 55.416 402.56 55.2C402.416 54.984 402.22 54.812 401.972 54.684C401.732 54.556 401.424 54.492 401.048 54.492C400.68 54.492 400.372 54.56 400.124 54.696C399.876 54.824 399.676 55 399.524 55.224C399.372 55.448 399.264 55.708 399.2 56.004C399.136 56.292 399.104 56.6 399.104 56.928ZM405.932 60.744C405.932 60.56 405.944 60.368 405.968 60.168C405.992 59.96 406.04 59.772 406.112 59.604C406.192 59.428 406.3 59.284 406.436 59.172C406.572 59.052 406.752 58.992 406.976 58.992C407.208 58.992 407.388 59.052 407.516 59.172C407.652 59.284 407.756 59.428 407.828 59.604C407.9 59.772 407.944 59.96 407.96 60.168C407.984 60.368 407.996 60.556 407.996 60.732C407.996 60.916 407.984 61.112 407.96 61.32C407.936 61.528 407.884 61.72 407.804 61.896C407.732 62.064 407.628 62.204 407.492 62.316C407.356 62.428 407.172 62.484 406.94 62.484C406.716 62.484 406.536 62.428 406.4 62.316C406.272 62.196 406.172 62.052 406.1 61.884C406.028 61.708 405.98 61.52 405.956 61.32C405.94 61.112 405.932 60.92 405.932 60.744ZM405.032 60.768C405.032 61.096 405.064 61.404 405.128 61.692C405.2 61.98 405.312 62.232 405.464 62.448C405.616 62.656 405.816 62.824 406.064 62.952C406.312 63.072 406.616 63.132 406.976 63.132C407.328 63.132 407.624 63.068 407.864 62.94C408.104 62.804 408.3 62.628 408.452 62.412C408.612 62.188 408.724 61.932 408.788 61.644C408.86 61.348 408.896 61.044 408.896 60.732C408.896 60.404 408.864 60.096 408.8 59.808C408.744 59.512 408.64 59.256 408.488 59.04C408.344 58.824 408.148 58.652 407.9 58.524C407.66 58.396 407.352 58.332 406.976 58.332C406.608 58.332 406.3 58.4 406.052 58.536C405.804 58.664 405.604 58.84 405.452 59.064C405.3 59.288 405.192 59.548 405.128 59.844C405.064 60.132 405.032 60.44 405.032 60.768ZM406.712 54.336L400.256 63.252H401.288L407.732 54.336H406.712Z" fill="#86909C"/>
<rect x="263" y="93" width="4" height="28" rx="2" fill="#F4CE6C"/>
<path d="M287.838 101.004L285.178 111H283.904L281.958 104.448C281.902 104.252 281.846 104.051 281.79 103.846C281.734 103.641 281.683 103.445 281.636 103.258C281.589 103.071 281.547 102.913 281.51 102.782C281.482 102.642 281.463 102.539 281.454 102.474C281.445 102.539 281.426 102.642 281.398 102.782C281.379 102.913 281.347 103.071 281.3 103.258C281.253 103.445 281.202 103.645 281.146 103.86C281.099 104.065 281.043 104.275 280.978 104.49L279.088 111H277.814L275.168 101.004H276.484L278.038 107.108C278.094 107.323 278.145 107.537 278.192 107.752C278.239 107.957 278.281 108.163 278.318 108.368C278.365 108.564 278.402 108.755 278.43 108.942C278.458 109.129 278.486 109.311 278.514 109.488C278.542 109.301 278.57 109.11 278.598 108.914C278.635 108.718 278.677 108.517 278.724 108.312C278.771 108.097 278.822 107.883 278.878 107.668C278.934 107.453 278.99 107.243 279.046 107.038L280.81 101.004H282.112L283.946 107.08C284.011 107.295 284.072 107.514 284.128 107.738C284.184 107.953 284.235 108.163 284.282 108.368C284.329 108.573 284.366 108.774 284.394 108.97C284.431 109.157 284.464 109.329 284.492 109.488C284.52 109.255 284.557 109.012 284.604 108.76C284.651 108.499 284.707 108.228 284.772 107.948C284.837 107.668 284.907 107.383 284.982 107.094L286.522 101.004H287.838ZM291.774 103.37C292.689 103.37 293.366 103.571 293.804 103.972C294.243 104.373 294.462 105.013 294.462 105.89V111H293.566L293.328 109.936H293.272C293.058 110.207 292.834 110.435 292.6 110.622C292.376 110.799 292.115 110.93 291.816 111.014C291.527 111.098 291.172 111.14 290.752 111.14C290.304 111.14 289.898 111.061 289.534 110.902C289.18 110.743 288.9 110.501 288.694 110.174C288.489 109.838 288.386 109.418 288.386 108.914C288.386 108.167 288.68 107.593 289.268 107.192C289.856 106.781 290.762 106.557 291.984 106.52L293.258 106.478V106.03C293.258 105.405 293.123 104.971 292.852 104.728C292.582 104.485 292.199 104.364 291.704 104.364C291.312 104.364 290.939 104.425 290.584 104.546C290.23 104.658 289.898 104.789 289.59 104.938L289.212 104.014C289.539 103.837 289.926 103.687 290.374 103.566C290.822 103.435 291.289 103.37 291.774 103.37ZM292.138 107.374C291.205 107.411 290.556 107.561 290.192 107.822C289.838 108.083 289.66 108.452 289.66 108.928C289.66 109.348 289.786 109.656 290.038 109.852C290.3 110.048 290.631 110.146 291.032 110.146C291.667 110.146 292.194 109.973 292.614 109.628C293.034 109.273 293.244 108.732 293.244 108.004V107.332L292.138 107.374ZM298.012 103.496V111H296.78V103.496H298.012ZM297.41 100.682C297.597 100.682 297.76 100.747 297.9 100.878C298.049 100.999 298.124 101.195 298.124 101.466C298.124 101.727 298.049 101.923 297.9 102.054C297.76 102.185 297.597 102.25 297.41 102.25C297.205 102.25 297.032 102.185 296.892 102.054C296.752 101.923 296.682 101.727 296.682 101.466C296.682 101.195 296.752 100.999 296.892 100.878C297.032 100.747 297.205 100.682 297.41 100.682ZM302.895 110.132C303.082 110.132 303.273 110.118 303.469 110.09C303.665 110.053 303.824 110.015 303.945 109.978V110.916C303.815 110.981 303.628 111.033 303.385 111.07C303.143 111.117 302.909 111.14 302.685 111.14C302.293 111.14 301.929 111.075 301.593 110.944C301.267 110.804 301.001 110.566 300.795 110.23C300.59 109.894 300.487 109.423 300.487 108.816V104.448H299.423V103.86L300.501 103.37L300.991 101.774H301.719V103.496H303.889V104.448H301.719V108.788C301.719 109.245 301.827 109.586 302.041 109.81C302.265 110.025 302.55 110.132 302.895 110.132ZM306.68 103.496V111H305.448V103.496H306.68ZM306.078 100.682C306.264 100.682 306.428 100.747 306.568 100.878C306.717 100.999 306.792 101.195 306.792 101.466C306.792 101.727 306.717 101.923 306.568 102.054C306.428 102.185 306.264 102.25 306.078 102.25C305.872 102.25 305.7 102.185 305.56 102.054C305.42 101.923 305.35 101.727 305.35 101.466C305.35 101.195 305.42 100.999 305.56 100.878C305.7 100.747 305.872 100.682 306.078 100.682ZM312.669 103.356C313.565 103.356 314.242 103.575 314.699 104.014C315.157 104.443 315.385 105.143 315.385 106.114V111H314.167V106.198C314.167 105.591 314.032 105.139 313.761 104.84C313.491 104.541 313.066 104.392 312.487 104.392C311.657 104.392 311.083 104.625 310.765 105.092C310.448 105.559 310.289 106.231 310.289 107.108V111H309.057V103.496H310.051L310.233 104.518H310.303C310.471 104.257 310.677 104.042 310.919 103.874C311.171 103.697 311.447 103.566 311.745 103.482C312.044 103.398 312.352 103.356 312.669 103.356ZM320.371 103.356C320.866 103.356 321.309 103.449 321.701 103.636C322.103 103.823 322.443 104.107 322.723 104.49H322.793L322.961 103.496H323.941V111.126C323.941 111.835 323.82 112.428 323.577 112.904C323.335 113.389 322.966 113.753 322.471 113.996C321.977 114.239 321.347 114.36 320.581 114.36C320.04 114.36 319.541 114.318 319.083 114.234C318.635 114.159 318.234 114.043 317.879 113.884V112.75C318.122 112.871 318.388 112.974 318.677 113.058C318.967 113.151 319.279 113.221 319.615 113.268C319.951 113.315 320.297 113.338 320.651 113.338C321.295 113.338 321.799 113.147 322.163 112.764C322.537 112.391 322.723 111.877 322.723 111.224V110.93C322.723 110.818 322.728 110.659 322.737 110.454C322.747 110.239 322.756 110.09 322.765 110.006H322.709C322.448 110.389 322.121 110.673 321.729 110.86C321.347 111.047 320.899 111.14 320.385 111.14C319.415 111.14 318.654 110.799 318.103 110.118C317.562 109.437 317.291 108.485 317.291 107.262C317.291 106.459 317.413 105.769 317.655 105.19C317.907 104.602 318.262 104.149 318.719 103.832C319.177 103.515 319.727 103.356 320.371 103.356ZM320.539 104.392C320.119 104.392 319.76 104.504 319.461 104.728C319.172 104.952 318.948 105.279 318.789 105.708C318.64 106.137 318.565 106.66 318.565 107.276C318.565 108.2 318.733 108.909 319.069 109.404C319.415 109.889 319.914 110.132 320.567 110.132C320.95 110.132 321.277 110.085 321.547 109.992C321.818 109.889 322.042 109.735 322.219 109.53C322.397 109.315 322.527 109.045 322.611 108.718C322.695 108.391 322.737 108.004 322.737 107.556V107.262C322.737 106.581 322.658 106.03 322.499 105.61C322.35 105.19 322.112 104.882 321.785 104.686C321.459 104.49 321.043 104.392 320.539 104.392Z" fill="#4E5969"/>
<path d="M382.009 108.416H384.977V104.104H384.949L382.009 108.416ZM387.749 109.676H386.489V112H384.977V109.676H380.777V108.094L384.977 102.2H386.489V108.416H387.749V109.676ZM392.113 102.004C392.813 102.004 393.382 102.167 393.821 102.494C394.269 102.811 394.614 103.222 394.857 103.726C395.109 104.221 395.277 104.767 395.361 105.364C395.454 105.961 395.501 106.54 395.501 107.1C395.501 107.66 395.454 108.239 395.361 108.836C395.277 109.433 395.109 109.984 394.857 110.488C394.614 110.983 394.269 111.393 393.821 111.72C393.382 112.037 392.813 112.196 392.113 112.196C391.413 112.196 390.839 112.037 390.391 111.72C389.952 111.393 389.607 110.983 389.355 110.488C389.112 109.984 388.944 109.433 388.851 108.836C388.767 108.239 388.725 107.66 388.725 107.1C388.725 106.54 388.767 105.961 388.851 105.364C388.944 104.767 389.112 104.221 389.355 103.726C389.607 103.222 389.952 102.811 390.391 102.494C390.839 102.167 391.413 102.004 392.113 102.004ZM392.113 110.866C392.458 110.866 392.747 110.768 392.981 110.572C393.214 110.367 393.396 110.096 393.527 109.76C393.667 109.415 393.765 109.013 393.821 108.556C393.877 108.099 393.905 107.613 393.905 107.1C393.905 106.587 393.877 106.106 393.821 105.658C393.765 105.201 393.667 104.799 393.527 104.454C393.396 104.109 393.214 103.838 392.981 103.642C392.747 103.437 392.458 103.334 392.113 103.334C391.758 103.334 391.464 103.437 391.231 103.642C391.007 103.838 390.825 104.109 390.685 104.454C390.554 104.799 390.461 105.201 390.405 105.658C390.349 106.106 390.321 106.587 390.321 107.1C390.321 107.613 390.349 108.099 390.405 108.556C390.461 109.013 390.554 109.415 390.685 109.76C390.825 110.096 391.007 110.367 391.231 110.572C391.464 110.768 391.758 110.866 392.113 110.866Z" fill="#1D2129"/>
<path d="M400.004 108.904C400.004 108.72 400.016 108.528 400.04 108.328C400.064 108.12 400.112 107.932 400.184 107.764C400.264 107.588 400.372 107.444 400.508 107.332C400.644 107.212 400.824 107.152 401.048 107.152C401.28 107.152 401.46 107.212 401.588 107.332C401.724 107.444 401.828 107.588 401.9 107.764C401.972 107.932 402.016 108.12 402.032 108.328C402.056 108.528 402.068 108.716 402.068 108.892C402.068 109.076 402.056 109.272 402.032 109.48C402.008 109.688 401.956 109.88 401.876 110.056C401.804 110.224 401.7 110.364 401.564 110.476C401.428 110.588 401.244 110.644 401.012 110.644C400.788 110.644 400.608 110.588 400.472 110.476C400.344 110.356 400.244 110.212 400.172 110.044C400.1 109.868 400.052 109.68 400.028 109.48C400.012 109.272 400.004 109.08 400.004 108.904ZM399.104 108.928C399.104 109.256 399.136 109.564 399.2 109.852C399.272 110.14 399.384 110.392 399.536 110.608C399.688 110.824 399.888 110.996 400.136 111.124C400.384 111.244 400.688 111.304 401.048 111.304C401.4 111.304 401.696 111.236 401.936 111.1C402.176 110.964 402.372 110.788 402.524 110.572C402.684 110.348 402.796 110.092 402.86 109.804C402.932 109.508 402.968 109.204 402.968 108.892C402.968 108.564 402.936 108.256 402.872 107.968C402.816 107.672 402.712 107.416 402.56 107.2C402.416 106.984 402.22 106.812 401.972 106.684C401.732 106.556 401.424 106.492 401.048 106.492C400.68 106.492 400.372 106.56 400.124 106.696C399.876 106.824 399.676 107 399.524 107.224C399.372 107.448 399.264 107.708 399.2 108.004C399.136 108.292 399.104 108.6 399.104 108.928ZM405.932 112.744C405.932 112.56 405.944 112.368 405.968 112.168C405.992 111.96 406.04 111.772 406.112 111.604C406.192 111.428 406.3 111.284 406.436 111.172C406.572 111.052 406.752 110.992 406.976 110.992C407.208 110.992 407.388 111.052 407.516 111.172C407.652 111.284 407.756 111.428 407.828 111.604C407.9 111.772 407.944 111.96 407.96 112.168C407.984 112.368 407.996 112.556 407.996 112.732C407.996 112.916 407.984 113.112 407.96 113.32C407.936 113.528 407.884 113.72 407.804 113.896C407.732 114.064 407.628 114.204 407.492 114.316C407.356 114.428 407.172 114.484 406.94 114.484C406.716 114.484 406.536 114.428 406.4 114.316C406.272 114.196 406.172 114.052 406.1 113.884C406.028 113.708 405.98 113.52 405.956 113.32C405.94 113.112 405.932 112.92 405.932 112.744ZM405.032 112.768C405.032 113.096 405.064 113.404 405.128 113.692C405.2 113.98 405.312 114.232 405.464 114.448C405.616 114.656 405.816 114.824 406.064 114.952C406.312 115.072 406.616 115.132 406.976 115.132C407.328 115.132 407.624 115.068 407.864 114.94C408.104 114.804 408.3 114.628 408.452 114.412C408.612 114.188 408.724 113.932 408.788 113.644C408.86 113.348 408.896 113.044 408.896 112.732C408.896 112.404 408.864 112.096 408.8 111.808C408.744 111.512 408.64 111.256 408.488 111.04C408.344 110.824 408.148 110.652 407.9 110.524C407.66 110.396 407.352 110.332 406.976 110.332C406.608 110.332 406.3 110.4 406.052 110.536C405.804 110.664 405.604 110.84 405.452 111.064C405.3 111.288 405.192 111.548 405.128 111.844C405.064 112.132 405.032 112.44 405.032 112.768ZM406.712 106.336L400.256 115.252H401.288L407.732 106.336H406.712Z" fill="#86909C"/>
<rect x="263" y="145" width="4" height="28" rx="2" fill="#76BC21"/>
<path d="M279.172 163H275.56V162.272L276.736 162.006V154.012L275.56 153.732V153.004H279.172V153.732L277.996 154.012V162.006L279.172 162.272V163ZM284.546 155.356C285.442 155.356 286.119 155.575 286.576 156.014C287.033 156.443 287.262 157.143 287.262 158.114V163H286.044V158.198C286.044 157.591 285.909 157.139 285.638 156.84C285.367 156.541 284.943 156.392 284.364 156.392C283.533 156.392 282.959 156.625 282.642 157.092C282.325 157.559 282.166 158.231 282.166 159.108V163H280.934V155.496H281.928L282.11 156.518H282.18C282.348 156.257 282.553 156.042 282.796 155.874C283.048 155.697 283.323 155.566 283.622 155.482C283.921 155.398 284.229 155.356 284.546 155.356ZM292.094 162.132C292.281 162.132 292.472 162.118 292.668 162.09C292.864 162.053 293.023 162.015 293.144 161.978V162.916C293.014 162.981 292.827 163.033 292.584 163.07C292.342 163.117 292.108 163.14 291.884 163.14C291.492 163.14 291.128 163.075 290.792 162.944C290.466 162.804 290.2 162.566 289.994 162.23C289.789 161.894 289.686 161.423 289.686 160.816V156.448H288.622V155.86L289.7 155.37L290.19 153.774H290.918V155.496H293.088V156.448H290.918V160.788C290.918 161.245 291.026 161.586 291.24 161.81C291.464 162.025 291.749 162.132 292.094 162.132ZM297.545 155.356C298.189 155.356 298.74 155.496 299.197 155.776C299.664 156.056 300.018 156.453 300.261 156.966C300.513 157.47 300.639 158.063 300.639 158.744V159.486H295.501C295.52 160.335 295.734 160.984 296.145 161.432C296.565 161.871 297.148 162.09 297.895 162.09C298.371 162.09 298.791 162.048 299.155 161.964C299.528 161.871 299.911 161.74 300.303 161.572V162.65C299.92 162.818 299.542 162.939 299.169 163.014C298.796 163.098 298.352 163.14 297.839 163.14C297.13 163.14 296.5 162.995 295.949 162.706C295.408 162.417 294.983 161.987 294.675 161.418C294.376 160.839 294.227 160.135 294.227 159.304C294.227 158.483 294.362 157.778 294.633 157.19C294.913 156.602 295.3 156.149 295.795 155.832C296.299 155.515 296.882 155.356 297.545 155.356ZM297.531 156.364C296.943 156.364 296.476 156.555 296.131 156.938C295.795 157.311 295.594 157.834 295.529 158.506H299.351C299.351 158.077 299.286 157.703 299.155 157.386C299.024 157.069 298.824 156.821 298.553 156.644C298.292 156.457 297.951 156.364 297.531 156.364ZM306.049 155.356C306.189 155.356 306.339 155.365 306.497 155.384C306.665 155.393 306.81 155.412 306.931 155.44L306.777 156.574C306.656 156.546 306.521 156.523 306.371 156.504C306.231 156.485 306.096 156.476 305.965 156.476C305.676 156.476 305.401 156.537 305.139 156.658C304.878 156.779 304.645 156.952 304.439 157.176C304.234 157.391 304.071 157.652 303.949 157.96C303.837 158.268 303.781 158.613 303.781 158.996V163H302.549V155.496H303.557L303.697 156.868H303.753C303.912 156.588 304.103 156.336 304.327 156.112C304.551 155.879 304.808 155.697 305.097 155.566C305.387 155.426 305.704 155.356 306.049 155.356ZM310.957 155.356C311.601 155.356 312.152 155.496 312.609 155.776C313.076 156.056 313.43 156.453 313.673 156.966C313.925 157.47 314.051 158.063 314.051 158.744V159.486H308.913C308.932 160.335 309.146 160.984 309.557 161.432C309.977 161.871 310.56 162.09 311.307 162.09C311.783 162.09 312.203 162.048 312.567 161.964C312.94 161.871 313.323 161.74 313.715 161.572V162.65C313.332 162.818 312.954 162.939 312.581 163.014C312.208 163.098 311.764 163.14 311.251 163.14C310.542 163.14 309.912 162.995 309.361 162.706C308.82 162.417 308.395 161.987 308.087 161.418C307.788 160.839 307.639 160.135 307.639 159.304C307.639 158.483 307.774 157.778 308.045 157.19C308.325 156.602 308.712 156.149 309.207 155.832C309.711 155.515 310.294 155.356 310.957 155.356ZM310.943 156.364C310.355 156.364 309.888 156.555 309.543 156.938C309.207 157.311 309.006 157.834 308.941 158.506H312.763C312.763 158.077 312.698 157.703 312.567 157.386C312.436 157.069 312.236 156.821 311.965 156.644C311.704 156.457 311.363 156.364 310.943 156.364ZM320.847 160.928C320.847 161.413 320.726 161.819 320.483 162.146C320.241 162.473 319.895 162.72 319.447 162.888C318.999 163.056 318.467 163.14 317.851 163.14C317.329 163.14 316.876 163.098 316.493 163.014C316.12 162.93 315.789 162.813 315.499 162.664V161.544C315.798 161.693 316.157 161.833 316.577 161.964C317.007 162.085 317.441 162.146 317.879 162.146C318.505 162.146 318.957 162.048 319.237 161.852C319.517 161.647 319.657 161.376 319.657 161.04C319.657 160.853 319.606 160.685 319.503 160.536C319.401 160.387 319.214 160.237 318.943 160.088C318.682 159.939 318.304 159.771 317.809 159.584C317.324 159.397 316.909 159.211 316.563 159.024C316.218 158.837 315.952 158.613 315.765 158.352C315.579 158.091 315.485 157.755 315.485 157.344C315.485 156.709 315.742 156.219 316.255 155.874C316.778 155.529 317.459 155.356 318.299 155.356C318.757 155.356 319.181 155.403 319.573 155.496C319.975 155.58 320.348 155.701 320.693 155.86L320.273 156.84C320.068 156.747 319.849 156.667 319.615 156.602C319.391 156.527 319.163 156.471 318.929 156.434C318.696 156.387 318.458 156.364 318.215 156.364C317.711 156.364 317.324 156.448 317.053 156.616C316.792 156.775 316.661 156.994 316.661 157.274C316.661 157.479 316.722 157.657 316.843 157.806C316.965 157.946 317.165 158.086 317.445 158.226C317.735 158.357 318.117 158.515 318.593 158.702C319.069 158.879 319.475 159.061 319.811 159.248C320.147 159.435 320.404 159.663 320.581 159.934C320.759 160.195 320.847 160.527 320.847 160.928ZM325.167 162.132C325.353 162.132 325.545 162.118 325.741 162.09C325.937 162.053 326.095 162.015 326.217 161.978V162.916C326.086 162.981 325.899 163.033 325.657 163.07C325.414 163.117 325.181 163.14 324.957 163.14C324.565 163.14 324.201 163.075 323.865 162.944C323.538 162.804 323.272 162.566 323.067 162.23C322.861 161.894 322.759 161.423 322.759 160.816V156.448H321.695V155.86L322.773 155.37L323.263 153.774H323.991V155.496H326.161V156.448H323.991V160.788C323.991 161.245 324.098 161.586 324.313 161.81C324.537 162.025 324.821 162.132 325.167 162.132ZM330.617 155.356C331.261 155.356 331.812 155.496 332.269 155.776C332.736 156.056 333.091 156.453 333.333 156.966C333.585 157.47 333.711 158.063 333.711 158.744V159.486H328.573C328.592 160.335 328.807 160.984 329.217 161.432C329.637 161.871 330.221 162.09 330.967 162.09C331.443 162.09 331.863 162.048 332.227 161.964C332.601 161.871 332.983 161.74 333.375 161.572V162.65C332.993 162.818 332.615 162.939 332.241 163.014C331.868 163.098 331.425 163.14 330.911 163.14C330.202 163.14 329.572 162.995 329.021 162.706C328.48 162.417 328.055 161.987 327.747 161.418C327.449 160.839 327.299 160.135 327.299 159.304C327.299 158.483 327.435 157.778 327.705 157.19C327.985 156.602 328.373 156.149 328.867 155.832C329.371 155.515 329.955 155.356 330.617 155.356ZM330.603 156.364C330.015 156.364 329.549 156.555 329.203 156.938C328.867 157.311 328.667 157.834 328.601 158.506H332.423C332.423 158.077 332.358 157.703 332.227 157.386C332.097 157.069 331.896 156.821 331.625 156.644C331.364 156.457 331.023 156.364 330.603 156.364ZM338.282 163.14C337.348 163.14 336.602 162.818 336.042 162.174C335.482 161.521 335.202 160.55 335.202 159.262C335.202 157.974 335.482 157.003 336.042 156.35C336.611 155.687 337.362 155.356 338.296 155.356C338.688 155.356 339.028 155.407 339.318 155.51C339.607 155.603 339.859 155.734 340.074 155.902C340.288 156.07 340.47 156.257 340.62 156.462H340.704C340.694 156.341 340.676 156.163 340.648 155.93C340.629 155.687 340.62 155.496 340.62 155.356V152.36H341.852V163H340.858L340.676 161.992H340.62C340.47 162.207 340.288 162.403 340.074 162.58C339.859 162.748 339.602 162.883 339.304 162.986C339.014 163.089 338.674 163.14 338.282 163.14ZM338.478 162.118C339.271 162.118 339.826 161.903 340.144 161.474C340.47 161.035 340.634 160.377 340.634 159.5V159.276C340.634 158.343 340.48 157.629 340.172 157.134C339.864 156.63 339.294 156.378 338.464 156.378C337.801 156.378 337.302 156.644 336.966 157.176C336.639 157.699 336.476 158.403 336.476 159.29C336.476 160.186 336.639 160.881 336.966 161.376C337.302 161.871 337.806 162.118 338.478 162.118Z" fill="#4E5969"/>
<path d="M382.009 160.416H384.977V156.104H384.949L382.009 160.416ZM387.749 161.676H386.489V164H384.977V161.676H380.777V160.094L384.977 154.2H386.489V160.416H387.749V161.676ZM392.113 154.004C392.813 154.004 393.382 154.167 393.821 154.494C394.269 154.811 394.614 155.222 394.857 155.726C395.109 156.221 395.277 156.767 395.361 157.364C395.454 157.961 395.501 158.54 395.501 159.1C395.501 159.66 395.454 160.239 395.361 160.836C395.277 161.433 395.109 161.984 394.857 162.488C394.614 162.983 394.269 163.393 393.821 163.72C393.382 164.037 392.813 164.196 392.113 164.196C391.413 164.196 390.839 164.037 390.391 163.72C389.952 163.393 389.607 162.983 389.355 162.488C389.112 161.984 388.944 161.433 388.851 160.836C388.767 160.239 388.725 159.66 388.725 159.1C388.725 158.54 388.767 157.961 388.851 157.364C388.944 156.767 389.112 156.221 389.355 155.726C389.607 155.222 389.952 154.811 390.391 154.494C390.839 154.167 391.413 154.004 392.113 154.004ZM392.113 162.866C392.458 162.866 392.747 162.768 392.981 162.572C393.214 162.367 393.396 162.096 393.527 161.76C393.667 161.415 393.765 161.013 393.821 160.556C393.877 160.099 393.905 159.613 393.905 159.1C393.905 158.587 393.877 158.106 393.821 157.658C393.765 157.201 393.667 156.799 393.527 156.454C393.396 156.109 393.214 155.838 392.981 155.642C392.747 155.437 392.458 155.334 392.113 155.334C391.758 155.334 391.464 155.437 391.231 155.642C391.007 155.838 390.825 156.109 390.685 156.454C390.554 156.799 390.461 157.201 390.405 157.658C390.349 158.106 390.321 158.587 390.321 159.1C390.321 159.613 390.349 160.099 390.405 160.556C390.461 161.013 390.554 161.415 390.685 161.76C390.825 162.096 391.007 162.367 391.231 162.572C391.464 162.768 391.758 162.866 392.113 162.866Z" fill="#1D2129"/>
<path d="M400.004 160.904C400.004 160.72 400.016 160.528 400.04 160.328C400.064 160.12 400.112 159.932 400.184 159.764C400.264 159.588 400.372 159.444 400.508 159.332C400.644 159.212 400.824 159.152 401.048 159.152C401.28 159.152 401.46 159.212 401.588 159.332C401.724 159.444 401.828 159.588 401.9 159.764C401.972 159.932 402.016 160.12 402.032 160.328C402.056 160.528 402.068 160.716 402.068 160.892C402.068 161.076 402.056 161.272 402.032 161.48C402.008 161.688 401.956 161.88 401.876 162.056C401.804 162.224 401.7 162.364 401.564 162.476C401.428 162.588 401.244 162.644 401.012 162.644C400.788 162.644 400.608 162.588 400.472 162.476C400.344 162.356 400.244 162.212 400.172 162.044C400.1 161.868 400.052 161.68 400.028 161.48C400.012 161.272 400.004 161.08 400.004 160.904ZM399.104 160.928C399.104 161.256 399.136 161.564 399.2 161.852C399.272 162.14 399.384 162.392 399.536 162.608C399.688 162.824 399.888 162.996 400.136 163.124C400.384 163.244 400.688 163.304 401.048 163.304C401.4 163.304 401.696 163.236 401.936 163.1C402.176 162.964 402.372 162.788 402.524 162.572C402.684 162.348 402.796 162.092 402.86 161.804C402.932 161.508 402.968 161.204 402.968 160.892C402.968 160.564 402.936 160.256 402.872 159.968C402.816 159.672 402.712 159.416 402.56 159.2C402.416 158.984 402.22 158.812 401.972 158.684C401.732 158.556 401.424 158.492 401.048 158.492C400.68 158.492 400.372 158.56 400.124 158.696C399.876 158.824 399.676 159 399.524 159.224C399.372 159.448 399.264 159.708 399.2 160.004C399.136 160.292 399.104 160.6 399.104 160.928ZM405.932 164.744C405.932 164.56 405.944 164.368 405.968 164.168C405.992 163.96 406.04 163.772 406.112 163.604C406.192 163.428 406.3 163.284 406.436 163.172C406.572 163.052 406.752 162.992 406.976 162.992C407.208 162.992 407.388 163.052 407.516 163.172C407.652 163.284 407.756 163.428 407.828 163.604C407.9 163.772 407.944 163.96 407.96 164.168C407.984 164.368 407.996 164.556 407.996 164.732C407.996 164.916 407.984 165.112 407.96 165.32C407.936 165.528 407.884 165.72 407.804 165.896C407.732 166.064 407.628 166.204 407.492 166.316C407.356 166.428 407.172 166.484 406.94 166.484C406.716 166.484 406.536 166.428 406.4 166.316C406.272 166.196 406.172 166.052 406.1 165.884C406.028 165.708 405.98 165.52 405.956 165.32C405.94 165.112 405.932 164.92 405.932 164.744ZM405.032 164.768C405.032 165.096 405.064 165.404 405.128 165.692C405.2 165.98 405.312 166.232 405.464 166.448C405.616 166.656 405.816 166.824 406.064 166.952C406.312 167.072 406.616 167.132 406.976 167.132C407.328 167.132 407.624 167.068 407.864 166.94C408.104 166.804 408.3 166.628 408.452 166.412C408.612 166.188 408.724 165.932 408.788 165.644C408.86 165.348 408.896 165.044 408.896 164.732C408.896 164.404 408.864 164.096 408.8 163.808C408.744 163.512 408.64 163.256 408.488 163.04C408.344 162.824 408.148 162.652 407.9 162.524C407.66 162.396 407.352 162.332 406.976 162.332C406.608 162.332 406.3 162.4 406.052 162.536C405.804 162.664 405.604 162.84 405.452 163.064C405.3 163.288 405.192 163.548 405.128 163.844C405.064 164.132 405.032 164.44 405.032 164.768ZM406.712 158.336L400.256 167.252H401.288L407.732 158.336H406.712Z" fill="#86909C"/>
<rect x="263" y="197" width="4" height="28" rx="2" fill="#D9D9D9"/>
<path d="M280.642 205.97C280.11 205.97 279.629 206.063 279.2 206.25C278.771 206.427 278.407 206.693 278.108 207.048C277.809 207.393 277.581 207.818 277.422 208.322C277.263 208.817 277.184 209.377 277.184 210.002C277.184 210.823 277.31 211.537 277.562 212.144C277.823 212.751 278.206 213.217 278.71 213.544C279.223 213.871 279.863 214.034 280.628 214.034C281.067 214.034 281.482 213.997 281.874 213.922C282.266 213.847 282.649 213.754 283.022 213.642V214.734C282.649 214.874 282.261 214.977 281.86 215.042C281.468 215.107 280.997 215.14 280.446 215.14C279.429 215.14 278.579 214.93 277.898 214.51C277.217 214.09 276.703 213.493 276.358 212.718C276.022 211.943 275.854 211.033 275.854 209.988C275.854 209.232 275.957 208.541 276.162 207.916C276.377 207.291 276.685 206.749 277.086 206.292C277.497 205.835 278.001 205.485 278.598 205.242C279.195 204.99 279.881 204.864 280.656 204.864C281.169 204.864 281.664 204.915 282.14 205.018C282.616 205.121 283.041 205.265 283.414 205.452L282.91 206.516C282.602 206.376 282.257 206.25 281.874 206.138C281.501 206.026 281.09 205.97 280.642 205.97ZM286.268 215H285.036V204.36H286.268V215ZM295.169 211.234C295.169 211.859 295.085 212.415 294.917 212.9C294.758 213.376 294.525 213.782 294.217 214.118C293.918 214.454 293.55 214.711 293.111 214.888C292.682 215.056 292.201 215.14 291.669 215.14C291.174 215.14 290.717 215.056 290.297 214.888C289.877 214.711 289.513 214.454 289.205 214.118C288.897 213.782 288.654 213.376 288.477 212.9C288.309 212.415 288.225 211.859 288.225 211.234C288.225 210.403 288.365 209.703 288.645 209.134C288.925 208.555 289.326 208.117 289.849 207.818C290.372 207.51 290.992 207.356 291.711 207.356C292.392 207.356 292.99 207.51 293.503 207.818C294.026 208.117 294.432 208.555 294.721 209.134C295.02 209.703 295.169 210.403 295.169 211.234ZM289.499 211.234C289.499 211.822 289.574 212.335 289.723 212.774C289.882 213.203 290.124 213.535 290.451 213.768C290.778 214.001 291.193 214.118 291.697 214.118C292.201 214.118 292.616 214.001 292.943 213.768C293.27 213.535 293.508 213.203 293.657 212.774C293.816 212.335 293.895 211.822 293.895 211.234C293.895 210.637 293.816 210.128 293.657 209.708C293.498 209.288 293.256 208.966 292.929 208.742C292.612 208.509 292.196 208.392 291.683 208.392C290.918 208.392 290.362 208.644 290.017 209.148C289.672 209.652 289.499 210.347 289.499 211.234ZM302.008 212.928C302.008 213.413 301.886 213.819 301.644 214.146C301.401 214.473 301.056 214.72 300.608 214.888C300.16 215.056 299.628 215.14 299.012 215.14C298.489 215.14 298.036 215.098 297.654 215.014C297.28 214.93 296.949 214.813 296.66 214.664V213.544C296.958 213.693 297.318 213.833 297.738 213.964C298.167 214.085 298.601 214.146 299.04 214.146C299.665 214.146 300.118 214.048 300.398 213.852C300.678 213.647 300.818 213.376 300.818 213.04C300.818 212.853 300.766 212.685 300.664 212.536C300.561 212.387 300.374 212.237 300.104 212.088C299.842 211.939 299.464 211.771 298.97 211.584C298.484 211.397 298.069 211.211 297.724 211.024C297.378 210.837 297.112 210.613 296.926 210.352C296.739 210.091 296.646 209.755 296.646 209.344C296.646 208.709 296.902 208.219 297.416 207.874C297.938 207.529 298.62 207.356 299.46 207.356C299.917 207.356 300.342 207.403 300.734 207.496C301.135 207.58 301.508 207.701 301.854 207.86L301.434 208.84C301.228 208.747 301.009 208.667 300.776 208.602C300.552 208.527 300.323 208.471 300.09 208.434C299.856 208.387 299.618 208.364 299.376 208.364C298.872 208.364 298.484 208.448 298.214 208.616C297.952 208.775 297.822 208.994 297.822 209.274C297.822 209.479 297.882 209.657 298.004 209.806C298.125 209.946 298.326 210.086 298.606 210.226C298.895 210.357 299.278 210.515 299.754 210.702C300.23 210.879 300.636 211.061 300.972 211.248C301.308 211.435 301.564 211.663 301.742 211.934C301.919 212.195 302.008 212.527 302.008 212.928ZM306.719 207.356C307.363 207.356 307.914 207.496 308.371 207.776C308.838 208.056 309.192 208.453 309.435 208.966C309.687 209.47 309.813 210.063 309.813 210.744V211.486H304.675C304.694 212.335 304.908 212.984 305.319 213.432C305.739 213.871 306.322 214.09 307.069 214.09C307.545 214.09 307.965 214.048 308.329 213.964C308.702 213.871 309.085 213.74 309.477 213.572V214.65C309.094 214.818 308.716 214.939 308.343 215.014C307.97 215.098 307.526 215.14 307.013 215.14C306.304 215.14 305.674 214.995 305.123 214.706C304.582 214.417 304.157 213.987 303.849 213.418C303.55 212.839 303.401 212.135 303.401 211.304C303.401 210.483 303.536 209.778 303.807 209.19C304.087 208.602 304.474 208.149 304.969 207.832C305.473 207.515 306.056 207.356 306.719 207.356ZM306.705 208.364C306.117 208.364 305.65 208.555 305.305 208.938C304.969 209.311 304.768 209.834 304.703 210.506H308.525C308.525 210.077 308.46 209.703 308.329 209.386C308.198 209.069 307.998 208.821 307.727 208.644C307.466 208.457 307.125 208.364 306.705 208.364ZM314.383 215.14C313.45 215.14 312.703 214.818 312.143 214.174C311.583 213.521 311.303 212.55 311.303 211.262C311.303 209.974 311.583 209.003 312.143 208.35C312.713 207.687 313.464 207.356 314.397 207.356C314.789 207.356 315.13 207.407 315.419 207.51C315.709 207.603 315.961 207.734 316.175 207.902C316.39 208.07 316.572 208.257 316.721 208.462H316.805C316.796 208.341 316.777 208.163 316.749 207.93C316.731 207.687 316.721 207.496 316.721 207.356V204.36H317.953V215H316.959L316.777 213.992H316.721C316.572 214.207 316.39 214.403 316.175 214.58C315.961 214.748 315.704 214.883 315.405 214.986C315.116 215.089 314.775 215.14 314.383 215.14ZM314.579 214.118C315.373 214.118 315.928 213.903 316.245 213.474C316.572 213.035 316.735 212.377 316.735 211.5V211.276C316.735 210.343 316.581 209.629 316.273 209.134C315.965 208.63 315.396 208.378 314.565 208.378C313.903 208.378 313.403 208.644 313.067 209.176C312.741 209.699 312.577 210.403 312.577 211.29C312.577 212.186 312.741 212.881 313.067 213.376C313.403 213.871 313.907 214.118 314.579 214.118Z" fill="#4E5969"/>
<path d="M382.009 212.416H384.977V208.104H384.949L382.009 212.416ZM387.749 213.676H386.489V216H384.977V213.676H380.777V212.094L384.977 206.2H386.489V212.416H387.749V213.676ZM392.113 206.004C392.813 206.004 393.382 206.167 393.821 206.494C394.269 206.811 394.614 207.222 394.857 207.726C395.109 208.221 395.277 208.767 395.361 209.364C395.454 209.961 395.501 210.54 395.501 211.1C395.501 211.66 395.454 212.239 395.361 212.836C395.277 213.433 395.109 213.984 394.857 214.488C394.614 214.983 394.269 215.393 393.821 215.72C393.382 216.037 392.813 216.196 392.113 216.196C391.413 216.196 390.839 216.037 390.391 215.72C389.952 215.393 389.607 214.983 389.355 214.488C389.112 213.984 388.944 213.433 388.851 212.836C388.767 212.239 388.725 211.66 388.725 211.1C388.725 210.54 388.767 209.961 388.851 209.364C388.944 208.767 389.112 208.221 389.355 207.726C389.607 207.222 389.952 206.811 390.391 206.494C390.839 206.167 391.413 206.004 392.113 206.004ZM392.113 214.866C392.458 214.866 392.747 214.768 392.981 214.572C393.214 214.367 393.396 214.096 393.527 213.76C393.667 213.415 393.765 213.013 393.821 212.556C393.877 212.099 393.905 211.613 393.905 211.1C393.905 210.587 393.877 210.106 393.821 209.658C393.765 209.201 393.667 208.799 393.527 208.454C393.396 208.109 393.214 207.838 392.981 207.642C392.747 207.437 392.458 207.334 392.113 207.334C391.758 207.334 391.464 207.437 391.231 207.642C391.007 207.838 390.825 208.109 390.685 208.454C390.554 208.799 390.461 209.201 390.405 209.658C390.349 210.106 390.321 210.587 390.321 211.1C390.321 211.613 390.349 212.099 390.405 212.556C390.461 213.013 390.554 213.415 390.685 213.76C390.825 214.096 391.007 214.367 391.231 214.572C391.464 214.768 391.758 214.866 392.113 214.866Z" fill="#1D2129"/>
<path d="M400.004 212.904C400.004 212.72 400.016 212.528 400.04 212.328C400.064 212.12 400.112 211.932 400.184 211.764C400.264 211.588 400.372 211.444 400.508 211.332C400.644 211.212 400.824 211.152 401.048 211.152C401.28 211.152 401.46 211.212 401.588 211.332C401.724 211.444 401.828 211.588 401.9 211.764C401.972 211.932 402.016 212.12 402.032 212.328C402.056 212.528 402.068 212.716 402.068 212.892C402.068 213.076 402.056 213.272 402.032 213.48C402.008 213.688 401.956 213.88 401.876 214.056C401.804 214.224 401.7 214.364 401.564 214.476C401.428 214.588 401.244 214.644 401.012 214.644C400.788 214.644 400.608 214.588 400.472 214.476C400.344 214.356 400.244 214.212 400.172 214.044C400.1 213.868 400.052 213.68 400.028 213.48C400.012 213.272 400.004 213.08 400.004 212.904ZM399.104 212.928C399.104 213.256 399.136 213.564 399.2 213.852C399.272 214.14 399.384 214.392 399.536 214.608C399.688 214.824 399.888 214.996 400.136 215.124C400.384 215.244 400.688 215.304 401.048 215.304C401.4 215.304 401.696 215.236 401.936 215.1C402.176 214.964 402.372 214.788 402.524 214.572C402.684 214.348 402.796 214.092 402.86 213.804C402.932 213.508 402.968 213.204 402.968 212.892C402.968 212.564 402.936 212.256 402.872 211.968C402.816 211.672 402.712 211.416 402.56 211.2C402.416 210.984 402.22 210.812 401.972 210.684C401.732 210.556 401.424 210.492 401.048 210.492C400.68 210.492 400.372 210.56 400.124 210.696C399.876 210.824 399.676 211 399.524 211.224C399.372 211.448 399.264 211.708 399.2 212.004C399.136 212.292 399.104 212.6 399.104 212.928ZM405.932 216.744C405.932 216.56 405.944 216.368 405.968 216.168C405.992 215.96 406.04 215.772 406.112 215.604C406.192 215.428 406.3 215.284 406.436 215.172C406.572 215.052 406.752 214.992 406.976 214.992C407.208 214.992 407.388 215.052 407.516 215.172C407.652 215.284 407.756 215.428 407.828 215.604C407.9 215.772 407.944 215.96 407.96 216.168C407.984 216.368 407.996 216.556 407.996 216.732C407.996 216.916 407.984 217.112 407.96 217.32C407.936 217.528 407.884 217.72 407.804 217.896C407.732 218.064 407.628 218.204 407.492 218.316C407.356 218.428 407.172 218.484 406.94 218.484C406.716 218.484 406.536 218.428 406.4 218.316C406.272 218.196 406.172 218.052 406.1 217.884C406.028 217.708 405.98 217.52 405.956 217.32C405.94 217.112 405.932 216.92 405.932 216.744ZM405.032 216.768C405.032 217.096 405.064 217.404 405.128 217.692C405.2 217.98 405.312 218.232 405.464 218.448C405.616 218.656 405.816 218.824 406.064 218.952C406.312 219.072 406.616 219.132 406.976 219.132C407.328 219.132 407.624 219.068 407.864 218.94C408.104 218.804 408.3 218.628 408.452 218.412C408.612 218.188 408.724 217.932 408.788 217.644C408.86 217.348 408.896 217.044 408.896 216.732C408.896 216.404 408.864 216.096 408.8 215.808C408.744 215.512 408.64 215.256 408.488 215.04C408.344 214.824 408.148 214.652 407.9 214.524C407.66 214.396 407.352 214.332 406.976 214.332C406.608 214.332 406.3 214.4 406.052 214.536C405.804 214.664 405.604 214.84 405.452 215.064C405.3 215.288 405.192 215.548 405.128 215.844C405.064 216.132 405.032 216.44 405.032 216.768ZM406.712 210.336L400.256 219.252H401.288L407.732 210.336H406.712Z" fill="#86909C"/>
<rect x="0.5" y="0.5" width="437" height="287" rx="2.5" stroke="#D9D9D9"/>
</svg>
