<svg width="5" height="16" viewBox="0 0 5 16" fill="none" xmlns="http://www.w3.org/2000/svg">
<path d="M2.23994 8.83333C2.75376 8.83333 3.1703 8.46023 3.1703 7.99999C3.1703 7.53976 2.75376 7.16666 2.23994 7.16666C1.72611 7.16666 1.30957 7.53976 1.30957 7.99999C1.30957 8.46023 1.72611 8.83333 2.23994 8.83333Z" stroke="#979797" stroke-width="2" stroke-linecap="round" stroke-linejoin="round"/>
<path d="M2.23994 2.99999C2.75376 2.99999 3.1703 2.6269 3.1703 2.16666C3.1703 1.70642 2.75376 1.33333 2.23994 1.33333C1.72611 1.33333 1.30957 1.70642 1.30957 2.16666C1.30957 2.6269 1.72611 2.99999 2.23994 2.99999Z" stroke="#979797" stroke-width="2" stroke-linecap="round" stroke-linejoin="round"/>
<path d="M2.23994 14.6667C2.75376 14.6667 3.1703 14.2936 3.1703 13.8333C3.1703 13.3731 2.75376 13 2.23994 13C1.72611 13 1.30957 13.3731 1.30957 13.8333C1.30957 14.2936 1.72611 14.6667 2.23994 14.6667Z" stroke="#979797" stroke-width="2" stroke-linecap="round" stroke-linejoin="round"/>
</svg>
