<svg width="40" height="34" viewBox="0 0 40 34" fill="none" xmlns="http://www.w3.org/2000/svg">
<path d="M4.99805 3.66634H39.998V0.333008H4.99805C2.24138 0.333008 -0.00195312 2.57634 -0.00195312 5.33301V28.6663C-0.00195312 31.423 2.24138 33.6663 4.99805 33.6663H39.998V6.99967H4.99805C4.07805 6.99967 3.33138 6.25134 3.33138 5.33301C3.33138 4.41467 4.07805 3.66634 4.99805 3.66634ZM4.99805 10.333H36.6647V30.333H4.99805C4.07805 30.333 3.33138 29.5847 3.33138 28.6663V10.048C3.85138 10.233 4.41305 10.333 4.99805 10.333ZM29.998 20.333C29.998 19.413 30.7447 18.6663 31.6647 18.6663C32.5847 18.6663 33.3314 19.413 33.3314 20.333C33.3314 21.253 32.5847 21.9997 31.6647 21.9997C30.7447 21.9997 29.998 21.253 29.998 20.333Z" fill="#003764"/>
</svg>
