<svg width="43" height="43" viewBox="0 0 43 43" fill="none" xmlns="http://www.w3.org/2000/svg">
<path d="M31.4375 25.9167H31.4596M1.625 6.04167V36.9583C1.625 39.3976 3.60241 41.375 6.04167 41.375H36.9583C39.3976 41.375 41.375 39.3976 41.375 36.9583V14.875C41.375 12.4357 39.3976 10.4583 36.9583 10.4583L6.04167 10.4583C3.60241 10.4583 1.625 8.48092 1.625 6.04167ZM1.625 6.04167C1.625 3.60241 3.60241 1.625 6.04167 1.625H32.5417M32.5417 25.9167C32.5417 26.5265 32.0473 27.0208 31.4375 27.0208C30.8277 27.0208 30.3333 26.5265 30.3333 25.9167C30.3333 25.3069 30.8277 24.8125 31.4375 24.8125C32.0473 24.8125 32.5417 25.3069 32.5417 25.9167Z" stroke="#003764" stroke-width="2" stroke-linecap="round" stroke-linejoin="round"/>
</svg>
