<svg width="24" height="29" viewBox="0 0 24 29" fill="none" xmlns="http://www.w3.org/2000/svg">
<path d="M17.8365 15.9583C17.8365 15.3543 17.3378 14.8646 16.7226 14.8646H7.81091C7.19569 14.8646 6.69695 15.3543 6.69695 15.9583C6.69695 16.5624 7.19569 17.0521 7.81091 17.0521H16.7226C17.3378 17.0521 17.8365 16.5624 17.8365 15.9583Z" fill="white"/>
<path d="M17.8365 21.7917C17.8365 21.1876 17.3378 20.6979 16.7226 20.6979H7.81091C7.19569 20.6979 6.69695 21.1876 6.69695 21.7917C6.69695 22.3957 7.19569 22.8854 7.81091 22.8854H16.7226C17.3378 22.8854 17.8365 22.3957 17.8365 21.7917Z" fill="white"/>
<path fill-rule="evenodd" clip-rule="evenodd" d="M4.84036 0.28125C2.58455 0.28125 0.755859 2.07677 0.755859 4.29167V24.7083C0.755859 26.9232 2.58455 28.7188 4.84036 28.7188H19.6931C21.9489 28.7188 23.7776 26.9232 23.7776 24.7083V8.6195C23.7776 8.06421 23.5931 7.52407 23.2522 7.08102L18.7997 1.29485C18.3084 0.656476 17.5407 0.28125 16.7258 0.28125H4.84036ZM2.98377 4.29167C2.98377 3.2849 3.81499 2.46875 4.84036 2.46875H15.6086V8.88111C15.6086 9.48517 16.1073 9.97486 16.7226 9.97486H21.5497V24.7083C21.5497 25.7151 20.7185 26.5312 19.6931 26.5312H4.84036C3.81499 26.5312 2.98377 25.7151 2.98377 24.7083V4.29167Z" fill="white"/>
</svg>
